IBM Plex Mono-Bold Italic.ufo
<glyph name="exclam" format="2">
  <advance width="600"/>
  <unicode hex="0021"/>
  <outline>
    <contour>
      <point x="321" y="243" type="line" identifier="MD3HJBpMj7"/>
      <point x="417" y="495" type="line" identifier="vL9KmmNHA0"/>
      <point x="451" y="698" type="line" identifier="byonmZNKi0"/>
      <point x="290" y="698" type="line" identifier="vNc1R0lrwt"/>
      <point x="257" y="495" type="line" identifier="SH0rsrEGgM"/>
      <point x="269" y="243" type="line" identifier="MYXULSBW3h"/>
    </contour>
    <contour>
      <point x="256" y="-12" type="curve" smooth="yes" identifier="K6FYxngw3W"/>
      <point x="322" y="-12" identifier="0W4h13jBJQ"/>
      <point x="354" y="21" identifier="jBZLDvSClC"/>
      <point x="361" y="63" type="curve" smooth="yes" identifier="DqQdILuK29"/>
      <point x="366" y="93" identifier="zyb7elCOur"/>
      <point x="367" y="103" identifier="oMCA9Xb8r5"/>
      <point x="367" y="111" type="curve" smooth="yes" identifier="MmQKxGC17f"/>
      <point x="367" y="146" identifier="3SapOmxGNu"/>
      <point x="341" y="174" identifier="6HaUpmARMp"/>
      <point x="279" y="174" type="curve" smooth="yes" identifier="B144HuzwyE"/>
      <point x="213" y="174" identifier="rywOixCysi"/>
      <point x="181" y="141" identifier="YaA99JF3cx"/>
      <point x="174" y="99" type="curve" smooth="yes" identifier="YmYUz5JHQ0"/>
      <point x="169" y="69" identifier="7gs4JFuyGF"/>
      <point x="168" y="59" identifier="dqlbvgEsYs"/>
      <point x="168" y="51" type="curve" smooth="yes" identifier="XTH39jNBEu"/>
      <point x="168" y="16" identifier="iBnTvH43C0"/>
      <point x="194" y="-12" identifier="xKjyksJJyU"/>
    </contour>
  </outline>
</glyph>
<glyph name="numbersign" format="2">
  <advance width="600"/>
  <unicode hex="0023"/>
  <outline>
    <contour>
      <point x="42" y="0" type="line" identifier="oE5ERgQWhN"/>
      <point x="157" y="0" type="line" identifier="s2K3sPZdc7"/>
      <point x="396" y="698" type="line" identifier="qy5CXMStyo"/>
      <point x="281" y="698" type="line" identifier="KiDPuHRLWq"/>
      <point x="214" y="503" type="line" identifier="lBwNfDkidO"/>
      <point x="88" y="503" type="line" identifier="Nm3JvJUCei"/>
      <point x="70" y="395" type="line" identifier="DqWIj4IdHM"/>
      <point x="177" y="395" type="line" identifier="dc380WMEuU"/>
      <point x="146" y="303" type="line" identifier="Ff623Sv5N0"/>
      <point x="17" y="303" type="line" identifier="Oc7sKXconi"/>
      <point x="-1" y="195" type="line" identifier="LLMlHowXJJ"/>
      <point x="109" y="195" type="line" identifier="c6lMRzMfSM"/>
    </contour>
    <contour>
      <point x="236" y="0" type="line" identifier="VpUOqZaXD0"/>
      <point x="351" y="0" type="line" identifier="INF0xf1rrz"/>
      <point x="418" y="195" type="line" identifier="VjuycbqKey"/>
      <point x="544" y="195" type="line" identifier="yTGkMBNL2O"/>
      <point x="562" y="303" type="line" identifier="O7Ye3jRVg7"/>
      <point x="455" y="303" type="line" identifier="QGTvOmKyWx"/>
      <point x="486" y="395" type="line" identifier="wftwz6GT03"/>
      <point x="615" y="395" type="line" identifier="sKQiTZaowO"/>
      <point x="633" y="503" type="line" identifier="GKgZWlP40P"/>
      <point x="523" y="503" type="line" identifier="7JRg9OGcJi"/>
      <point x="590" y="698" type="line" identifier="dh4ondC0kZ"/>
      <point x="475" y="698" type="line" identifier="wKWyfgM40u"/>
    </contour>
  </outline>
</glyph>
<glyph name="dollar" format="2">
  <advance width="600"/>
  <unicode hex="0024"/>
  <outline>
    <contour>
      <point x="192" y="-113" type="line" identifier="aiFP0fLZrF"/>
      <point x="304" y="-113" type="line" identifier="P98gq09bmr"/>
      <point x="321" y="-10" type="line" identifier="A1G6Kip16l"/>
      <point x="475" y="5" identifier="MFnzPdn2kY"/>
      <point x="562" y="97" identifier="yixTVOvAhH"/>
      <point x="562" y="227" type="curve" smooth="yes" identifier="CBC0x9pHVc"/>
      <point x="562" y="322" identifier="JgsxCPiqKs"/>
      <point x="495" y="373" identifier="0kiI50IdG1"/>
      <point x="395" y="404" type="curve" smooth="yes" identifier="wzPcWknAHD"/>
      <point x="381" y="408" type="line" identifier="rXf4NnbO61"/>
      <point x="410" y="582" type="line" identifier="c2Hz1r9aQt"/>
      <point x="448" y="572" identifier="Ubt5vYMiXd"/>
      <point x="476" y="552" identifier="9NwxxC67wB"/>
      <point x="499" y="521" type="curve" identifier="yPS7Hp7lqr"/>
      <point x="591" y="611" type="line" identifier="Ax4aC5y6KL"/>
      <point x="560" y="655" identifier="O9hwmgL0Q0"/>
      <point x="506" y="688" identifier="hTw5ptUS0v"/>
      <point x="440" y="702" type="curve" identifier="fEPFrTZhaP"/>
      <point x="458" y="811" type="line" identifier="2HTqfx2OgL"/>
      <point x="346" y="811" type="line" identifier="O84J5KPiwc"/>
      <point x="329" y="708" type="line" identifier="ndecCCLqA0"/>
      <point x="180" y="696" identifier="2qxIVSPnZG"/>
      <point x="90" y="610" identifier="uPj77leAAA"/>
      <point x="90" y="485" type="curve" smooth="yes" identifier="qj8ZG0qErA"/>
      <point x="90" y="398" identifier="U3kLdKv3zL"/>
      <point x="144" y="338" identifier="FSBpRMTjin"/>
      <point x="251" y="307" type="curve" smooth="yes" identifier="88tlpEo9Q3"/>
      <point x="271" y="301" type="line" identifier="AAIUyD012c"/>
      <point x="239" y="111" type="line" identifier="gCTqXN8ysX"/>
      <point x="189" y="121" identifier="4viViOOzYd"/>
      <point x="139" y="146" identifier="2rlFN7iypL"/>
      <point x="108" y="190" type="curve" identifier="X3nKuwGnIs"/>
      <point x="18" y="98" type="line" identifier="sGXty0zV33"/>
      <point x="52" y="42" identifier="kAbBG9pbsH"/>
      <point x="123" y="5" identifier="aQfQc1pmpK"/>
      <point x="210" y="-7" type="curve" identifier="L7filWEulQ"/>
    </contour>
    <contour>
      <point x="232" y="501" type="curve" smooth="yes" identifier="iP92FwBBOO"/>
      <point x="232" y="540" identifier="IFG3l2RNcv"/>
      <point x="259" y="573" identifier="63hgV1IwUf"/>
      <point x="318" y="584" type="curve" identifier="gK3EzLpTxd"/>
      <point x="294" y="436" type="line" identifier="0Nom7pAa5V"/>
      <point x="251" y="450" identifier="pskKgyTi8F"/>
      <point x="232" y="465" identifier="UgVoplRXlb"/>
    </contour>
    <contour>
      <point x="419" y="211" type="curve" smooth="yes" identifier="oHAPPZSnmQ"/>
      <point x="419" y="160" identifier="42lkYTeT7X"/>
      <point x="391" y="126" identifier="EhIQnzAJTW"/>
      <point x="332" y="113" type="curve" identifier="GrBWSL8Jjm"/>
      <point x="358" y="275" type="line" identifier="2T1risIrU4"/>
      <point x="399" y="260" identifier="PhP7JTLdB1"/>
      <point x="419" y="243" identifier="1eqep7N9hk"/>
    </contour>
  </outline>
</glyph>
<glyph name="percent" format="2">
  <advance width="600"/>
  <unicode hex="0025"/>
  <outline>
    <contour>
      <point x="187" y="339" type="curve" smooth="yes" identifier="ydlHcsv8lC"/>
      <point x="300" y="339" identifier="cHpT5b1CAQ"/>
      <point x="372" y="430" identifier="V3nvfsEZNI"/>
      <point x="372" y="564" type="curve" smooth="yes" identifier="81clU7tv1u"/>
      <point x="372" y="654" identifier="vVLrxvPoe4"/>
      <point x="323" y="710" identifier="BqzVpkHA2G"/>
      <point x="235" y="710" type="curve" smooth="yes" identifier="d4N15onbhB"/>
      <point x="122" y="710" identifier="ZfFZKJ07yI"/>
      <point x="50" y="619" identifier="RSx7HL0jkI"/>
      <point x="50" y="485" type="curve" smooth="yes" identifier="U333QyzJDv"/>
      <point x="50" y="395" identifier="Vk1JMMhipC"/>
      <point x="99" y="339" identifier="8L1381TcUr"/>
    </contour>
    <contour>
      <point x="196" y="425" type="curve" smooth="yes" identifier="IvvgC037vn"/>
      <point x="165" y="425" identifier="jv5X8oU7IO"/>
      <point x="151" y="441" identifier="dHHS6L5xmX"/>
      <point x="151" y="476" type="curve" smooth="yes" identifier="9Aeh17tFOv"/>
      <point x="151" y="492" identifier="ft9q8ptnEM"/>
      <point x="160" y="535" identifier="qoNrGufLbq"/>
      <point x="163" y="553" type="curve" smooth="yes" identifier="IyNUAL4KII"/>
      <point x="170" y="595" identifier="hlSI8wIZFj"/>
      <point x="185" y="624" identifier="nb7iprudf6"/>
      <point x="226" y="624" type="curve" smooth="yes" identifier="mo5brXjx6w"/>
      <point x="257" y="624" identifier="wPSfoyIQsN"/>
      <point x="271" y="608" identifier="INbZwJoDcD"/>
      <point x="271" y="573" type="curve" smooth="yes" identifier="fBZQecK9Jl"/>
      <point x="271" y="557" identifier="oYooO5LqTr"/>
      <point x="262" y="514" identifier="WXp1ohM8cX"/>
      <point x="259" y="496" type="curve" smooth="yes" identifier="mpJr4ZVWBx"/>
      <point x="252" y="454" identifier="oMJtNG9Yz4"/>
      <point x="237" y="425" identifier="cREML8hhjH"/>
    </contour>
    <contour>
      <point x="360" y="398" type="line" identifier="M7SrEgO46w"/>
      <point x="471" y="398" type="line" identifier="3HWZus9XgC"/>
      <point x="672" y="698" type="line" identifier="U2F8drPv64"/>
      <point x="561" y="698" type="line" identifier="xBTqP5WV3C"/>
    </contour>
    <contour>
      <point x="-39" y="0" type="line" identifier="ju1MsBV5xc"/>
      <point x="72" y="0" type="line" identifier="oKqSAALjJ3"/>
      <point x="273" y="300" type="line" identifier="DEutoNfZtF"/>
      <point x="162" y="300" type="line" identifier="qmbYkLDEz9"/>
    </contour>
    <contour>
      <point x="398" y="-12" type="curve" smooth="yes" identifier="rIjlp0oU8T"/>
      <point x="511" y="-12" identifier="QZvHifneZE"/>
      <point x="583" y="79" identifier="XAK1rdM73l"/>
      <point x="583" y="213" type="curve" smooth="yes" identifier="DlPRMOEysK"/>
      <point x="583" y="303" identifier="HVt5dCLGRW"/>
      <point x="534" y="359" identifier="j4ve2bxVjz"/>
      <point x="446" y="359" type="curve" smooth="yes" identifier="6etMNHFopW"/>
      <point x="333" y="359" identifier="aWRQX2KnH1"/>
      <point x="261" y="268" identifier="pcybKKSEWO"/>
      <point x="261" y="134" type="curve" smooth="yes" identifier="xBFoDKimE6"/>
      <point x="261" y="44" identifier="5Xqf2Ry3p5"/>
      <point x="310" y="-12" identifier="zhZH48LZuy"/>
    </contour>
    <contour>
      <point x="407" y="74" type="curve" smooth="yes" identifier="tKWML9G2oN"/>
      <point x="376" y="74" identifier="YgHzJeeaqT"/>
      <point x="362" y="90" identifier="P9o7NnPiOb"/>
      <point x="362" y="125" type="curve" smooth="yes" identifier="muia5ymv83"/>
      <point x="362" y="141" identifier="d4kpmjZ14k"/>
      <point x="371" y="184" identifier="vmFZyffJVs"/>
      <point x="374" y="202" type="curve" smooth="yes" identifier="1X8HXBwmP5"/>
      <point x="381" y="244" identifier="fwHHckhivI"/>
      <point x="396" y="273" identifier="s5FGOGYk56"/>
      <point x="437" y="273" type="curve" smooth="yes" identifier="lYecse5Hjl"/>
      <point x="468" y="273" identifier="SDdD7Tzqow"/>
      <point x="482" y="257" identifier="ucztPR0mP0"/>
      <point x="482" y="222" type="curve" smooth="yes" identifier="2IHXQDYbJJ"/>
      <point x="482" y="206" identifier="AzVOkaGxm2"/>
      <point x="473" y="163" identifier="OizbYzFXl8"/>
      <point x="470" y="145" type="curve" smooth="yes" identifier="64d9PsMAMD"/>
      <point x="463" y="103" identifier="cjyvYFrMuX"/>
      <point x="448" y="74" identifier="SmenQWI54d"/>
    </contour>
  </outline>
</glyph>
<glyph name="ampersand" format="2">
  <advance width="600"/>
  <unicode hex="0026"/>
  <outline>
    <contour>
      <point x="153" y="-12" type="curve" smooth="yes" identifier="W5Gjvbnt4S"/>
      <point x="237" y="-12" identifier="3vOht7e2hH"/>
      <point x="282" y="52" identifier="mtkQuqTG78"/>
      <point x="292" y="137" type="curve" identifier="h5AoMbY4hf"/>
      <point x="298" y="137" type="line" identifier="qAJWDBbTKC"/>
      <point x="325" y="27" identifier="IfFLpq6ntO"/>
      <point x="372" y="-12" identifier="5rMYX9zEbL"/>
      <point x="424" y="-12" type="curve" smooth="yes" identifier="gBEWnCZGsP"/>
      <point x="477" y="-12" identifier="pgUCdmll6u"/>
      <point x="513" y="9" identifier="IMWfxg4AVw"/>
      <point x="551" y="74" type="curve" smooth="yes" identifier="kkQGOb7g2z"/>
      <point x="599" y="155" type="line" identifier="FDhy0LACdD"/>
      <point x="517" y="214" type="line" identifier="jyaK221UNA"/>
      <point x="449" y="119" type="line" identifier="YAQiDq1EP1"/>
      <point x="432" y="123" type="line" identifier="eQhiJw6QCk"/>
      <point x="360" y="324" type="line" identifier="6sKbiLwZYn"/>
      <point x="484" y="347" identifier="KS9pGy2fCR"/>
      <point x="556" y="425" identifier="DP6xrb6YSE"/>
      <point x="556" y="535" type="curve" smooth="yes" identifier="e3fkKLscpm"/>
      <point x="556" y="640" identifier="msKk3052LZ"/>
      <point x="485" y="710" identifier="yObYToyO1h"/>
      <point x="379" y="710" type="curve" smooth="yes" identifier="hMMHGWbgDx"/>
      <point x="248" y="710" identifier="xQ28B5jwaZ"/>
      <point x="175" y="631" identifier="CWOaTI4P25"/>
      <point x="175" y="531" type="curve" smooth="yes" identifier="a9Fj7PqLEN"/>
      <point x="175" y="489" identifier="dcfMJ3mfoe"/>
      <point x="186" y="442" identifier="aJgwHOFnvy"/>
      <point x="200" y="399" type="curve" identifier="fFmgpZx7ru"/>
      <point x="64" y="391" identifier="TnrkPaTqLv"/>
      <point x="10" y="292" identifier="ZZrkPkO4u5"/>
      <point x="10" y="171" type="curve" smooth="yes" identifier="yzbBvbNJWe"/>
      <point x="10" y="50" identifier="cmTocmXj6k"/>
      <point x="69" y="-12" identifier="uhwnjGujSH"/>
    </contour>
    <contour>
      <point x="207" y="115" type="curve" smooth="yes" identifier="h3mjHdIAJC"/>
      <point x="174" y="115" identifier="kJuvqeUKox"/>
      <point x="152" y="141" identifier="0d03spxacG"/>
      <point x="152" y="183" type="curve" smooth="yes" identifier="EnRRLIflZ0"/>
      <point x="152" y="195" identifier="vv4cCfHR4L"/>
      <point x="152" y="210" identifier="TajjGidkZS"/>
      <point x="155" y="242" type="curve" smooth="yes" identifier="PRNrDKTdgB"/>
      <point x="158" y="283" identifier="RRteNpChxr"/>
      <point x="167" y="322" identifier="Ci5xrdxoKK"/>
      <point x="220" y="338" type="curve" identifier="njmKFCvhjU"/>
      <point x="277" y="169" type="line" identifier="QY40T8c7oh"/>
      <point x="258" y="119" identifier="tDStoBc28D"/>
      <point x="231" y="115" identifier="s53VfcGVLg"/>
    </contour>
    <contour>
      <point x="368" y="606" type="curve" smooth="yes" identifier="D0hISmdaAE"/>
      <point x="404" y="606" identifier="DpI5h48lMw"/>
      <point x="428" y="578" identifier="H6ARqLAGYM"/>
      <point x="428" y="542" type="curve" smooth="yes" identifier="y7G7XO6JII"/>
      <point x="428" y="523" identifier="k39pCTcwkM"/>
      <point x="427" y="507" identifier="9xWPKomjFN"/>
      <point x="423" y="483" type="curve" smooth="yes" identifier="jfP73FbqwR"/>
      <point x="415" y="435" identifier="cd6eeo7X6x"/>
      <point x="391" y="407" identifier="T5lETZRbdo"/>
      <point x="337" y="387" type="curve" identifier="aJZjn07s9h"/>
      <point x="334" y="396" type="line" smooth="yes" identifier="bkjxDXJzsh"/>
      <point x="315" y="448" identifier="4yyCuXyn0E"/>
      <point x="305" y="487" identifier="OsGhZuReSX"/>
      <point x="305" y="530" type="curve" smooth="yes" identifier="tWur0pYoiW"/>
      <point x="305" y="571" identifier="dnfodpMYBp"/>
      <point x="323" y="606" identifier="sLloFXE6bn"/>
    </contour>
  </outline>
</glyph>
<glyph name="quotesingle" format="2">
  <advance width="600"/>
  <unicode hex="0027"/>
  <outline>
    <contour>
      <point x="392" y="415" type="line" identifier="j5DvEhXlv2"/>
      <point x="446" y="740" type="line" identifier="kRn8g0kEvs"/>
      <point x="316" y="740" type="line" identifier="Vqc3GpyUoi"/>
      <point x="262" y="415" type="line" identifier="qbjQgbKrhQ"/>
    </contour>
  </outline>
</glyph>
<glyph name="parenleft" format="2">
  <advance width="600"/>
  <unicode hex="0028"/>
  <outline>
    <contour>
      <point x="170" y="239" type="curve" smooth="yes" identifier="jHouxw5YFo"/>
      <point x="170" y="82" identifier="6IrBdrFHM4"/>
      <point x="235" y="-58" identifier="SQWCc3cmyu"/>
      <point x="316" y="-137" type="curve" identifier="I2mNyFSl4l"/>
      <point x="447" y="-137" type="line" identifier="6q86qxWOeC"/>
      <point x="367" y="-57" identifier="PiOSnaWK5j"/>
      <point x="291" y="82" identifier="TH9ZkdvuAO"/>
      <point x="291" y="213" type="curve" smooth="yes" identifier="dGmfDD4PZW"/>
      <point x="291" y="234" identifier="ibxMqtqxuo"/>
      <point x="292" y="251" identifier="1wHnWMAQPp"/>
      <point x="296" y="275" type="curve" smooth="yes" identifier="0du8v2ljBK"/>
      <point x="312" y="370" type="line" smooth="yes" identifier="Rhyy0ohTkd"/>
      <point x="337" y="520" identifier="AKL3wn8tMF"/>
      <point x="453" y="659" identifier="G8EZHcb0f3"/>
      <point x="596" y="760" type="curve" identifier="SCj0o9iavf"/>
      <point x="453" y="760" type="line" identifier="CC73SjLlZa"/>
      <point x="301" y="659" identifier="IU5kwmP78p"/>
      <point x="170" y="461" identifier="V75FnNClQk"/>
    </contour>
  </outline>
</glyph>
<glyph name="parenright" format="2">
  <advance width="600"/>
  <unicode hex="0029"/>
  <outline>
    <contour>
      <point x="452" y="384" type="curve" smooth="yes" identifier="3zvCnfzcs3"/>
      <point x="452" y="541" identifier="7ThTFElnZX"/>
      <point x="387" y="681" identifier="Ry1uS1nfRy"/>
      <point x="306" y="760" type="curve" identifier="mX8OoGw17g"/>
      <point x="175" y="760" type="line" identifier="xACbr4SBGZ"/>
      <point x="255" y="680" identifier="hJHoHAprnt"/>
      <point x="331" y="541" identifier="5rCzafq60E"/>
      <point x="331" y="410" type="curve" smooth="yes" identifier="gG50GmPI4P"/>
      <point x="331" y="389" identifier="3XA4ThUH8a"/>
      <point x="330" y="372" identifier="3hYT24aYku"/>
      <point x="326" y="348" type="curve" smooth="yes" identifier="Ja8eplyZ1I"/>
      <point x="310" y="253" type="line" smooth="yes" identifier="yWy0BmfZSC"/>
      <point x="285" y="103" identifier="HyRqRRs212"/>
      <point x="169" y="-36" identifier="ziticsQaJz"/>
      <point x="26" y="-137" type="curve" identifier="BSwt5SYeIA"/>
      <point x="169" y="-137" type="line" identifier="N6zLkayFAu"/>
      <point x="321" y="-36" identifier="LghgZ601BL"/>
      <point x="452" y="162" identifier="vXa7XKWWJp"/>
    </contour>
  </outline>
</glyph>
<glyph name="asterisk" format="2">
  <advance width="600"/>
  <unicode hex="002A"/>
  <outline>
    <contour>
      <point x="288" y="190" type="line" identifier="Pqt0q2svrl"/>
      <point x="376" y="40" type="line" identifier="mK3baV4Eos"/>
      <point x="485" y="109" type="line" identifier="LRVTSrvttu"/>
      <point x="397" y="252" type="line" identifier="OqedSadQHu"/>
      <point x="578" y="317" type="line" identifier="JBo3ZpIKUK"/>
      <point x="557" y="431" type="line" identifier="T7Wg6vkSjr"/>
      <point x="379" y="370" type="line" identifier="zJQpDOcSQx"/>
      <point x="409" y="548" type="line" identifier="2HQMFKowVV"/>
      <point x="283" y="548" type="line" identifier="TMTQvgWJkd"/>
      <point x="253" y="370" type="line" identifier="cpVYEmRUnG"/>
      <point x="95" y="431" type="line" identifier="HYVTWF2baP"/>
      <point x="40" y="320" type="line" identifier="mTHfi6RdzI"/>
      <point x="198" y="259" type="line" identifier="mzyFe6YSj9"/>
      <point x="61" y="109" type="line" identifier="k2IIJlg8mE"/>
      <point x="157" y="40" type="line" identifier="CflBTR9RRy"/>
    </contour>
  </outline>
</glyph>
<glyph name="plus" format="2">
  <advance width="600"/>
  <unicode hex="002B"/>
  <outline>
    <contour>
      <point x="331" y="62" type="line" identifier="VxGE8liJms"/>
      <point x="362" y="247" type="line" identifier="8IduLUCNeT"/>
      <point x="537" y="247" type="line" identifier="gwBFnpMkIo"/>
      <point x="557" y="363" type="line" identifier="HOqtFaHyVA"/>
      <point x="381" y="363" type="line" identifier="Nf3uu69sSB"/>
      <point x="412" y="548" type="line" identifier="ORfRaIpFNi"/>
      <point x="286" y="548" type="line" identifier="sniAnGOvwC"/>
      <point x="255" y="363" type="line" identifier="1yGtbmwGAl"/>
      <point x="81" y="363" type="line" identifier="KtvM9eeERD"/>
      <point x="61" y="247" type="line" identifier="fy2BAaPklI"/>
      <point x="236" y="247" type="line" identifier="ELtKECRtKl"/>
      <point x="205" y="62" type="line" identifier="LKe1ukExPI"/>
    </contour>
  </outline>
</glyph>
<glyph name="comma" format="2">
  <advance width="600"/>
  <unicode hex="002C"/>
  <outline>
    <contour>
      <point x="102" y="-151" type="line" identifier="7EjaNaEZh2"/>
      <point x="215" y="-151" type="line" identifier="QS2XMZgYQG"/>
      <point x="398" y="173" type="line" identifier="Py0nUf2yxq"/>
      <point x="211" y="173" type="line" identifier="t7NhgM5nUe"/>
    </contour>
  </outline>
</glyph>
<glyph name="hyphen" format="2">
  <advance width="600"/>
  <unicode hex="002D"/>
  <outline>
    <contour>
      <point x="456" y="235" type="line" identifier="nrcNuagaCj"/>
      <point x="479" y="375" type="line" identifier="MBxpxoElcu"/>
      <point x="162" y="375" type="line" identifier="Zn0Npz6lvB"/>
      <point x="139" y="235" type="line" identifier="o4uT5JzAUQ"/>
    </contour>
  </outline>
</glyph>
<glyph name="period" format="2">
  <advance width="600"/>
  <unicode hex="002E"/>
  <outline>
    <contour>
      <point x="255" y="-12" type="curve" smooth="yes" identifier="oPQGtBdXpO"/>
      <point x="328" y="-12" identifier="LUk12HJ3IY"/>
      <point x="363" y="26" identifier="3IDXuSpQie"/>
      <point x="370" y="68" type="curve" smooth="yes" identifier="2IChizToir"/>
      <point x="374" y="92" identifier="JF577igtsz"/>
      <point x="376" y="108" identifier="L8OrrKhD43"/>
      <point x="376" y="119" type="curve" smooth="yes" identifier="7oqm3N1k1D"/>
      <point x="376" y="156" identifier="Dz5xaZR0zz"/>
      <point x="350" y="186" identifier="sgkuJZfO8z"/>
      <point x="284" y="186" type="curve" smooth="yes" identifier="XGc29tHie1"/>
      <point x="211" y="186" identifier="dv809LsCIU"/>
      <point x="176" y="148" identifier="LsyUXlvkhN"/>
      <point x="169" y="106" type="curve" smooth="yes" identifier="3QIGw8Hwel"/>
      <point x="165" y="82" identifier="ih1qKDIEwe"/>
      <point x="163" y="66" identifier="68cZgCcswE"/>
      <point x="163" y="55" type="curve" smooth="yes" identifier="blb0OpYNeR"/>
      <point x="163" y="18" identifier="yVnQX0snVn"/>
      <point x="189" y="-12" identifier="TFMExhVVyJ"/>
    </contour>
  </outline>
</glyph>
<glyph name="slash" format="2">
  <advance width="600"/>
  <unicode hex="002F"/>
  <outline>
    <contour>
      <point x="135" y="-138" type="line" identifier="5TTdc3OmlC"/>
      <point x="599" y="760" type="line" identifier="VyW15JYhz1"/>
      <point x="465" y="760" type="line" identifier="ipUvYagk8X"/>
      <point x="1" y="-138" type="line" identifier="zXofvGhqLK"/>
    </contour>
  </outline>
</glyph>
<glyph name="zero" format="2">
  <advance width="600"/>
  <unicode hex="0030"/>
  <outline>
    <contour>
      <point x="278" y="-12" type="curve" smooth="yes" identifier="87E6fISUiT"/>
      <point x="501" y="-12" identifier="tCoUCbu5JS"/>
      <point x="592" y="212" identifier="pWQMjQSGV7"/>
      <point x="592" y="442" type="curve" smooth="yes" identifier="BD5fN1eeCo"/>
      <point x="592" y="609" identifier="uGEPlVvZMd"/>
      <point x="518" y="710" identifier="GsNos18tgJ"/>
      <point x="350" y="710" type="curve" smooth="yes" identifier="81Z3IJeShQ"/>
      <point x="127" y="710" identifier="qdPimi2HXa"/>
      <point x="36" y="486" identifier="Q5ZmpTTugH"/>
      <point x="36" y="256" type="curve" smooth="yes" identifier="Wm2ugv6jQO"/>
      <point x="36" y="89" identifier="Q0dU5jaFzo"/>
      <point x="112" y="-12" identifier="Bk1HXWsOMg"/>
    </contour>
    <contour>
      <point x="278" y="103" type="curve" smooth="yes" identifier="tgL3Y091qw"/>
      <point x="212" y="103" identifier="vjnl4VcLKt"/>
      <point x="181" y="145" identifier="S36NjlqL2s"/>
      <point x="181" y="215" type="curve" smooth="yes" identifier="JHRJJRn7Ms"/>
      <point x="181" y="238" identifier="QVqA998D2H"/>
      <point x="183" y="259" identifier="k7UuSvFP6c"/>
      <point x="188" y="289" type="curve" smooth="yes" identifier="FZaPIW4ZgE"/>
      <point x="209" y="416" type="line" smooth="yes" identifier="avGpPb4ll6"/>
      <point x="228" y="530" identifier="tU2GZbkpJo"/>
      <point x="259" y="595" identifier="oruDnDKiHy"/>
      <point x="350" y="595" type="curve" smooth="yes" identifier="bmzQrwZJCp"/>
      <point x="416" y="595" identifier="SaxIPid03F"/>
      <point x="447" y="553" identifier="o9bKvcX8RU"/>
      <point x="447" y="483" type="curve" smooth="yes" identifier="9G945kLRqQ"/>
      <point x="447" y="460" identifier="qlGP6FpbJE"/>
      <point x="445" y="439" identifier="g2rIdi09nI"/>
      <point x="440" y="409" type="curve" smooth="yes" identifier="SKH4lTZ7PE"/>
      <point x="419" y="282" type="line" smooth="yes" identifier="rTWga1WMBd"/>
      <point x="400" y="168" identifier="ZDgUb5yRL1"/>
      <point x="369" y="103" identifier="MSdJJdBW3E"/>
    </contour>
    <contour>
      <point x="307" y="290" type="curve" smooth="yes" identifier="P0TXqaDRkk"/>
      <point x="351" y="290" identifier="HfDLVfnqye"/>
      <point x="371" y="308" identifier="f4Hkjt3Hm2"/>
      <point x="376" y="338" type="curve" smooth="yes" identifier="TvEpKlDa77"/>
      <point x="378" y="350" identifier="rUDzTpRE6f"/>
      <point x="379" y="360" identifier="SZuVjIK7QX"/>
      <point x="379" y="366" type="curve" smooth="yes" identifier="CwwrnQtrfI"/>
      <point x="379" y="390" identifier="NKtxUUtoyu"/>
      <point x="362" y="408" identifier="a1n7DHQLbY"/>
      <point x="321" y="408" type="curve" smooth="yes" identifier="nFM8EFFohR"/>
      <point x="277" y="408" identifier="MNSYF0oSFR"/>
      <point x="257" y="390" identifier="ix1mmQHTNm"/>
      <point x="252" y="360" type="curve" smooth="yes" identifier="e2CteSktnY"/>
      <point x="250" y="348" identifier="fozqqGFHUA"/>
      <point x="249" y="338" identifier="Qzgp24f7mU"/>
      <point x="249" y="332" type="curve" smooth="yes" identifier="lOmU30YXFf"/>
      <point x="249" y="308" identifier="wNDNbLxWSd"/>
      <point x="266" y="290" identifier="oz7FMv7nPK"/>
    </contour>
  </outline>
</glyph>
<glyph name="one" format="2">
  <advance width="600"/>
  <unicode hex="0031"/>
  <outline>
    <contour>
      <point x="531" y="0" type="line" identifier="yz5Z3jrYyR"/>
      <point x="551" y="120" type="line" identifier="qWc03HOkdy"/>
      <point x="402" y="120" type="line" identifier="RHF2Nz1ZjY"/>
      <point x="498" y="698" type="line" identifier="2sQPvp7n8k"/>
      <point x="266" y="698" type="line" identifier="X6FXDk9NtX"/>
      <point x="66" y="478" type="line" identifier="wg1uWZfnPh"/>
      <point x="154" y="403" type="line" identifier="bQEFPESalv"/>
      <point x="323" y="589" type="line" identifier="SVcyaz25ti"/>
      <point x="332" y="589" type="line" identifier="BreXHYcLgP"/>
      <point x="254" y="120" type="line" identifier="F7Yw9SzfHn"/>
      <point x="67" y="120" type="line" identifier="GAmGD6c4mo"/>
      <point x="47" y="0" type="line" identifier="zEZBEISW5L"/>
    </contour>
  </outline>
</glyph>
<glyph name="two" format="2">
  <advance width="600"/>
  <unicode hex="0032"/>
  <outline>
    <contour>
      <point x="533" y="124" type="line" identifier="oSjVAUKZbL"/>
      <point x="209" y="124" type="line" identifier="LZNhxMl2oW"/>
      <point x="359" y="232" type="line" smooth="yes" identifier="kcp7bNBoCk"/>
      <point x="495" y="330" identifier="qk4Gm1iGvA"/>
      <point x="580" y="396" identifier="3a7KH6b7r5"/>
      <point x="580" y="515" type="curve" smooth="yes" identifier="Ta0mAcFzzT"/>
      <point x="580" y="632" identifier="ChcFFshxct"/>
      <point x="495" y="710" identifier="sANUm4ULKS"/>
      <point x="350" y="710" type="curve" smooth="yes" identifier="VbOQH45UJB"/>
      <point x="215" y="710" identifier="JOeeOHVX8Q"/>
      <point x="131" y="633" identifier="A1hdksFuSL"/>
      <point x="84" y="533" type="curve" identifier="TP71jDwInx"/>
      <point x="212" y="483" type="line" identifier="zjWvxlZpLj"/>
      <point x="234" y="535" identifier="hzRAV0551K"/>
      <point x="272" y="582" identifier="WJAAcO8hFJ"/>
      <point x="338" y="582" type="curve" smooth="yes" identifier="9T5GLK1BkM"/>
      <point x="392" y="582" identifier="3vtwukR3yl"/>
      <point x="422" y="552" identifier="f16XyzBh8u"/>
      <point x="422" y="511" type="curve" smooth="yes" identifier="pM1YGEucvU"/>
      <point x="422" y="500" identifier="BKaWuARAOq"/>
      <point x="421" y="491" identifier="fvUOJ29n7c"/>
      <point x="420" y="485" type="curve" smooth="yes" identifier="5NGwCC8PyD"/>
      <point x="411" y="431" identifier="f6zolD5CXc"/>
      <point x="375" y="388" identifier="gbIfuVOFLa"/>
      <point x="287" y="323" type="curve" smooth="yes" identifier="3fylCUmMdY"/>
      <point x="34" y="136" type="line" identifier="N62oa3yM3C"/>
      <point x="12" y="0" type="line" identifier="fZAMNPTiiL"/>
      <point x="512" y="0" type="line" identifier="0uRcZVTbzO"/>
    </contour>
  </outline>
</glyph>
<glyph name="three" format="2">
  <advance width="600"/>
  <unicode hex="0033"/>
  <outline>
    <contour>
      <point x="227" y="422" type="line" identifier="DmLwXoY1TP"/>
      <point x="206" y="298" type="line" identifier="gaUYCFgYhP"/>
      <point x="281" y="298" type="line" smooth="yes" identifier="bXB2AYKwD9"/>
      <point x="343" y="298" identifier="RGw9C88Zgk"/>
      <point x="383" y="269" identifier="2tVdpTVMw4"/>
      <point x="383" y="221" type="curve" smooth="yes" identifier="FhJ1qevPcv"/>
      <point x="383" y="212" identifier="KLPOD2aWe4"/>
      <point x="382" y="201" identifier="D4zB5hby2Q"/>
      <point x="381" y="195" type="curve" smooth="yes" identifier="CiAqMp0NlO"/>
      <point x="372" y="141" identifier="aHUzbGJZI2"/>
      <point x="331" y="109" identifier="wsFzQrHQ66"/>
      <point x="261" y="109" type="curve" smooth="yes" identifier="gaTmGDZD2y"/>
      <point x="182" y="109" identifier="o9hoT5fz4K"/>
      <point x="143" y="146" identifier="Fj5rpCSdPY"/>
      <point x="118" y="199" type="curve" identifier="MTbhlbFXtf"/>
      <point x="12" y="122" type="line" identifier="oYV2uFMPS7"/>
      <point x="44" y="51" identifier="SKiLcO7jmL"/>
      <point x="114" y="-12" identifier="tuyzrrVyoQ"/>
      <point x="255" y="-12" type="curve" smooth="yes" identifier="35HVVnaV0a"/>
      <point x="440" y="-12" identifier="TbT1vkgnXW"/>
      <point x="539" y="85" identifier="9h87hnRDy7"/>
      <point x="539" y="215" type="curve" smooth="yes" identifier="mxgUKze5ca"/>
      <point x="539" y="298" identifier="WXwQd8VOrd"/>
      <point x="489" y="349" identifier="iuUffnWNAZ"/>
      <point x="415" y="362" type="curve" identifier="74YPfHgBPG"/>
      <point x="416" y="367" type="line" identifier="tFrYq7B8oj"/>
      <point x="518" y="390" identifier="gHf5cx5TZ9"/>
      <point x="580" y="453" identifier="troU5Qn0gk"/>
      <point x="580" y="544" type="curve" smooth="yes" identifier="zdEKswqL4j"/>
      <point x="580" y="645" identifier="GSELm43YcA"/>
      <point x="492" y="710" identifier="TKAPAZ7JMP"/>
      <point x="354" y="710" type="curve" smooth="yes" identifier="fuY0XnbNoi"/>
      <point x="231" y="710" identifier="6f5iXFU0ih"/>
      <point x="158" y="665" identifier="6XlYIgesrf"/>
      <point x="96" y="599" type="curve" identifier="52nu5kfqBe"/>
      <point x="178" y="507" type="line" identifier="pO4M0yYoNj"/>
      <point x="222" y="566" identifier="3M1Wld6lLE"/>
      <point x="272" y="589" identifier="iSUiVdAX72"/>
      <point x="328" y="589" type="curve" smooth="yes" identifier="RyMx05NpOR"/>
      <point x="384" y="589" identifier="g44TMj5JMT"/>
      <point x="420" y="562" identifier="PqhgqfxE3V"/>
      <point x="420" y="518" type="curve" smooth="yes" identifier="k686YK1Bet"/>
      <point x="420" y="509" identifier="HzIICQ5SJK"/>
      <point x="419" y="503" identifier="Yi9oI5Z4IZ"/>
      <point x="417" y="491" type="curve" smooth="yes" identifier="hwNIJt6XmA"/>
      <point x="411" y="455" identifier="E4HggtrMCi"/>
      <point x="375" y="422" identifier="uHnCphfGbz"/>
      <point x="294" y="422" type="curve" smooth="yes" identifier="9Ckl4iqf3Q"/>
    </contour>
  </outline>
</glyph>
<glyph name="four" format="2">
  <advance width="600"/>
  <unicode hex="0034"/>
  <outline>
    <contour>
      <point x="442" y="0" type="line" identifier="08sVeGXGEH"/>
      <point x="464" y="134" type="line" identifier="zXK8j2nphq"/>
      <point x="553" y="134" type="line" identifier="4lpuQGYHc8"/>
      <point x="572" y="249" type="line" identifier="OHMghsSA9V"/>
      <point x="483" y="249" type="line" identifier="QLZBneJUzp"/>
      <point x="558" y="698" type="line" identifier="O76Fl6FpYV"/>
      <point x="379" y="698" type="line" identifier="wDNmWQuMI7"/>
      <point x="28" y="264" type="line" identifier="TwCRGq3G9m"/>
      <point x="6" y="134" type="line" identifier="hnFWT9eqbN"/>
      <point x="320" y="134" type="line" identifier="SSSkrZZkzv"/>
      <point x="298" y="0" type="line" identifier="dkhpHZLuhB"/>
    </contour>
    <contour>
      <point x="378" y="530" type="line" identifier="wv4IH6a7HQ"/>
      <point x="386" y="530" type="line" identifier="f6oX7OPvlH"/>
      <point x="339" y="249" type="line" identifier="kgkNvBvTyP"/>
      <point x="151" y="249" type="line" identifier="Zstt2kBd4b"/>
    </contour>
  </outline>
</glyph>
<glyph name="five" format="2">
  <advance width="600"/>
  <unicode hex="0035"/>
  <outline>
    <contour>
      <point x="593" y="698" type="line" identifier="o0s3XONBNP"/>
      <point x="162" y="698" type="line" identifier="6ZiCbem6fb"/>
      <point x="70" y="303" type="line" identifier="Gpd42W8cLM"/>
      <point x="188" y="287" type="line" identifier="ugWDOvr22d"/>
      <point x="212" y="308" identifier="ImKEKDA5HD"/>
      <point x="251" y="336" identifier="8yFNDGhNsk"/>
      <point x="306" y="336" type="curve" smooth="yes" identifier="beQUdJr3pZ"/>
      <point x="366" y="336" identifier="HDvSzAfxFD"/>
      <point x="401" y="305" identifier="cDXUohHbyH"/>
      <point x="401" y="252" type="curve" smooth="yes" identifier="4VmPR6egbF"/>
      <point x="401" y="238" identifier="bebABZE6C0"/>
      <point x="400" y="224" identifier="KnUMqPOkmT"/>
      <point x="398" y="212" type="curve" smooth="yes" identifier="jFj6LhqS2Y"/>
      <point x="388" y="152" identifier="wl0X4i6tlm"/>
      <point x="345" y="109" identifier="zLPkfgO81l"/>
      <point x="271" y="109" type="curve" smooth="yes" identifier="F7QaXvTbbf"/>
      <point x="199" y="109" identifier="zr9m0ecDDG"/>
      <point x="156" y="148" identifier="eYEvVAHVmj"/>
      <point x="135" y="199" type="curve" identifier="A2AUUQKxW2"/>
      <point x="18" y="124" type="line" identifier="mA3Zeu8EAM"/>
      <point x="51" y="53" identifier="Mn8YHLggQ6"/>
      <point x="117" y="-12" identifier="3HKQrv6U0j"/>
      <point x="268" y="-12" type="curve" smooth="yes" identifier="0215J4FWXk"/>
      <point x="464" y="-12" identifier="ztzJAdsfNO"/>
      <point x="563" y="126" identifier="pU5yrvToBP"/>
      <point x="563" y="262" type="curve" smooth="yes" identifier="MS3On2Z3TU"/>
      <point x="563" y="385" identifier="2FYEivkdd3"/>
      <point x="482" y="456" identifier="owDIXB4G5I"/>
      <point x="373" y="456" type="curve" smooth="yes" identifier="LISnJtQOTu"/>
      <point x="285" y="456" identifier="BASYsQXh4q"/>
      <point x="244" y="416" identifier="VMCOZ2l1ey"/>
      <point x="204" y="346" type="curve" identifier="SC5qeC2IQN"/>
      <point x="196" y="346" type="line" identifier="2xj3QmQ23U"/>
      <point x="248" y="569" type="line" identifier="ZCy9ThPF8z"/>
      <point x="571" y="569" type="line" identifier="QoYLveCkxH"/>
    </contour>
  </outline>
</glyph>
<glyph name="six" format="2">
  <advance width="600"/>
  <unicode hex="0036"/>
  <outline>
    <contour>
      <point x="274" y="-12" type="curve" smooth="yes" identifier="csDE38z3ek"/>
      <point x="462" y="-12" identifier="CC8r9pAr78"/>
      <point x="565" y="116" identifier="kd38BOsWKY"/>
      <point x="565" y="258" type="curve" smooth="yes" identifier="unyc2gQbKT"/>
      <point x="565" y="373" identifier="cGngTR4fEZ"/>
      <point x="497" y="450" identifier="7Ww6QHHtv3"/>
      <point x="389" y="450" type="curve" smooth="yes" identifier="zQTn9DG6Lh"/>
      <point x="300" y="450" identifier="Rx6LDIMj1C"/>
      <point x="252" y="398" identifier="9U5PGdGpR5"/>
      <point x="217" y="345" type="curve" identifier="7aWvUVkThJ"/>
      <point x="209" y="348" type="line" identifier="YGyIlnDFGq"/>
      <point x="261" y="483" identifier="k2CC3PDLm3"/>
      <point x="380" y="582" identifier="nAMowk9xSh"/>
      <point x="568" y="698" type="curve" identifier="6RvtgwOcTZ"/>
      <point x="357" y="698" type="line" identifier="62fJQzE4OC"/>
      <point x="193" y="604" identifier="zWYgSLqXnN"/>
      <point x="36" y="427" identifier="5Nv82Xg7ED"/>
      <point x="36" y="224" type="curve" smooth="yes" identifier="NKraEF7Dkc"/>
      <point x="36" y="80" identifier="LE4V0sZPnM"/>
      <point x="120" y="-12" identifier="VuLpxGYQLJ"/>
    </contour>
    <contour>
      <point x="285" y="104" type="curve" smooth="yes" identifier="2swKK9th1j"/>
      <point x="221" y="104" identifier="OzsfKauaPm"/>
      <point x="186" y="136" identifier="XRRzQdMgn3"/>
      <point x="186" y="200" type="curve" smooth="yes" identifier="xYAnCDSmiI"/>
      <point x="186" y="209" identifier="jgg2lYwOJc"/>
      <point x="187" y="221" identifier="LJWcsfRdr6"/>
      <point x="189" y="233" type="curve" smooth="yes" identifier="E1w2cFhRjx"/>
      <point x="200" y="299" identifier="mOMn42Qziu"/>
      <point x="244" y="336" identifier="Xzp84nekwY"/>
      <point x="311" y="336" type="curve" smooth="yes" identifier="PMEkMcHCik"/>
      <point x="375" y="336" identifier="FdJODIvWCO"/>
      <point x="410" y="304" identifier="8BoYFLd6Wv"/>
      <point x="410" y="240" type="curve" smooth="yes" identifier="QNkz0TPB0K"/>
      <point x="410" y="231" identifier="ncRM7zpzyJ"/>
      <point x="409" y="219" identifier="bOWBvbomSK"/>
      <point x="407" y="207" type="curve" smooth="yes" identifier="Rnb5FrsvQy"/>
      <point x="396" y="141" identifier="ndCsWgy31L"/>
      <point x="352" y="104" identifier="JM1rXBgrNh"/>
    </contour>
  </outline>
</glyph>
<glyph name="seven" format="2">
  <advance width="600"/>
  <unicode hex="0037"/>
  <outline>
    <contour>
      <point x="270" y="0" type="line" identifier="g4IbkGhsOT"/>
      <point x="595" y="569" type="line" identifier="d2AkqVzpDr"/>
      <point x="617" y="698" type="line" identifier="0rkIsO9W5m"/>
      <point x="115" y="698" type="line" identifier="py7l7cJZQ5"/>
      <point x="74" y="450" type="line" identifier="DXid6GgmiC"/>
      <point x="200" y="450" type="line" identifier="13Cbbi9e2g"/>
      <point x="221" y="577" type="line" identifier="nBhWM1j9XM"/>
      <point x="446" y="577" type="line" identifier="qyAruzM1oy"/>
      <point x="110" y="0" type="line" identifier="2xB4oE10cW"/>
    </contour>
  </outline>
</glyph>
<glyph name="eight" format="2">
  <advance width="600"/>
  <unicode hex="0038"/>
  <outline>
    <contour>
      <point x="269" y="-12" type="curve" smooth="yes" identifier="PwhpX9gqwi"/>
      <point x="460" y="-12" identifier="TIzc1KfsQs"/>
      <point x="556" y="103" identifier="vrEdRiwZvE"/>
      <point x="556" y="213" type="curve" smooth="yes" identifier="83qvFKd5pu"/>
      <point x="556" y="288" identifier="hSPzb4MgdC"/>
      <point x="512" y="340" identifier="rgOT5LChHx"/>
      <point x="442" y="360" type="curve" identifier="8nl97RALus"/>
      <point x="443" y="367" type="line" identifier="KDjVAkxG1I"/>
      <point x="533" y="399" identifier="S5kCbDAm8P"/>
      <point x="588" y="460" identifier="3vw4yOx1mA"/>
      <point x="588" y="543" type="curve" smooth="yes" identifier="PKhfF2NQfI"/>
      <point x="588" y="642" identifier="ZwMmX8JYf6"/>
      <point x="513" y="710" identifier="2qipyr8mUs"/>
      <point x="367" y="710" type="curve" smooth="yes" identifier="JtpTzSLCny"/>
      <point x="182" y="710" identifier="UqOW8vB4DH"/>
      <point x="100" y="604" identifier="awIhE2aCBO"/>
      <point x="100" y="506" type="curve" smooth="yes" identifier="iXCMJhPFGU"/>
      <point x="100" y="437" identifier="kufpDM1uJV"/>
      <point x="136" y="391" identifier="xv2JCkig1h"/>
      <point x="194" y="368" type="curve" identifier="YkO5cwam2V"/>
      <point x="193" y="361" type="line" identifier="b1qw9WaJWo"/>
      <point x="88" y="337" identifier="5u6mNUGWSw"/>
      <point x="24" y="263" identifier="POssN9qrt6"/>
      <point x="24" y="166" type="curve" smooth="yes" identifier="f6DqY5k0cX"/>
      <point x="24" y="61" identifier="elpg8EVoUr"/>
      <point x="109" y="-12" identifier="1udZwlYrWZ"/>
    </contour>
    <contour>
      <point x="275" y="102" type="curve" smooth="yes" identifier="Vs6mJ28War"/>
      <point x="211" y="102" identifier="3PMn3MwKQZ"/>
      <point x="178" y="131" identifier="Uqr8dulDup"/>
      <point x="178" y="177" type="curve" smooth="yes" identifier="WKtANIsbYz"/>
      <point x="178" y="188" identifier="VWI0rSqhJM"/>
      <point x="178" y="194" identifier="DiA7E6PTW8"/>
      <point x="181" y="212" type="curve" smooth="yes" identifier="GO9EXLZNMu"/>
      <point x="190" y="266" identifier="ik1vzQmSdI"/>
      <point x="231" y="302" identifier="he7kHYIM3x"/>
      <point x="303" y="302" type="curve" smooth="yes" identifier="T3byztyq8P"/>
      <point x="367" y="302" identifier="xILvbgO9Oi"/>
      <point x="400" y="273" identifier="UM3wJ91xJy"/>
      <point x="400" y="227" type="curve" smooth="yes" identifier="RHjIdufSFC"/>
      <point x="400" y="216" identifier="5k6vXWYb80"/>
      <point x="400" y="210" identifier="x2Lv9vAo86"/>
      <point x="397" y="192" type="curve" smooth="yes" identifier="kLfdgpT1DR"/>
      <point x="388" y="138" identifier="XEXtznuz1R"/>
      <point x="347" y="102" identifier="ou9OjKRYpw"/>
    </contour>
    <contour>
      <point x="329" y="411" type="curve" smooth="yes" identifier="0MjLzuzT7f"/>
      <point x="269" y="411" identifier="RN6dEZwEbv"/>
      <point x="237" y="437" identifier="yC97mytAJa"/>
      <point x="237" y="480" type="curve" smooth="yes" identifier="uACrnTiY2k"/>
      <point x="237" y="488" identifier="NRaz8eSSDl"/>
      <point x="238" y="499" identifier="PKb56BQqF7"/>
      <point x="240" y="511" type="curve" smooth="yes" identifier="lAUZCRPUB5"/>
      <point x="249" y="565" identifier="R1E3ewMKB8"/>
      <point x="287" y="596" identifier="YKdDxPV17J"/>
      <point x="352" y="596" type="curve" smooth="yes" identifier="rRgV3LYWNC"/>
      <point x="412" y="596" identifier="IpsLefC89v"/>
      <point x="444" y="570" identifier="khpB9w7EZi"/>
      <point x="444" y="527" type="curve" smooth="yes" identifier="DIhA4cGC9v"/>
      <point x="444" y="519" identifier="lrAg4q2htF"/>
      <point x="443" y="508" identifier="Z1qiz7fbY8"/>
      <point x="441" y="496" type="curve" smooth="yes" identifier="w6pAzagRGy"/>
      <point x="432" y="442" identifier="7tLMOpLPF9"/>
      <point x="394" y="411" identifier="JT9BqoHEGM"/>
    </contour>
  </outline>
</glyph>
<glyph name="nine" format="2">
  <advance width="600"/>
  <unicode hex="0039"/>
  <outline>
    <contour>
      <point x="592" y="474" type="curve" smooth="yes" identifier="PmGOqmDmNg"/>
      <point x="592" y="618" identifier="HwS1VEjR8B"/>
      <point x="508" y="710" identifier="35h3exA92G"/>
      <point x="354" y="710" type="curve" smooth="yes" identifier="oP7YNvMQbI"/>
      <point x="166" y="710" identifier="i1MDvWvelj"/>
      <point x="63" y="582" identifier="3UF7l1HlMg"/>
      <point x="63" y="440" type="curve" smooth="yes" identifier="VNKjusUGLI"/>
      <point x="63" y="325" identifier="jjJ9NiZ86E"/>
      <point x="131" y="248" identifier="zNyns90Bu0"/>
      <point x="239" y="248" type="curve" smooth="yes" identifier="0zk17UnyF6"/>
      <point x="328" y="248" identifier="4AZc2zUI6c"/>
      <point x="376" y="300" identifier="Jsw3BXXAaE"/>
      <point x="411" y="353" type="curve" identifier="HbuGX6kFBr"/>
      <point x="419" y="350" type="line" identifier="T53wtnqadX"/>
      <point x="367" y="215" identifier="AhiDDyfNVM"/>
      <point x="248" y="116" identifier="yQIMYEmBar"/>
      <point x="60" y="0" type="curve" identifier="3jYdzpTrio"/>
      <point x="271" y="0" type="line" identifier="YlBAYfE4cT"/>
      <point x="435" y="94" identifier="IttEWD5aGg"/>
      <point x="592" y="271" identifier="9re8Jo5B5V"/>
    </contour>
    <contour>
      <point x="317" y="362" type="curve" smooth="yes" identifier="x0a1FwMSpJ"/>
      <point x="253" y="362" identifier="qBaNMqneF3"/>
      <point x="218" y="394" identifier="7dYGqTpgQU"/>
      <point x="218" y="458" type="curve" smooth="yes" identifier="2IC3Vo5dsd"/>
      <point x="218" y="467" identifier="mh8NvWziH0"/>
      <point x="219" y="479" identifier="4MCQsgkBQ6"/>
      <point x="221" y="491" type="curve" smooth="yes" identifier="NmmlPG8zTg"/>
      <point x="232" y="557" identifier="AD6Y1tdrM1"/>
      <point x="276" y="594" identifier="iNDQXCb29g"/>
      <point x="343" y="594" type="curve" smooth="yes" identifier="hZQ6VEebDN"/>
      <point x="407" y="594" identifier="PzvCjuKz0N"/>
      <point x="442" y="562" identifier="3uejQ7SxDp"/>
      <point x="442" y="498" type="curve" smooth="yes" identifier="lVRKvoV1gB"/>
      <point x="442" y="489" identifier="HYY3dsmKHP"/>
      <point x="441" y="477" identifier="tkaDeThrQR"/>
      <point x="439" y="465" type="curve" smooth="yes" identifier="zXmWhaeTuX"/>
      <point x="428" y="399" identifier="lJwji2XvXG"/>
      <point x="384" y="362" identifier="YIutM46muH"/>
    </contour>
  </outline>
</glyph>
<glyph name="less" format="2">
  <advance width="600"/>
  <unicode hex="003C"/>
  <outline>
    <contour>
      <point x="473" y="7" type="line" identifier="25XPg3OQ3H"/>
      <point x="495" y="138" type="line" identifier="o8AEv6ovEd"/>
      <point x="224" y="296" type="line" identifier="7JsSD7MLaO"/>
      <point x="225" y="304" type="line" identifier="yQl7OA3znd"/>
      <point x="548" y="461" type="line" identifier="tm7ot135r0"/>
      <point x="572" y="604" type="line" identifier="TGz0ihOfOu"/>
      <point x="104" y="375" type="line" identifier="vUBlvUHRll"/>
      <point x="81" y="237" type="line" identifier="WuaJuZHkUh"/>
    </contour>
  </outline>
</glyph>
<glyph name="equal" format="2">
  <advance width="600"/>
  <unicode hex="003D"/>
  <outline>
    <contour>
      <point x="556" y="362" type="line" identifier="62kbFG8Ge3"/>
      <point x="576" y="478" type="line" identifier="rVYSA3IZcK"/>
      <point x="100" y="478" type="line" identifier="oV8ODkK4VU"/>
      <point x="80" y="362" type="line" identifier="PfXAWpahWp"/>
    </contour>
    <contour>
      <point x="518" y="132" type="line" identifier="5lysWTOEmi"/>
      <point x="538" y="248" type="line" identifier="6evFYoJgO8"/>
      <point x="62" y="248" type="line" identifier="OY7FZIKd71"/>
      <point x="42" y="132" type="line" identifier="9DArQEMNEJ"/>
    </contour>
  </outline>
</glyph>
<glyph name="greater" format="2">
  <advance width="600"/>
  <unicode hex="003E"/>
  <outline>
    <contour>
      <point x="45" y="6" type="line" identifier="aIhAovI1Kw"/>
      <point x="514" y="237" type="line" identifier="ugRE0mKyLr"/>
      <point x="537" y="375" type="line" identifier="D4uff3CJx8"/>
      <point x="144" y="604" type="line" identifier="QfVe2M6vOA"/>
      <point x="122" y="473" type="line" identifier="fpRqGQjHjv"/>
      <point x="394" y="316" type="line" identifier="rNOMWmfYV0"/>
      <point x="393" y="308" type="line" identifier="vbjhUksV0l"/>
      <point x="69" y="151" type="line" identifier="e8LObsQTZ9"/>
    </contour>
  </outline>
</glyph>
<glyph name="question" format="2">
  <advance width="600"/>
  <unicode hex="003F"/>
  <outline>
    <contour>
      <point x="344" y="234" type="line" identifier="ty1qXtDsgD"/>
      <point x="356" y="305" type="line" identifier="aZiLF3NXCR"/>
      <point x="471" y="322" identifier="CriyHTDAAC"/>
      <point x="566" y="401" identifier="5q51L100tP"/>
      <point x="566" y="524" type="curve" smooth="yes" identifier="nE08eEW9JA"/>
      <point x="566" y="638" identifier="5c3kvgFyr8"/>
      <point x="484" y="710" identifier="LCk4T1AlMI"/>
      <point x="350" y="710" type="curve" smooth="yes" identifier="5Zx3eUfFCI"/>
      <point x="218" y="710" identifier="Feo1XlSvDo"/>
      <point x="141" y="640" identifier="KImgPHA2qz"/>
      <point x="106" y="555" type="curve" identifier="rlRjlFMIVR"/>
      <point x="220" y="502" type="line" identifier="YMNsUVj7Mv"/>
      <point x="241" y="553" identifier="av5Xwrd1Zh"/>
      <point x="278" y="586" identifier="nCQRiNVahN"/>
      <point x="328" y="586" type="curve" smooth="yes" identifier="PJmqnT681l"/>
      <point x="373" y="586" identifier="9IptjCTftB"/>
      <point x="409" y="563" identifier="QeSDnnHL0U"/>
      <point x="409" y="518" type="curve" smooth="yes" identifier="qLfQwSs8P8"/>
      <point x="409" y="515" identifier="yMzRtkzW8z"/>
      <point x="409" y="502" identifier="ziKkHrhiqw"/>
      <point x="407" y="490" type="curve" smooth="yes" identifier="EBqIDmWLkR"/>
      <point x="395" y="418" identifier="00uFVVzQkA"/>
      <point x="336" y="391" identifier="CodfCT74x3"/>
      <point x="223" y="386" type="curve" identifier="rC1IqSN38O"/>
      <point x="198" y="234" type="line" identifier="ztRcOMELkv"/>
    </contour>
    <contour>
      <point x="237" y="-12" type="curve" smooth="yes" identifier="CdUhw2nG4i"/>
      <point x="303" y="-12" identifier="hNMM58pdpB"/>
      <point x="335" y="21" identifier="5KuQsC6rQq"/>
      <point x="342" y="63" type="curve" smooth="yes" identifier="gxCYcYUeRk"/>
      <point x="347" y="93" identifier="P2YfMl9GI5"/>
      <point x="348" y="103" identifier="7w86Tg5Rf9"/>
      <point x="348" y="111" type="curve" smooth="yes" identifier="abkjTL6d5l"/>
      <point x="348" y="146" identifier="wn8cnfUbzY"/>
      <point x="322" y="174" identifier="BFPbO1CCxW"/>
      <point x="260" y="174" type="curve" smooth="yes" identifier="9S9GWPZrVC"/>
      <point x="194" y="174" identifier="H61AWxj8Cq"/>
      <point x="162" y="141" identifier="PlNjFT8Syw"/>
      <point x="155" y="99" type="curve" smooth="yes" identifier="AF5ZOkBsBc"/>
      <point x="150" y="69" identifier="b3eH1Q8HMs"/>
      <point x="149" y="59" identifier="JJ9w3L7ruG"/>
      <point x="149" y="51" type="curve" smooth="yes" identifier="xFCoPuZiKI"/>
      <point x="149" y="16" identifier="P0u8bFB718"/>
      <point x="175" y="-12" identifier="yhV8eHlUXL"/>
    </contour>
  </outline>
</glyph>
<glyph name="at" format="2">
  <advance width="600"/>
  <unicode hex="0040"/>
  <outline>
    <contour>
      <point x="419" y="-18" type="line" identifier="EPufAN2gG7"/>
      <point x="297" y="-18" type="line" smooth="yes" identifier="u1EqOzJ2ke"/>
      <point x="188" y="-18" identifier="H78dsZlxGa"/>
      <point x="145" y="41" identifier="nYwMOtV1eA"/>
      <point x="145" y="147" type="curve" smooth="yes" identifier="O2CmMNXcfL"/>
      <point x="145" y="169" identifier="kSR80j5zOX"/>
      <point x="146" y="202" identifier="oNTmyekNX3"/>
      <point x="151" y="232" type="curve" smooth="yes" identifier="bFiR2wpOIC"/>
      <point x="172" y="358" type="line" smooth="yes" identifier="v8gtJgtZgQ"/>
      <point x="206" y="564" identifier="mZubSo6KI9"/>
      <point x="274" y="616" identifier="Rk0rUuOMeN"/>
      <point x="366" y="616" type="curve" smooth="yes" identifier="nuwBrX5Tfz"/>
      <point x="435" y="616" identifier="GaiDErb3Hh"/>
      <point x="477" y="587" identifier="vWuuSMDtog"/>
      <point x="477" y="509" type="curve" smooth="yes" identifier="13oNlWb76G"/>
      <point x="477" y="497" identifier="XYkn3o9gr3"/>
      <point x="476" y="480" identifier="KDsWdRvMBA"/>
      <point x="473" y="463" type="curve" smooth="yes" identifier="8dklKuZuUq"/>
      <point x="467" y="428" type="line" identifier="6Jxc63uphm"/>
      <point x="463" y="428" type="line" identifier="HxvARswMOP"/>
      <point x="456" y="477" identifier="OPy0aAaDi2"/>
      <point x="425" y="508" identifier="5HqhffLR2k"/>
      <point x="374" y="508" type="curve" smooth="yes" identifier="pb3Mq5WR3D"/>
      <point x="275" y="508" identifier="ichytYpfc8"/>
      <point x="210" y="391" identifier="I4u9P1Jt96"/>
      <point x="210" y="234" type="curve" smooth="yes" identifier="W3LgvzGm8Q"/>
      <point x="210" y="136" identifier="idzXo9ZXib"/>
      <point x="239" y="80" identifier="g45jin4Ckb"/>
      <point x="314" y="80" type="curve" smooth="yes" identifier="M7qrxGWlXP"/>
      <point x="366" y="80" identifier="q293yXg7rw"/>
      <point x="396" y="119" identifier="LGNznniDfV"/>
      <point x="421" y="173" type="curve" identifier="Tx4WnuAEeu"/>
      <point x="425" y="173" type="line" identifier="9LGrAYo1cu"/>
      <point x="411" y="91" type="line" identifier="9hJg32M7Vk"/>
      <point x="524" y="91" type="line" identifier="oL63fCiAHt"/>
      <point x="585" y="455" type="line" smooth="yes" identifier="ifoAmwG5lu"/>
      <point x="588" y="473" identifier="jsbJSWIRGf"/>
      <point x="589" y="491" identifier="vi3kHxilH3"/>
      <point x="589" y="505" type="curve" smooth="yes" identifier="IpVFoWAtir"/>
      <point x="589" y="626" identifier="PuB1ppAjMy"/>
      <point x="517" y="710" identifier="wmeBLWNPyt"/>
      <point x="372" y="710" type="curve" smooth="yes" identifier="lrVqYsCP8d"/>
      <point x="176" y="710" identifier="aHwovrFbD0"/>
      <point x="89" y="557" identifier="DbSZSP42uP"/>
      <point x="54" y="366" type="curve" smooth="yes" identifier="ucXzNajGUI"/>
      <point x="43" y="305" identifier="CHVgp16UoO"/>
      <point x="35" y="232" identifier="iXS68w2SX6"/>
      <point x="35" y="170" type="curve" smooth="yes" identifier="RDfV7FotSU"/>
      <point x="35" y="-16" identifier="BqYmC6cxY0"/>
      <point x="106" y="-113" identifier="8UqOmxLKtT"/>
      <point x="285" y="-113" type="curve" smooth="yes" identifier="WNB0L56vj1"/>
      <point x="404" y="-113" type="line" identifier="CGDNXOw0fu"/>
    </contour>
    <contour>
      <point x="361" y="172" type="curve" smooth="yes" identifier="qPHMJ04TOW"/>
      <point x="336" y="172" identifier="vIWWt2H1gU"/>
      <point x="325" y="190" identifier="z3Vj3HMJzP"/>
      <point x="325" y="223" type="curve" smooth="yes" identifier="VwA9emEMEt"/>
      <point x="325" y="233" identifier="ZSpKhDcfzV"/>
      <point x="326" y="265" identifier="GUGvVJIHUV"/>
      <point x="328" y="280" type="curve" smooth="yes" identifier="mGwZdZagPX"/>
      <point x="336" y="328" type="line" smooth="yes" identifier="ONODGuwZwD"/>
      <point x="346" y="388" identifier="8v7fqoc3hC"/>
      <point x="368" y="423" identifier="EanJAvhakQ"/>
      <point x="410" y="423" type="curve" smooth="yes" identifier="zi7wloXdEd"/>
      <point x="446" y="423" identifier="jLegFDkGkb"/>
      <point x="462" y="397" identifier="n2uXHonqi2"/>
      <point x="457" y="365" type="curve" smooth="yes" identifier="YbynVOSJTM"/>
      <point x="443" y="280" type="line" smooth="yes" identifier="P0lNw6ET6W"/>
      <point x="437" y="242" identifier="J4nd1jp5Nc"/>
      <point x="421" y="214" identifier="lHVluRg002"/>
      <point x="410" y="200" type="curve" smooth="yes" identifier="JcahRUGkV4"/>
      <point x="398" y="185" identifier="Lfq1POoXmM"/>
      <point x="382" y="172" identifier="jhiCIWROia"/>
    </contour>
  </outline>
</glyph>
<glyph name="A" format="2">
  <advance width="600"/>
  <unicode hex="0041"/>
  <anchor x="261.0" y="0.0" name="bottom"/>
  <anchor x="552.0" y="0.0" name="bottomright"/>
  <anchor x="370.0" y="698.0" name="top"/>
  <outline>
    <contour>
      <point x="552" y="0" type="line" identifier="0zSgpapLp6"/>
      <point x="476" y="698" type="line" identifier="xCAs9hOiAP"/>
      <point x="270" y="698" type="line" identifier="ZxtcJNbs1M"/>
      <point x="-37" y="0" type="line" identifier="izfxxfUBqc"/>
      <point x="118" y="0" type="line" identifier="UEIp9CjvXr"/>
      <point x="187" y="169" type="line" identifier="57qFhakvHv"/>
      <point x="383" y="169" type="line" identifier="16EJ0mDmZZ"/>
      <point x="400" y="0" type="line" identifier="3PoYMKG3ws"/>
    </contour>
    <contour>
      <point x="377" y="289" type="line" identifier="W5Tbla77mp"/>
      <point x="237" y="289" type="line" identifier="LRbST9QIMo"/>
      <point x="347" y="553" type="line" identifier="eBkafh8UCk"/>
      <point x="356" y="553" type="line" identifier="TkMcdt6A9H"/>
    </contour>
  </outline>
</glyph>
<glyph name="B" format="2">
  <advance width="600"/>
  <unicode hex="0042"/>
  <anchor x="260.0" y="0.0" name="bottom"/>
  <anchor x="365.0" y="698.0" name="top"/>
  <outline>
    <contour>
      <point x="35" y="0" type="line" identifier="btMFBbhN7f"/>
      <point x="305" y="0" type="line" smooth="yes" identifier="30HxLqQNzX"/>
      <point x="453" y="0" identifier="clNSStlZao"/>
      <point x="544" y="86" identifier="1wdAKJ2DTL"/>
      <point x="544" y="217" type="curve" smooth="yes" identifier="wQviSlNIU2"/>
      <point x="544" y="291" identifier="UltyWs7lpW"/>
      <point x="503" y="336" identifier="1HIulfPPhU"/>
      <point x="430" y="350" type="curve" identifier="BtXVploljE"/>
      <point x="431" y="355" type="line" identifier="KfiTLjzCfn"/>
      <point x="528" y="379" identifier="MawPR7clti"/>
      <point x="576" y="441" identifier="DXSz8Ha93H"/>
      <point x="576" y="537" type="curve" smooth="yes" identifier="rSQhigmRlD"/>
      <point x="576" y="634" identifier="7sb1LLz7bS"/>
      <point x="510" y="698" identifier="Sk3JNXaAbs"/>
      <point x="389" y="698" type="curve" smooth="yes" identifier="oji0dlOs7G"/>
      <point x="152" y="698" type="line" identifier="Xb1dXoUvBi"/>
    </contour>
    <contour>
      <point x="197" y="104" type="line" identifier="nf6GM4NYhd"/>
      <point x="230" y="303" type="line" identifier="e10V5DPQiX"/>
      <point x="312" y="303" type="line" smooth="yes" identifier="Dxvni97FaH"/>
      <point x="372" y="303" identifier="zg3JDFcIJV"/>
      <point x="397" y="284" identifier="XctDZFmGgw"/>
      <point x="397" y="238" type="curve" smooth="yes" identifier="rGLltXMAK3"/>
      <point x="397" y="230" identifier="xV1FtSJwHe"/>
      <point x="394" y="215" identifier="BJfmWx2Naz"/>
      <point x="392" y="203" type="curve" smooth="yes" identifier="2zIgRT6dp6"/>
      <point x="388" y="179" type="line" smooth="yes" identifier="bXaVvCxWlW"/>
      <point x="379" y="125" identifier="2BHmhA260v"/>
      <point x="339" y="104" identifier="NEeVc9RZcE"/>
      <point x="273" y="104" type="curve" smooth="yes" identifier="Z8XdgcWoud"/>
    </contour>
    <contour>
      <point x="247" y="402" type="line" identifier="HUamIDdOQw"/>
      <point x="279" y="594" type="line" identifier="D2nFXfElRK"/>
      <point x="343" y="594" type="line" smooth="yes" identifier="eVB3mvLAiP"/>
      <point x="396" y="594" identifier="oP4lL8o1IT"/>
      <point x="426" y="578" identifier="ikHyJzkCO7"/>
      <point x="426" y="533" type="curve" smooth="yes" identifier="wpCLYaWFxD"/>
      <point x="426" y="524" identifier="qbLo2MX1WE"/>
      <point x="424" y="508" identifier="aHeDZEC5L1"/>
      <point x="423" y="502" type="curve" smooth="yes" identifier="P3c292Wzmh"/>
      <point x="419" y="478" type="line" smooth="yes" identifier="dgGLY8ov6O"/>
      <point x="409" y="418" identifier="pIUVfh4gPY"/>
      <point x="374" y="402" identifier="Ta6Orn2wkM"/>
      <point x="304" y="402" type="curve" smooth="yes" identifier="CoTPP34Xow"/>
    </contour>
  </outline>
</glyph>
<glyph name="C" format="2">
  <advance width="600"/>
  <unicode hex="0043"/>
  <anchor x="293.0" y="0.0" name="bottom"/>
  <anchor x="373.0" y="698.0" name="top"/>
  <outline>
    <contour>
      <point x="290" y="-12" type="curve" smooth="yes" identifier="riHrZvHiuk"/>
      <point x="425" y="-12" identifier="1b1ZqFc0Nr"/>
      <point x="504" y="58" identifier="Aa3TfXvPgQ"/>
      <point x="559" y="189" type="curve" identifier="4fLcZgPFTj"/>
      <point x="432" y="227" type="line" identifier="8QCeCTsD8l"/>
      <point x="405" y="161" identifier="jm48pK9iQn"/>
      <point x="364" y="108" identifier="P4EN6LzDt4"/>
      <point x="300" y="108" type="curve" smooth="yes" identifier="rgMkl6HFQo"/>
      <point x="227" y="108" identifier="ruANfXzAZ3"/>
      <point x="199" y="151" identifier="vcgcUwpqvq"/>
      <point x="199" y="221" type="curve" smooth="yes" identifier="JknD3zQd7q"/>
      <point x="199" y="253" identifier="ROENkE6Fbv"/>
      <point x="203" y="275" identifier="b1ATWb7CAh"/>
      <point x="207" y="299" type="curve" smooth="yes" identifier="vUtQZxxjBT"/>
      <point x="225" y="408" type="line" smooth="yes" identifier="5JgZhntYXk"/>
      <point x="244" y="520" identifier="iy8UVUiafF"/>
      <point x="285" y="590" identifier="TeV1s4LyM0"/>
      <point x="367" y="590" type="curve" smooth="yes" identifier="5sr2NnEsNw"/>
      <point x="439" y="590" identifier="wrhMZRBNUH"/>
      <point x="457" y="542" identifier="MjqkZuZs0i"/>
      <point x="461" y="476" type="curve" identifier="BDnnX1IRKz"/>
      <point x="604" y="505" type="line" identifier="gw2tAbJ09j"/>
      <point x="597" y="626" identifier="uEXbwIp2ZQ"/>
      <point x="528" y="710" identifier="z1MYcEbMVC"/>
      <point x="373" y="710" type="curve" smooth="yes" identifier="ZYAZc8yj4v"/>
      <point x="176" y="710" identifier="xeAiJxmpu8"/>
      <point x="50" y="525" identifier="dcTIcih7RO"/>
      <point x="50" y="254" type="curve" smooth="yes" identifier="ZBdv6uZgYk"/>
      <point x="50" y="87" identifier="UFtcb74Fly"/>
      <point x="126" y="-12" identifier="oxSLeCK0mz"/>
    </contour>
  </outline>
</glyph>
<glyph name="D" format="2">
  <advance width="600"/>
  <unicode hex="0044"/>
  <anchor x="238.0" y="0.0" name="bottom"/>
  <anchor x="345.0" y="698.0" name="top"/>
  <outline>
    <contour>
      <point x="25" y="0" type="line" identifier="X9Gi3grX9b"/>
      <point x="252" y="0" type="line" smooth="yes" identifier="6Cs3VQcAqf"/>
      <point x="469" y="0" identifier="u90EF4vu7B"/>
      <point x="588" y="166" identifier="oetiwFqBph"/>
      <point x="588" y="441" type="curve" smooth="yes" identifier="lyJya5xUHS"/>
      <point x="588" y="606" identifier="kuaugB89hZ"/>
      <point x="503" y="698" identifier="osDrYE6xd3"/>
      <point x="347" y="698" type="curve" smooth="yes" identifier="DrnrtvY6UF"/>
      <point x="142" y="698" type="line" identifier="C4uNFHxb25"/>
    </contour>
    <contour>
      <point x="192" y="117" type="line" identifier="2jtgv51jjt"/>
      <point x="269" y="581" type="line" identifier="KURBxXeURJ"/>
      <point x="334" y="581" type="line" smooth="yes" identifier="Q57BYswtpd"/>
      <point x="405" y="581" identifier="RRs3uagaiI"/>
      <point x="439" y="545" identifier="Pjoz4dEZGf"/>
      <point x="439" y="469" type="curve" smooth="yes" identifier="5PlSetF0RD"/>
      <point x="439" y="450" identifier="jtJ9guZclG"/>
      <point x="437" y="425" identifier="N1YofAjqyT"/>
      <point x="433" y="401" type="curve" smooth="yes" identifier="4IFyV4PDwX"/>
      <point x="412" y="275" type="line" smooth="yes" identifier="FMMLhoLULw"/>
      <point x="394" y="167" identifier="Ys2XsHuelC"/>
      <point x="344" y="117" identifier="gwHVdOWueb"/>
      <point x="255" y="117" type="curve" smooth="yes" identifier="u4hoDBZ6Fq"/>
    </contour>
  </outline>
</glyph>
<glyph name="E" format="2">
  <advance width="600"/>
  <unicode hex="0045"/>
  <anchor x="283.0" y="0.0" name="bottom"/>
  <anchor x="484.0" y="0.0" name="bottomright"/>
  <anchor x="373.0" y="698.0" name="top"/>
  <outline>
    <contour>
      <point x="484" y="0" type="line" identifier="qc8lR0bW8b"/>
      <point x="504" y="122" type="line" identifier="buImWpRP21"/>
      <point x="205" y="122" type="line" identifier="cwP6WUxg8v"/>
      <point x="233" y="292" type="line" identifier="uPnIfsbOTm"/>
      <point x="520" y="292" type="line" identifier="25MO7KdFKN"/>
      <point x="540" y="414" type="line" identifier="5fazWjZ5iE"/>
      <point x="254" y="414" type="line" identifier="F0QQCgYkNC"/>
      <point x="281" y="576" type="line" identifier="K0Pisqn6T1"/>
      <point x="581" y="576" type="line" identifier="EoPP3QOGAR"/>
      <point x="601" y="698" type="line" identifier="9G9SyMsuw2"/>
      <point x="155" y="698" type="line" identifier="kPew1RTW8l"/>
      <point x="38" y="0" type="line" identifier="YapNBW9qXd"/>
    </contour>
  </outline>
</glyph>
<glyph name="F" format="2">
  <advance width="600"/>
  <unicode hex="0046"/>
  <anchor x="112.0" y="0.0" name="bottom"/>
  <anchor x="386.0" y="698.0" name="top"/>
  <outline>
    <contour>
      <point x="185" y="0" type="line" identifier="XQpINlCZot"/>
      <point x="234" y="292" type="line" identifier="S9MkY1UhjN"/>
      <point x="516" y="292" type="line" identifier="pOkBX4swWz"/>
      <point x="536" y="414" type="line" identifier="63mv2rcaP0"/>
      <point x="254" y="414" type="line" identifier="eHLz7o6iYq"/>
      <point x="281" y="576" type="line" identifier="Dq0A2riYhr"/>
      <point x="597" y="576" type="line" identifier="m69KDSzjo7"/>
      <point x="617" y="698" type="line" identifier="qWvrUtS9qc"/>
      <point x="155" y="698" type="line" identifier="ZOlFf6iIB1"/>
      <point x="38" y="0" type="line" identifier="61e2jYObqt"/>
    </contour>
  </outline>
</glyph>
<glyph name="G" format="2">
  <advance width="600"/>
  <unicode hex="0047"/>
  <anchor x="298.0" y="0.0" name="bottom"/>
  <anchor x="366.0" y="698.0" name="top"/>
  <outline>
    <contour>
      <point x="373" y="0" type="line" identifier="AGcZi0Wr3i"/>
      <point x="504" y="0" type="line" identifier="B2s4rsihrm"/>
      <point x="566" y="372" type="line" identifier="Ro2uIR8yZB"/>
      <point x="312" y="372" type="line" identifier="K93swfHRxr"/>
      <point x="295" y="267" type="line" identifier="3juL0rmGxw"/>
      <point x="418" y="267" type="line" identifier="IfS2hrDNaO"/>
      <point x="410" y="219" type="line" smooth="yes" identifier="ZRZvvVgp5B"/>
      <point x="400" y="159" identifier="lkfPVYBLmz"/>
      <point x="359" y="108" identifier="pXdv2PWlGV"/>
      <point x="289" y="108" type="curve" smooth="yes" identifier="6DQQE4gJxV"/>
      <point x="225" y="108" identifier="BtOtcjlv2B"/>
      <point x="196" y="154" identifier="zqCF7zpEpU"/>
      <point x="196" y="224" type="curve" smooth="yes" identifier="IcbLwd8ou8"/>
      <point x="196" y="251" identifier="JLfZ20f7i8"/>
      <point x="200" y="287" identifier="6JRe0tBekP"/>
      <point x="204" y="311" type="curve" smooth="yes" identifier="w4qMtSXU6I"/>
      <point x="221" y="413" type="line" smooth="yes" identifier="hCBsu5LTEV"/>
      <point x="239" y="521" identifier="lDttwlym8r"/>
      <point x="279" y="590" identifier="o4yXshdvOC"/>
      <point x="355" y="590" type="curve" smooth="yes" identifier="EyPEdc9ixw"/>
      <point x="424" y="590" identifier="LehKRyPv4B"/>
      <point x="441" y="536" identifier="WuhKjuzQaG"/>
      <point x="446" y="476" type="curve" identifier="UZQ5gEeVxl"/>
      <point x="589" y="504" type="line" identifier="R6oBmSYjFV"/>
      <point x="580" y="625" identifier="2LZYFLF2nF"/>
      <point x="513" y="710" identifier="hWUTCNe6p2"/>
      <point x="368" y="710" type="curve" smooth="yes" identifier="bStpRmFqep"/>
      <point x="154" y="710" identifier="CgrtYOTrfG"/>
      <point x="45" y="510" identifier="w3HzpVhbvw"/>
      <point x="45" y="245" type="curve" smooth="yes" identifier="w6Uf1p29x7"/>
      <point x="45" y="77" identifier="D5h65xNu05"/>
      <point x="116" y="-12" identifier="m57SiJXWCb"/>
      <point x="230" y="-12" type="curve" smooth="yes" identifier="XYqNKtWUZ0"/>
      <point x="311" y="-12" identifier="Hz8IRlY3LZ"/>
      <point x="346" y="39" identifier="lF8wp9GGBK"/>
      <point x="381" y="101" type="curve" identifier="I9wnIF6mm1"/>
      <point x="390" y="101" type="line" identifier="niDjwWH23C"/>
    </contour>
  </outline>
</glyph>
<glyph name="H" format="2">
  <advance width="600"/>
  <unicode hex="0048"/>
  <anchor x="256.0" y="0.0" name="bottom"/>
  <anchor x="374.0" y="698.0" name="top"/>
  <outline>
    <contour>
      <point x="348" y="0" type="line" identifier="zPY1f0PR8f"/>
      <point x="496" y="0" type="line" identifier="PRScyeQbgn"/>
      <point x="612" y="698" type="line" identifier="MGgFpan1AL"/>
      <point x="464" y="698" type="line" identifier="OCURK2wuOX"/>
      <point x="417" y="414" type="line" identifier="mzdzlx3dra"/>
      <point x="237" y="414" type="line" identifier="m8cHjpsaBj"/>
      <point x="284" y="698" type="line" identifier="L8LDIwnTHm"/>
      <point x="136" y="698" type="line" identifier="e25s2tOPGD"/>
      <point x="20" y="0" type="line" identifier="72wztldIX9"/>
      <point x="168" y="0" type="line" identifier="y65zbdBFK8"/>
      <point x="217" y="293" type="line" identifier="qjkl6TT5kr"/>
      <point x="397" y="293" type="line" identifier="3btUb14KKA"/>
    </contour>
  </outline>
</glyph>
<glyph name="I" format="2">
  <advance width="600"/>
  <unicode hex="0049"/>
  <anchor x="258.0" y="0.0" name="bottom"/>
  <anchor x="483.0" y="0.0" name="bottomright"/>
  <anchor x="374.0" y="698.0" name="top"/>
  <outline>
    <contour>
      <point x="482" y="0" type="line" identifier="NUA8wKFu8W"/>
      <point x="500" y="110" type="line" identifier="HqILTJZQS5"/>
      <point x="349" y="110" type="line" identifier="oiGFhNOuFt"/>
      <point x="429" y="588" type="line" identifier="YBLxqtmXbm"/>
      <point x="580" y="588" type="line" identifier="a8bhXHXp3e"/>
      <point x="598" y="698" type="line" identifier="ToKf0M608n"/>
      <point x="148" y="698" type="line" identifier="uMAfZBJ2GE"/>
      <point x="130" y="588" type="line" identifier="zbni6D6fIb"/>
      <point x="281" y="588" type="line" identifier="BHouQqNBLb"/>
      <point x="201" y="110" type="line" identifier="yJrVUczByX"/>
      <point x="50" y="110" type="line" identifier="dlkRp47DPw"/>
      <point x="32" y="0" type="line" identifier="am7kFB0dGe"/>
    </contour>
  </outline>
</glyph>
<glyph name="J" format="2">
  <advance width="600"/>
  <unicode hex="004A"/>
  <anchor x="241.0" y="0.0" name="bottom"/>
  <anchor x="392.0" y="698.0" name="top"/>
  <outline>
    <contour>
      <point x="201" y="698" type="line" identifier="tYdPfJGopZ"/>
      <point x="181" y="576" type="line" identifier="Afqd4skcKl"/>
      <point x="415" y="576" type="line" identifier="srSWp9uyYk"/>
      <point x="353" y="206" type="line" smooth="yes" identifier="B6myGcSM9N"/>
      <point x="342" y="140" identifier="SbuOeAUrmW"/>
      <point x="307" y="108" identifier="ky6fkcE2d6"/>
      <point x="254" y="108" type="curve" smooth="yes" identifier="5Kym60s4e4"/>
      <point x="190" y="108" identifier="XVq178uiSB"/>
      <point x="171" y="152" identifier="82IoVmeX5r"/>
      <point x="168" y="211" type="curve" identifier="TB5ppx2LCr"/>
      <point x="29" y="185" type="line" identifier="kFgvTiN3qe"/>
      <point x="32" y="68" identifier="qM1RyxnSik"/>
      <point x="103" y="-12" identifier="WPyjWiAICx"/>
      <point x="243" y="-12" type="curve" smooth="yes" identifier="myeOlkZpbk"/>
      <point x="389" y="-12" identifier="Y64anLAG90"/>
      <point x="476" y="60" identifier="iDOd84UYVs"/>
      <point x="500" y="202" type="curve" smooth="yes" identifier="kDsBcTaNYD"/>
      <point x="583" y="698" type="line" identifier="xrXEycM3lT"/>
    </contour>
  </outline>
</glyph>
<glyph name="K" format="2">
  <advance width="600"/>
  <unicode hex="004B"/>
  <anchor x="275.0" y="0.0" name="bottom"/>
  <anchor x="384.0" y="698.0" name="top"/>
  <outline>
    <contour>
      <point x="398" y="0" type="line" identifier="SpFnRfI8kH"/>
      <point x="562" y="0" type="line" identifier="SDLrl7NK1w"/>
      <point x="407" y="388" type="line" identifier="dVCSzS80X7"/>
      <point x="667" y="698" type="line" identifier="4iZ5QLx3KT"/>
      <point x="493" y="698" type="line" identifier="TMd8TqZSLL"/>
      <point x="361" y="536" type="line" identifier="E08LLRPkec"/>
      <point x="249" y="399" type="line" identifier="wwHU8nffGU"/>
      <point x="241" y="399" type="line" identifier="uVOzRJcxuL"/>
      <point x="291" y="698" type="line" identifier="auU5VcbU4k"/>
      <point x="143" y="698" type="line" identifier="dqOQpZE2Wo"/>
      <point x="27" y="0" type="line" identifier="SxudBCzG84"/>
      <point x="175" y="0" type="line" identifier="ouHsZpkh92"/>
      <point x="207" y="191" type="line" identifier="bl7Q6mRmVD"/>
      <point x="289" y="282" type="line" identifier="4zTdj4aXzR"/>
    </contour>
  </outline>
</glyph>
<glyph name="L" format="2">
  <advance width="600"/>
  <unicode hex="004C"/>
  <anchor x="277.0" y="0.0" name="bottom"/>
  <anchor x="237.0" y="698.0" name="top"/>
  <anchor x="400.0" y="740.0" name="topright"/>
  <outline>
    <contour>
      <point x="501" y="0" type="line" identifier="WwPaBFvIuk"/>
      <point x="521" y="122" type="line" identifier="uvYP1j7bTK"/>
      <point x="219" y="122" type="line" identifier="s4pJVJhRyd"/>
      <point x="315" y="698" type="line" identifier="LeSZSXH6cT"/>
      <point x="167" y="698" type="line" identifier="mR1C2DKp69"/>
      <point x="51" y="0" type="line" identifier="JNQLPBX5Mu"/>
    </contour>
  </outline>
</glyph>
<glyph name="M" format="2">
  <advance width="600"/>
  <unicode hex="004D"/>
  <anchor x="257.0" y="0.0" name="bottom"/>
  <anchor x="374.0" y="698.0" name="top"/>
  <outline>
    <contour>
      <point x="390" y="0" type="line" identifier="MgD4CQEdgU"/>
      <point x="518" y="0" type="line" identifier="hdbv6hcSos"/>
      <point x="635" y="698" type="line" identifier="voYRQHpybo"/>
      <point x="467" y="698" type="line" identifier="oOVXh3H2JL"/>
      <point x="341" y="461" type="line" identifier="IgR8apYSTd"/>
      <point x="332" y="461" type="line" identifier="WZ5Pfcc0xD"/>
      <point x="284" y="698" type="line" identifier="IF2QjqLLIR"/>
      <point x="115" y="698" type="line" identifier="maJrWS32cy"/>
      <point x="-2" y="0" type="line" identifier="WGA6zOevkr"/>
      <point x="126" y="0" type="line" identifier="ltPyTKbqSo"/>
      <point x="178" y="311" type="line" identifier="zkHrZvabhc"/>
      <point x="203" y="508" type="line" identifier="u3XmT4Ah0Z"/>
      <point x="212" y="508" type="line" identifier="dXAcuYJpmp"/>
      <point x="282" y="149" type="line" identifier="0Ah6hBL7cu"/>
      <point x="473" y="508" type="line" identifier="vBbVGpdoJj"/>
      <point x="482" y="508" type="line" identifier="e1tHmBjCkh"/>
      <point x="442" y="311" type="line" identifier="PmuZW8TYlS"/>
    </contour>
  </outline>
</glyph>
<glyph name="N" format="2">
  <advance width="600"/>
  <unicode hex="004E"/>
  <anchor x="258.0" y="0.0" name="bottom"/>
  <anchor x="374.0" y="698.0" name="top"/>
  <outline>
    <contour>
      <point x="318" y="0" type="line" identifier="Mc52TfL834"/>
      <point x="496" y="0" type="line" identifier="umBCncoBbi"/>
      <point x="612" y="698" type="line" identifier="1tCGCQP1Jy"/>
      <point x="483" y="698" type="line" identifier="4d6KiR2N8g"/>
      <point x="405" y="230" type="line" identifier="6oubwhCrrS"/>
      <point x="395" y="230" type="line" identifier="h5SNg72TcQ"/>
      <point x="314" y="698" type="line" identifier="a5kGYAMGHb"/>
      <point x="136" y="698" type="line" identifier="cp5oBRgMue"/>
      <point x="20" y="0" type="line" identifier="s6DuunrgAm"/>
      <point x="149" y="0" type="line" identifier="ZEjrUdGn3b"/>
      <point x="227" y="468" type="line" identifier="5fLSIpYZTw"/>
      <point x="237" y="468" type="line" identifier="61ezxW80VW"/>
    </contour>
  </outline>
</glyph>
<glyph name="O" format="2">
  <advance width="600"/>
  <unicode hex="004F"/>
  <anchor x="265.0" y="0.0" name="bottom"/>
  <anchor x="358.0" y="698.0" name="top"/>
  <outline>
    <contour>
      <point x="279" y="-12" type="curve" smooth="yes" identifier="1KOb5cOQ3o"/>
      <point x="501" y="-12" identifier="nLDifOooiA"/>
      <point x="592" y="210" identifier="PZ7MPkMzgN"/>
      <point x="592" y="447" type="curve" smooth="yes" identifier="Hftucr42yG"/>
      <point x="592" y="610" identifier="2C7iVWxj7E"/>
      <point x="518" y="710" identifier="pn5nPjOuWQ"/>
      <point x="349" y="710" type="curve" smooth="yes" identifier="7AKrmWuiFE"/>
      <point x="127" y="710" identifier="uineqlmeLP"/>
      <point x="36" y="488" identifier="drbUeNQbV6"/>
      <point x="36" y="251" type="curve" smooth="yes" identifier="Jnqlalw2HN"/>
      <point x="36" y="88" identifier="KEP3DOIRJP"/>
      <point x="110" y="-12" identifier="2C0wK2UHkL"/>
    </contour>
    <contour>
      <point x="279" y="108" type="curve" smooth="yes" identifier="R5hqkF7cc7"/>
      <point x="216" y="108" identifier="t63Mr4pM5G"/>
      <point x="187" y="149" identifier="7yTM0UOSUQ"/>
      <point x="187" y="218" type="curve" smooth="yes" identifier="Kff0TthhCk"/>
      <point x="187" y="243" identifier="VPGpxDI9lU"/>
      <point x="189" y="266" identifier="2ISMQDJGdj"/>
      <point x="193" y="290" type="curve" smooth="yes" identifier="qyIPomZZL3"/>
      <point x="213" y="410" type="line" smooth="yes" identifier="EAQXGeHjXA"/>
      <point x="232" y="524" identifier="s9mQ4Pf3ML"/>
      <point x="265" y="590" identifier="ar5r0cGqQr"/>
      <point x="349" y="590" type="curve" smooth="yes" identifier="1q6L9WcQrM"/>
      <point x="412" y="590" identifier="jOb8WUtKto"/>
      <point x="441" y="549" identifier="XLli5A7S7y"/>
      <point x="441" y="480" type="curve" smooth="yes" identifier="1ygdwuwHES"/>
      <point x="441" y="455" identifier="QgC2i23mxY"/>
      <point x="439" y="432" identifier="rygY7hi9Cm"/>
      <point x="435" y="408" type="curve" smooth="yes" identifier="Ke0RWSgVXT"/>
      <point x="415" y="288" type="line" smooth="yes" identifier="emgP2uWxUI"/>
      <point x="396" y="174" identifier="mbxfsmjkDc"/>
      <point x="363" y="108" identifier="hK8V1bYQxP"/>
    </contour>
  </outline>
</glyph>
<glyph name="P" format="2">
  <advance width="600"/>
  <unicode hex="0050"/>
  <anchor x="110.0" y="0.0" name="bottom"/>
  <anchor x="363.0" y="698.0" name="top"/>
  <outline>
    <contour>
      <point x="185" y="0" type="line" identifier="oxL2rYwul2"/>
      <point x="228" y="256" type="line" identifier="qt27vtnPJo"/>
      <point x="347" y="256" type="line" smooth="yes" identifier="CMgIfitGlA"/>
      <point x="498" y="256" identifier="GsGg5Ehw5m"/>
      <point x="596" y="354" identifier="rDxpzwGJSu"/>
      <point x="596" y="513" type="curve" smooth="yes" identifier="jmWM1hxrCd"/>
      <point x="596" y="621" identifier="y85xIsvDxj"/>
      <point x="530" y="698" identifier="A0PxkVn0M2"/>
      <point x="406" y="698" type="curve" smooth="yes" identifier="Ml0IFeHxdO"/>
      <point x="154" y="698" type="line" identifier="fLPLveIZug"/>
      <point x="37" y="0" type="line" identifier="n2FwxIxvEQ"/>
    </contour>
    <contour>
      <point x="282" y="579" type="line" identifier="zsEAY5Gexf"/>
      <point x="360" y="579" type="line" smooth="yes" identifier="TUW96dGStO"/>
      <point x="419" y="579" identifier="3c9hylFi9h"/>
      <point x="442" y="561" identifier="CN3TOGQPP6"/>
      <point x="442" y="516" type="curve" smooth="yes" identifier="IHRue3ZamH"/>
      <point x="442" y="505" identifier="68B6G6yedY"/>
      <point x="441" y="495" identifier="w82TmLtGJ7"/>
      <point x="440" y="489" type="curve" smooth="yes" identifier="K044mZwxjw"/>
      <point x="435" y="459" type="line" smooth="yes" identifier="wRx2dpBnQM"/>
      <point x="425" y="399" identifier="pSbg2ibBWD"/>
      <point x="394" y="376" identifier="B7iLj7jKX8"/>
      <point x="326" y="376" type="curve" smooth="yes" identifier="guxg0ynYdE"/>
      <point x="248" y="376" type="line" identifier="KSI2PDY026"/>
    </contour>
  </outline>
</glyph>
<glyph name="Q" format="2">
  <advance width="600"/>
  <unicode hex="0051"/>
  <anchor x="358.0" y="698.0" name="top"/>
  <outline>
    <contour>
      <point x="406" y="-205" type="curve" smooth="yes" identifier="0jN5kMnQDr"/>
      <point x="451" y="-205" identifier="PRVjHzVuyO"/>
      <point x="481" y="-191" identifier="G79POKf0s2"/>
      <point x="540" y="-126" type="curve" smooth="yes" identifier="mg3IFgfOBk"/>
      <point x="588" y="-73" type="line" identifier="ekSL2SdcOj"/>
      <point x="512" y="-4" type="line" identifier="bwb9OXcrrT"/>
      <point x="427" y="-88" type="line" identifier="s9UcFG7RCH"/>
      <point x="411" y="-84" type="line" identifier="sbBmjLtVXO"/>
      <point x="357" y="-2" type="line" identifier="PuICeKHG7K"/>
      <point x="523" y="44" identifier="27qkBx0Dg0"/>
      <point x="592" y="240" identifier="TquAZuZRGQ"/>
      <point x="592" y="447" type="curve" smooth="yes" identifier="nKNHdCUPUx"/>
      <point x="592" y="610" identifier="ea4uAnjJUR"/>
      <point x="518" y="710" identifier="OaVIGFpoYM"/>
      <point x="349" y="710" type="curve" smooth="yes" identifier="sPvHrygh3D"/>
      <point x="127" y="710" identifier="DtYswPoCN9"/>
      <point x="36" y="488" identifier="WAXrZ7Axsy"/>
      <point x="36" y="251" type="curve" smooth="yes" identifier="Gctnt6GqMb"/>
      <point x="36" y="110" identifier="E1RgTAh01a"/>
      <point x="91" y="17" identifier="MtkTA1zc3l"/>
      <point x="215" y="-6" type="curve" identifier="GhKuUND7iE"/>
      <point x="308" y="-146" type="line" smooth="yes" identifier="G86yue3bsE"/>
      <point x="330" y="-178" identifier="jmIGtBaTGO"/>
      <point x="356" y="-205" identifier="sMKIOpKjTG"/>
    </contour>
    <contour>
      <point x="279" y="108" type="curve" smooth="yes" identifier="rPmEXfhFSL"/>
      <point x="216" y="108" identifier="Wuvmw4qnqL"/>
      <point x="187" y="149" identifier="f850QauntN"/>
      <point x="187" y="218" type="curve" smooth="yes" identifier="xGmvqMP0ic"/>
      <point x="187" y="243" identifier="sS4sECZRr9"/>
      <point x="189" y="266" identifier="4OAir1XdW4"/>
      <point x="193" y="290" type="curve" smooth="yes" identifier="RfsaD24p54"/>
      <point x="213" y="410" type="line" smooth="yes" identifier="XJ2tWdrcgQ"/>
      <point x="232" y="524" identifier="9NUiYiJmua"/>
      <point x="265" y="590" identifier="CAHRBiRYiq"/>
      <point x="349" y="590" type="curve" smooth="yes" identifier="P09MuoeOR8"/>
      <point x="412" y="590" identifier="zdjuHVRe9w"/>
      <point x="441" y="549" identifier="xHFajwTA0m"/>
      <point x="441" y="480" type="curve" smooth="yes" identifier="LioEQCohZN"/>
      <point x="441" y="455" identifier="at29ccLsT6"/>
      <point x="439" y="432" identifier="l4akgFFdeT"/>
      <point x="435" y="408" type="curve" smooth="yes" identifier="YVNf1a5eRy"/>
      <point x="415" y="288" type="line" smooth="yes" identifier="QUiuPXLX79"/>
      <point x="396" y="174" identifier="OXc4Xh8DDT"/>
      <point x="363" y="108" identifier="iYjgh1a3vD"/>
    </contour>
  </outline>
</glyph>
<glyph name="R" format="2">
  <advance width="600"/>
  <unicode hex="0052"/>
  <anchor x="275.0" y="0.0" name="bottom"/>
  <anchor x="354.0" y="698.0" name="top"/>
  <outline>
    <contour>
      <point x="225" y="260" type="line" identifier="SQX67RNkxj"/>
      <point x="289" y="260" type="line" identifier="LWiuXkNxDY"/>
      <point x="366" y="0" type="line" identifier="02lrgzuUrW"/>
      <point x="522" y="0" type="line" identifier="gM9cEbdKpZ"/>
      <point x="427" y="275" type="line" identifier="LnqG6y1AMr"/>
      <point x="531" y="304" identifier="z2zXQuT7R5"/>
      <point x="594" y="389" identifier="ShKBLQniU7"/>
      <point x="594" y="512" type="curve" smooth="yes" identifier="gcJuODLKWZ"/>
      <point x="594" y="623" identifier="liTnYJcJhU"/>
      <point x="528" y="698" identifier="jhYzwWeaqn"/>
      <point x="404" y="698" type="curve" smooth="yes" identifier="fdQNXAakBe"/>
      <point x="152" y="698" type="line" identifier="wpFLf7vYPG"/>
      <point x="35" y="0" type="line" identifier="Y4DHTFWxZv"/>
      <point x="181" y="0" type="line" identifier="94zLBdtxJt"/>
    </contour>
    <contour>
      <point x="244" y="376" type="line" identifier="4Q7QEmFZDl"/>
      <point x="278" y="579" type="line" identifier="bGVf0oJG37"/>
      <point x="361" y="579" type="line" smooth="yes" identifier="A0qhegIdOz"/>
      <point x="410" y="579" identifier="hl6ZZIPJWU"/>
      <point x="440" y="559" identifier="Js1MrAlpik"/>
      <point x="440" y="513" type="curve" smooth="yes" identifier="4td0di57Ir"/>
      <point x="440" y="503" identifier="37Fn0cRWLM"/>
      <point x="439" y="492" identifier="ZIkTsPQ5IK"/>
      <point x="437" y="480" type="curve" smooth="yes" identifier="2ykMgFDQtu"/>
      <point x="433" y="456" type="line" smooth="yes" identifier="qAsZQ4X2oB"/>
      <point x="424" y="398" identifier="rcaGuSTyep"/>
      <point x="396" y="376" identifier="9aqMJdMn6X"/>
      <point x="324" y="376" type="curve" smooth="yes" identifier="dzhcjFU5OY"/>
    </contour>
  </outline>
</glyph>
<glyph name="S" format="2">
  <advance width="600"/>
  <unicode hex="0053"/>
  <anchor x="269.0" y="0.0" name="bottom"/>
  <anchor x="367.0" y="698.0" name="top"/>
  <outline>
    <contour>
      <point x="268" y="-12" type="curve" smooth="yes" identifier="41jSFJ5nZ0"/>
      <point x="445" y="-12" identifier="VkvhAqNRhg"/>
      <point x="547" y="87" identifier="gKtOlldx8L"/>
      <point x="547" y="230" type="curve" smooth="yes" identifier="q0w51zNk7J"/>
      <point x="547" y="325" identifier="m1xN48PBMh"/>
      <point x="500" y="382" identifier="GfAUR4j8W1"/>
      <point x="401" y="407" type="curve" smooth="yes" identifier="ovsSSqSwhC"/>
      <point x="335" y="424" type="line" smooth="yes" identifier="pDPNHwmngS"/>
      <point x="273" y="440" identifier="ekBS3cLwbs"/>
      <point x="251" y="458" identifier="oWHkNTg6Uh"/>
      <point x="251" y="498" type="curve" smooth="yes" identifier="hiz9RNP6zY"/>
      <point x="251" y="554" identifier="acOPAix2Hi"/>
      <point x="287" y="590" identifier="9vR1Fgz2uk"/>
      <point x="360" y="590" type="curve" smooth="yes" identifier="Dw4WfEesXb"/>
      <point x="420" y="590" identifier="D6au4phuyx"/>
      <point x="467" y="565" identifier="4TU75l0vMM"/>
      <point x="497" y="523" type="curve" identifier="GkbRwG8jTw"/>
      <point x="594" y="612" type="line" identifier="uSA9qlEFAq"/>
      <point x="554" y="673" identifier="lafPvX1E3S"/>
      <point x="467" y="710" identifier="cQF0SQunFd"/>
      <point x="367" y="710" type="curve" smooth="yes" identifier="2BqSb7ntJn"/>
      <point x="201" y="710" identifier="My3P07BNtO"/>
      <point x="98" y="620" identifier="WQAU0R55G8"/>
      <point x="98" y="482" type="curve" smooth="yes" identifier="jr3tvSBheP"/>
      <point x="98" y="396" identifier="HaneJEQBy8"/>
      <point x="142" y="330" identifier="MBxZFm9SBU"/>
      <point x="243" y="307" type="curve" smooth="yes" identifier="UZBiSxddNd"/>
      <point x="312" y="291" type="line" smooth="yes" identifier="J3iGiHSKIM"/>
      <point x="368" y="278" identifier="Y0NXj8VNUJ"/>
      <point x="393" y="259" identifier="AgVwYcheoz"/>
      <point x="393" y="213" type="curve" smooth="yes" identifier="qtDrwawu5q"/>
      <point x="393" y="149" identifier="8cya82FcL4"/>
      <point x="353" y="110" identifier="zEm6BwawIJ"/>
      <point x="277" y="110" type="curve" smooth="yes" identifier="5bRwwoHjIj"/>
      <point x="215" y="110" identifier="Ff1Ipar5cK"/>
      <point x="146" y="136" identifier="ivQ7ZOgWff"/>
      <point x="105" y="189" type="curve" identifier="d9M23Sppsl"/>
      <point x="12" y="95" type="line" identifier="VEXMWubg2H"/>
      <point x="54" y="28" identifier="SpCUafL0v2"/>
      <point x="153" y="-12" identifier="Nh4AdjI2Iy"/>
    </contour>
  </outline>
</glyph>
<glyph name="T" format="2">
  <advance width="600"/>
  <unicode hex="0054"/>
  <anchor x="258.0" y="0.0" name="bottom"/>
  <anchor x="373.0" y="698.0" name="top"/>
  <outline>
    <contour>
      <point x="629" y="576" type="line" identifier="15tH7mJbQt"/>
      <point x="649" y="698" type="line" identifier="kFMsEjLmXQ"/>
      <point x="97" y="698" type="line" identifier="Ft4XV3yPoq"/>
      <point x="77" y="576" type="line" identifier="iGtlDPIr3F"/>
      <point x="279" y="576" type="line" identifier="s952aXaM1g"/>
      <point x="183" y="0" type="line" identifier="bnJ9KnEJMu"/>
      <point x="331" y="0" type="line" identifier="idxzvEhC03"/>
      <point x="427" y="576" type="line" identifier="LHsk9AI76W"/>
    </contour>
  </outline>
</glyph>
<glyph name="U" format="2">
  <advance width="600"/>
  <unicode hex="0055"/>
  <anchor x="267.0" y="0.0" name="bottom"/>
  <anchor x="404.0" y="0.0" name="bottomright"/>
  <anchor x="371.0" y="698.0" name="top"/>
  <outline>
    <contour>
      <point x="128" y="698" type="line" identifier="XaGMuU1rOZ"/>
      <point x="60" y="291" type="line" smooth="yes" identifier="DjJy26ezHy"/>
      <point x="53" y="249" identifier="knH4IfLzrx"/>
      <point x="49" y="210" identifier="gzXEjMyLXh"/>
      <point x="49" y="176" type="curve" smooth="yes" identifier="7A0CscYNI1"/>
      <point x="49" y="62" identifier="BYDFwTTywr"/>
      <point x="103" y="-12" identifier="5RA6HCInAI"/>
      <point x="269" y="-12" type="curve" smooth="yes" identifier="mfC7xYhSJP"/>
      <point x="470" y="-12" identifier="NbeNtbKIvG"/>
      <point x="516" y="86" identifier="YObln1LSfP"/>
      <point x="547" y="272" type="curve" smooth="yes" identifier="zg5sxA9wCq"/>
      <point x="618" y="698" type="line" identifier="FiNQVTSkPb"/>
      <point x="471" y="698" type="line" identifier="mA3FWOM8ZC"/>
      <point x="397" y="255" type="line" smooth="yes" identifier="8HuHok0ZMf"/>
      <point x="382" y="165" identifier="Jj0znX9nvw"/>
      <point x="366" y="108" identifier="uGLnSis1oP"/>
      <point x="277" y="108" type="curve" smooth="yes" identifier="NCeptfhEyl"/>
      <point x="216" y="108" identifier="1CSyrKfdmY"/>
      <point x="194" y="136" identifier="tO1rjgO0LT"/>
      <point x="194" y="186" type="curve" smooth="yes" identifier="ztIDoidrmH"/>
      <point x="194" y="200" identifier="5fSQW0EZJr"/>
      <point x="196" y="224" identifier="vrd0Nn3Hh7"/>
      <point x="202" y="260" type="curve" smooth="yes" identifier="dP5wQDcJRj"/>
      <point x="275" y="698" type="line" identifier="RiHE3cp1ZB"/>
    </contour>
  </outline>
</glyph>
<glyph name="V" format="2">
  <advance width="600"/>
  <unicode hex="0056"/>
  <anchor x="257.0" y="0.0" name="bottom"/>
  <anchor x="374.0" y="698.0" name="top"/>
  <outline>
    <contour>
      <point x="363" y="0" type="line" identifier="aXPAeAkTjv"/>
      <point x="661" y="698" type="line" identifier="CZu8lG4t3g"/>
      <point x="499" y="698" type="line" identifier="J9RwvfzBd9"/>
      <point x="363" y="347" type="line" identifier="Fd8ouW37jt"/>
      <point x="285" y="142" type="line" identifier="2GtYTZ8vxx"/>
      <point x="276" y="142" type="line" identifier="jsClw9ob96"/>
      <point x="267" y="347" type="line" identifier="jU04Bg5JtG"/>
      <point x="243" y="698" type="line" identifier="eBeYAzUWdR"/>
      <point x="85" y="698" type="line" identifier="RkI5829nXU"/>
      <point x="152" y="0" type="line" identifier="xtwY6B0e2C"/>
    </contour>
  </outline>
</glyph>
<glyph name="W" format="2">
  <advance width="600"/>
  <unicode hex="0057"/>
  <anchor x="256.0" y="0.0" name="bottom"/>
  <anchor x="374.0" y="698.0" name="top"/>
  <outline>
    <contour>
      <point x="200" y="0" type="line" identifier="SJywAhtAQh"/>
      <point x="317" y="386" type="line" identifier="MN68S82lsb"/>
      <point x="327" y="386" type="line" identifier="pW5w2txg19"/>
      <point x="312" y="0" type="line" identifier="8WMRb3557k"/>
      <point x="502" y="0" type="line" identifier="P6bLCc0tti"/>
      <point x="661" y="698" type="line" identifier="o0gmI7uOee"/>
      <point x="540" y="698" type="line" identifier="jG4Mag7ask"/>
      <point x="447" y="274" type="line" identifier="9pkm2TTsdF"/>
      <point x="420" y="136" type="line" identifier="HVHdVyogBQ"/>
      <point x="411" y="136" type="line" identifier="hOCS6NBhPG"/>
      <point x="417" y="546" type="line" identifier="Yic4vePasp"/>
      <point x="282" y="546" type="line" identifier="BnFZJEikhg"/>
      <point x="155" y="136" type="line" identifier="X12p21ru1l"/>
      <point x="146" y="136" type="line" identifier="zoRXxEQjsA"/>
      <point x="163" y="280" type="line" identifier="Aljo3GyBDJ"/>
      <point x="211" y="698" type="line" identifier="4PTVu2JoWf"/>
      <point x="84" y="698" type="line" identifier="iov0HS4g6a"/>
      <point x="10" y="0" type="line" identifier="36IMlma0h9"/>
    </contour>
  </outline>
</glyph>
<glyph name="X" format="2">
  <advance width="600"/>
  <unicode hex="0058"/>
  <anchor x="256.0" y="0.0" name="bottom"/>
  <anchor x="373.0" y="698.0" name="top"/>
  <outline>
    <contour>
      <point x="413" y="359" type="line" identifier="d8lZEeDpJe"/>
      <point x="650" y="698" type="line" identifier="8XP8qsN9Pv"/>
      <point x="488" y="698" type="line" identifier="szywAccrg8"/>
      <point x="410" y="587" type="line" identifier="Ugcyf8jlcs"/>
      <point x="340" y="475" type="line" identifier="twOwCsKOr0"/>
      <point x="332" y="475" type="line" identifier="js4xS7HSAq"/>
      <point x="299" y="587" type="line" identifier="nL7ixRqxnC"/>
      <point x="260" y="698" type="line" identifier="wFyNMYCCRw"/>
      <point x="94" y="698" type="line" identifier="poqbqha2oX"/>
      <point x="223" y="361" type="line" identifier="3Ye9rBhwAZ"/>
      <point x="-33" y="0" type="line" identifier="hR17PHa86M"/>
      <point x="130" y="0" type="line" identifier="zDJcLrRqcS"/>
      <point x="227" y="139" type="line" identifier="jfIP7TW1BH"/>
      <point x="293" y="249" type="line" identifier="glrp8emLUF"/>
      <point x="302" y="249" type="line" identifier="r1nON8SXeY"/>
      <point x="336" y="139" type="line" identifier="tikXlW9VTf"/>
      <point x="385" y="0" type="line" identifier="lbmuA2nZPN"/>
      <point x="550" y="0" type="line" identifier="BsmNKlhTm8"/>
    </contour>
  </outline>
</glyph>
<glyph name="Y" format="2">
  <advance width="600"/>
  <unicode hex="0059"/>
  <anchor x="258.0" y="0.0" name="bottom"/>
  <anchor x="367.0" y="698.0" name="top"/>
  <outline>
    <contour>
      <point x="332" y="0" type="line" identifier="rVt21zbHjL"/>
      <point x="373" y="249" type="line" identifier="8nhEPXZrcR"/>
      <point x="668" y="698" type="line" identifier="94aJASOrfy"/>
      <point x="503" y="698" type="line" identifier="AurP2rlOmM"/>
      <point x="403" y="534" type="line" identifier="G3dcSrd9Rc"/>
      <point x="325" y="397" type="line" identifier="jjlgKJp9WW"/>
      <point x="316" y="397" type="line" identifier="iNJJhNLkwt"/>
      <point x="285" y="534" type="line" identifier="TffBzoddwJ"/>
      <point x="236" y="698" type="line" identifier="NWbdTuQqKA"/>
      <point x="78" y="698" type="line" identifier="TOFJaFAw9n"/>
      <point x="225" y="246" type="line" identifier="WW6yYPHDTy"/>
      <point x="184" y="0" type="line" identifier="8Qw9RcRtkL"/>
    </contour>
  </outline>
</glyph>
<glyph name="Z" format="2">
  <advance width="600"/>
  <unicode hex="005A"/>
  <anchor x="253.0" y="0.0" name="bottom"/>
  <anchor x="364.0" y="698.0" name="top"/>
  <outline>
    <contour>
      <point x="527" y="122" type="line" identifier="3ucX4yVeUK"/>
      <point x="204" y="122" type="line" identifier="QrlFCRAgZw"/>
      <point x="591" y="568" type="line" identifier="tCpxlaUKAB"/>
      <point x="612" y="698" type="line" identifier="nat8ldys7o"/>
      <point x="133" y="698" type="line" identifier="wNaeBRPf26"/>
      <point x="113" y="576" type="line" identifier="5UOvcgcDoX"/>
      <point x="417" y="576" type="line" identifier="CDVzLBoor1"/>
      <point x="30" y="130" type="line" identifier="DTcz6fbRzs"/>
      <point x="8" y="0" type="line" identifier="ILPpEeGbuc"/>
      <point x="507" y="0" type="line" identifier="tfd1MFaIAo"/>
    </contour>
  </outline>
</glyph>
<glyph name="bracketleft" format="2">
  <advance width="600"/>
  <unicode hex="005B"/>
  <outline>
    <contour>
      <point x="438" y="-138" type="line" identifier="jSGDVa3uvC"/>
      <point x="455" y="-40" type="line" identifier="1UsoHQdfti"/>
      <point x="252" y="-40" type="line" identifier="G8uUYhKsb5"/>
      <point x="369" y="662" type="line" identifier="l1eU1slV1x"/>
      <point x="572" y="662" type="line" identifier="yihngcn1Ku"/>
      <point x="588" y="760" type="line" identifier="bXxFm2jEAd"/>
      <point x="268" y="760" type="line" identifier="yR1Bb3cfwS"/>
      <point x="118" y="-138" type="line" identifier="2GgBsk0rNF"/>
    </contour>
  </outline>
</glyph>
<glyph name="backslash" format="2">
  <advance width="600"/>
  <unicode hex="005C"/>
  <outline>
    <contour>
      <point x="449" y="-138" type="line" identifier="eBS1U76YKH"/>
      <point x="280" y="760" type="line" identifier="XnyDDDpGnG"/>
      <point x="161" y="760" type="line" identifier="zsCJkj48WM"/>
      <point x="330" y="-138" type="line" identifier="h3jY0eMt0n"/>
    </contour>
  </outline>
</glyph>
<glyph name="bracketright" format="2">
  <advance width="600"/>
  <unicode hex="005D"/>
  <outline>
    <contour>
      <point x="181" y="760" type="line" identifier="24WXEw042A"/>
      <point x="164" y="662" type="line" identifier="DKrZAtoh0B"/>
      <point x="367" y="662" type="line" identifier="KFqcgDNtmo"/>
      <point x="250" y="-40" type="line" identifier="H75BHOxZZM"/>
      <point x="47" y="-40" type="line" identifier="uhT9LlEZT8"/>
      <point x="31" y="-138" type="line" identifier="mAXusSivxP"/>
      <point x="351" y="-138" type="line" identifier="YNdEbmgmhc"/>
      <point x="501" y="760" type="line" identifier="gU7JhJPdmZ"/>
    </contour>
  </outline>
</glyph>
<glyph name="asciicircum" format="2">
  <advance width="600"/>
  <unicode hex="005E"/>
  <outline>
    <contour>
      <point x="578" y="304" type="line" identifier="fCLl1k4MZ9"/>
      <point x="445" y="698" type="line" identifier="QK7bOPy4OL"/>
      <point x="289" y="698" type="line" identifier="2XyorVvSYe"/>
      <point x="34" y="304" type="line" identifier="YEFdIhGp9W"/>
      <point x="144" y="252" type="line" identifier="KGs8wJr25m"/>
      <point x="342" y="562" type="line" identifier="a0SoPhD1cj"/>
      <point x="353" y="562" type="line" identifier="nol3a79wsx"/>
      <point x="459" y="256" type="line" identifier="Jka9XkjcC8"/>
    </contour>
  </outline>
</glyph>
<glyph name="underscore" format="2">
  <advance width="600"/>
  <unicode hex="005F"/>
  <outline>
    <contour>
      <point x="463" y="-191" type="line" identifier="h7lmSd781L"/>
      <point x="483" y="-72" type="line" identifier="uqi8O7LIsY"/>
      <point x="8" y="-72" type="line" identifier="9Gyww2aFFE"/>
      <point x="-12" y="-191" type="line" identifier="9iGl5uk1SC"/>
    </contour>
  </outline>
</glyph>
<glyph name="grave" format="2">
  <advance width="600"/>
  <unicode hex="0060"/>
  <anchor x="300.0" y="516.0" name="_top"/>
  <outline>
    <contour>
      <point x="293" y="571" type="line" identifier="34s48gJ1ZK"/>
      <point x="380" y="610" type="line" identifier="YzIV3geYbP"/>
      <point x="303" y="806" type="line" identifier="pOv4S8JytB"/>
      <point x="179" y="747" type="line" identifier="2VYJqmuAr3"/>
    </contour>
  </outline>
</glyph>
<glyph name="a" format="2">
  <advance width="600"/>
  <unicode hex="0061"/>
  <anchor x="248.0" y="0.0" name="bottom"/>
  <anchor x="534.0" y="0.0" name="bottomright"/>
  <anchor x="326.0" y="516.0" name="top"/>
  <outline>
    <contour>
      <point x="181" y="-12" type="curve" smooth="yes" identifier="B0LqdRwobh"/>
      <point x="272" y="-12" identifier="q9nxVpLfnM"/>
      <point x="311" y="44" identifier="M2HBs3Md7N"/>
      <point x="350" y="123" type="curve" identifier="VtFjh2Gb8y"/>
      <point x="355" y="123" type="line" identifier="hggBUDjRQ7"/>
      <point x="353" y="110" type="line" smooth="yes" identifier="HasrOx15mc"/>
      <point x="342" y="38" identifier="FmqmIYUwhw"/>
      <point x="384" y="0" identifier="JDvSQ2FOhy"/>
      <point x="459" y="0" type="curve" smooth="yes" identifier="4njcE2PDKP"/>
      <point x="534" y="0" type="line" identifier="9Y4Tc4rccj"/>
      <point x="552" y="107" type="line" identifier="rD1NNya7dO"/>
      <point x="499" y="107" type="line" identifier="JxeVIGXnbX"/>
      <point x="567" y="516" type="line" identifier="JdZ0wCCXg2"/>
      <point x="421" y="516" type="line" identifier="XcqXkD0w5G"/>
      <point x="405" y="420" type="line" identifier="833ufPii5j"/>
      <point x="398" y="420" type="line" identifier="YqtkbeeeZP"/>
      <point x="383" y="488" identifier="UVXbJyCTpa"/>
      <point x="349" y="528" identifier="JuoOEALOJl"/>
      <point x="271" y="528" type="curve" smooth="yes" identifier="EFpRltzoEc"/>
      <point x="126" y="528" identifier="LTkZh8p8Ao"/>
      <point x="38" y="392" identifier="XmcxZFD3gQ"/>
      <point x="38" y="193" type="curve" smooth="yes" identifier="xUuMvB7whe"/>
      <point x="38" y="68" identifier="2V6TQ6PfCN"/>
      <point x="73" y="-12" identifier="EXPDsgluwI"/>
    </contour>
    <contour>
      <point x="247" y="101" type="curve" smooth="yes" identifier="J9JbXF9gkS"/>
      <point x="200" y="101" identifier="BiePNawldF"/>
      <point x="186" y="139" identifier="gY1wck8VJh"/>
      <point x="186" y="187" type="curve" smooth="yes" identifier="Vqvq9fjrC8"/>
      <point x="186" y="205" identifier="BRDCo1yrOr"/>
      <point x="188" y="221" identifier="7w3bZEarjE"/>
      <point x="190" y="233" type="curve" smooth="yes" identifier="pMgQZqQYkC"/>
      <point x="200" y="293" type="line" smooth="yes" identifier="9upLFCQktZ"/>
      <point x="213" y="371" identifier="HQ4duEl2YM"/>
      <point x="244" y="415" identifier="E0XFUVcApp"/>
      <point x="317" y="415" type="curve" smooth="yes" identifier="MdPSKnIFs2"/>
      <point x="379" y="415" identifier="iJ2MQLZ7CA"/>
      <point x="399" y="384" identifier="V9GYmIziKe"/>
      <point x="390" y="330" type="curve" smooth="yes" identifier="DzxomUcNeH"/>
      <point x="376" y="247" type="line" smooth="yes" identifier="UDPFr41CkR"/>
      <point x="369" y="204" identifier="W6bAUb7Djn"/>
      <point x="347" y="168" identifier="xMHXrHvUr7"/>
      <point x="332" y="149" type="curve" smooth="yes" identifier="vVVuF1f7FP"/>
      <point x="309" y="120" identifier="8Ja3a32WuG"/>
      <point x="281" y="101" identifier="NjD79d21w0"/>
    </contour>
  </outline>
</glyph>
<glyph name="b" format="2">
  <advance width="600"/>
  <unicode hex="0062"/>
  <anchor x="318.0" y="0.0" name="bottom"/>
  <outline>
    <contour>
      <point x="21" y="0" type="line" identifier="EwmTivZfOf"/>
      <point x="167" y="0" type="line" identifier="iWJQ1BBf1s"/>
      <point x="183" y="96" type="line" identifier="mDSrSQSthJ"/>
      <point x="190" y="96" type="line" identifier="MO8TK4Cvjq"/>
      <point x="205" y="28" identifier="siQqTMO1UX"/>
      <point x="244" y="-12" identifier="Q1gY8nB4zS"/>
      <point x="325" y="-12" type="curve" smooth="yes" identifier="soVe5xCWZm"/>
      <point x="468" y="-12" identifier="73TqqvWVsF"/>
      <point x="562" y="123" identifier="U1iSV6C6A3"/>
      <point x="562" y="328" type="curve" smooth="yes" identifier="tnMXesoEbb"/>
      <point x="562" y="449" identifier="ByqbqYDaWF"/>
      <point x="520" y="528" identifier="XQjROSFDaa"/>
      <point x="411" y="528" type="curve" smooth="yes" identifier="Msh2MUxhqY"/>
      <point x="323" y="528" identifier="teODKMcC0z"/>
      <point x="277" y="472" identifier="5HJ5RnMI1o"/>
      <point x="238" y="393" type="curve" identifier="nUczGLSoRA"/>
      <point x="233" y="393" type="line" identifier="lRhGA5wmo6"/>
      <point x="290" y="740" type="line" identifier="Q4FR830I8y"/>
      <point x="144" y="740" type="line" identifier="ONxCdFOnmX"/>
    </contour>
    <contour>
      <point x="278" y="101" type="curve" smooth="yes" identifier="lf2pOrH6hm"/>
      <point x="215" y="101" identifier="HnulWmrD3l"/>
      <point x="189" y="132" identifier="HmlCvA90dJ"/>
      <point x="198" y="186" type="curve" smooth="yes" identifier="pYHxbS81jR"/>
      <point x="212" y="269" type="line" smooth="yes" identifier="XYo44RcTrk"/>
      <point x="219" y="312" identifier="anTsUMIpjB"/>
      <point x="243" y="347" identifier="hj7XhgH1wJ"/>
      <point x="259" y="366" type="curve" smooth="yes" identifier="Eel5lluOsB"/>
      <point x="283" y="396" identifier="xF7yRXN6VD"/>
      <point x="310" y="415" identifier="gtbxh0vhQE"/>
      <point x="346" y="415" type="curve" smooth="yes" identifier="MWDQzdQ4MX"/>
      <point x="396" y="415" identifier="fLAkdY2zyF"/>
      <point x="413" y="377" identifier="nGSyZF0cFs"/>
      <point x="414" y="328" type="curve" smooth="yes" identifier="TcubJciD5e"/>
      <point x="414" y="311" identifier="W3doS3X3Y1"/>
      <point x="412" y="295" identifier="y6btlXjxwy"/>
      <point x="410" y="283" type="curve" smooth="yes" identifier="zmHZxQoseO"/>
      <point x="400" y="223" type="line" smooth="yes" identifier="4M4ssi4VAw"/>
      <point x="387" y="145" identifier="nnA90n2kb2"/>
      <point x="350" y="101" identifier="zrqEbLDa7v"/>
    </contour>
  </outline>
</glyph>
<glyph name="c" format="2">
  <advance width="600"/>
  <unicode hex="0063"/>
  <anchor x="276.0" y="0.0" name="bottom"/>
  <anchor x="339.0" y="516.0" name="top"/>
  <outline>
    <contour>
      <point x="273" y="-12" type="curve" smooth="yes" identifier="tPGdkoPtKH"/>
      <point x="397" y="-12" identifier="VKRGx2MCzf"/>
      <point x="465" y="48" identifier="8AAwTrhjh5"/>
      <point x="533" y="156" type="curve" identifier="0Q0qA3SHoX"/>
      <point x="442" y="215" type="line" identifier="duAOh0qfkm"/>
      <point x="369" y="119" identifier="jfXY2g9Tc3"/>
      <point x="339" y="105" identifier="SlXyBi7fas"/>
      <point x="297" y="105" type="curve" smooth="yes" identifier="slOgZOFfe2"/>
      <point x="231" y="105" identifier="slJNaOWaFC"/>
      <point x="206" y="141" identifier="vH1o1aXcnM"/>
      <point x="206" y="194" type="curve" smooth="yes" identifier="FxN1Vqpx7H"/>
      <point x="206" y="210" identifier="e3UJtTvynV"/>
      <point x="208" y="229" identifier="fEAg5NxoPa"/>
      <point x="210" y="241" type="curve" smooth="yes" identifier="1aXHkrf7Ln"/>
      <point x="220" y="301" type="line" smooth="yes" identifier="7wY5rA3TP9"/>
      <point x="232" y="373" identifier="JfChWn4uQM"/>
      <point x="274" y="411" identifier="Npwkg9zDlc"/>
      <point x="331" y="411" type="curve" smooth="yes" identifier="WXloLdYrbg"/>
      <point x="389" y="411" identifier="5NSKScmkZR"/>
      <point x="410" y="384" identifier="Azn5Vz0Fpl"/>
      <point x="424" y="341" type="curve" identifier="irKwjK5v45"/>
      <point x="543" y="397" type="line" identifier="8sZI7l9qlI"/>
      <point x="521" y="475" identifier="jqLWAMpLkr"/>
      <point x="461" y="528" identifier="yRVDtElyWH"/>
      <point x="343" y="528" type="curve" smooth="yes" identifier="hIeeKyEG7p"/>
      <point x="159" y="528" identifier="MapsdZUiEf"/>
      <point x="57" y="382" identifier="P6o335910R"/>
      <point x="57" y="206" type="curve" smooth="yes" identifier="sZ1SaglIEe"/>
      <point x="57" y="68" identifier="U7481ZqneM"/>
      <point x="133" y="-12" identifier="G8hLepeyIw"/>
    </contour>
  </outline>
</glyph>
<glyph name="d" format="2">
  <advance width="600"/>
  <unicode hex="0064"/>
  <anchor x="198.0" y="0.0" name="bottom"/>
  <anchor x="667.0" y="740.0" name="topright"/>
  <outline>
    <contour>
      <point x="347" y="0" type="line" identifier="QyiXNAL0or"/>
      <point x="493" y="0" type="line" identifier="lGcJ2ySGge"/>
      <point x="616" y="740" type="line" identifier="PFoAEwx9Fj"/>
      <point x="470" y="740" type="line" identifier="PLacqRMR78"/>
      <point x="417" y="420" type="line" identifier="kDIuL4psUo"/>
      <point x="410" y="420" type="line" identifier="mkfm4saS5c"/>
      <point x="395" y="488" identifier="tbaVrutlcc"/>
      <point x="356" y="528" identifier="9fCh5kxGgI"/>
      <point x="275" y="528" type="curve" smooth="yes" identifier="rbCvGBDNsE"/>
      <point x="132" y="528" identifier="XcCdTZn54G"/>
      <point x="38" y="393" identifier="E2vph1qwTP"/>
      <point x="38" y="188" type="curve" smooth="yes" identifier="grauVwTK03"/>
      <point x="38" y="67" identifier="9Tb1q77Q5e"/>
      <point x="80" y="-12" identifier="okJ7o5KCpq"/>
      <point x="189" y="-12" type="curve" smooth="yes" identifier="yCa1vQXvDE"/>
      <point x="277" y="-12" identifier="OKDYay6ATY"/>
      <point x="323" y="44" identifier="W8n6Axpruw"/>
      <point x="362" y="123" type="curve" identifier="LyFcJu3lVr"/>
      <point x="367" y="123" type="line" identifier="TPyxNP7A1R"/>
    </contour>
    <contour>
      <point x="254" y="101" type="curve" smooth="yes" identifier="ZzWupg8E30"/>
      <point x="204" y="101" identifier="ajHjTmY3yy"/>
      <point x="187" y="139" identifier="A8zoO8G16p"/>
      <point x="186" y="188" type="curve" smooth="yes" identifier="nQgKJTO2sL"/>
      <point x="186" y="205" identifier="6fiSB40tSd"/>
      <point x="188" y="221" identifier="jNHg1MB0wS"/>
      <point x="190" y="233" type="curve" smooth="yes" identifier="mU8m5o7OnT"/>
      <point x="200" y="293" type="line" smooth="yes" identifier="NTaPh2cLy2"/>
      <point x="213" y="371" identifier="SCdz4MF9iF"/>
      <point x="250" y="415" identifier="CEw9EaWdvL"/>
      <point x="322" y="415" type="curve" smooth="yes" identifier="ddhVXFBzHP"/>
      <point x="385" y="415" identifier="4ugbXnMmGI"/>
      <point x="411" y="384" identifier="xSdLZ44aLE"/>
      <point x="402" y="330" type="curve" smooth="yes" identifier="47HrVTYOcX"/>
      <point x="388" y="247" type="line" smooth="yes" identifier="D9AWMoVGSX"/>
      <point x="381" y="204" identifier="YSSt1uzAJ8"/>
      <point x="357" y="169" identifier="kE655I8uaI"/>
      <point x="341" y="150" type="curve" smooth="yes" identifier="S4aimIj4a3"/>
      <point x="317" y="120" identifier="zZjIttVDnH"/>
      <point x="290" y="101" identifier="e3mWTtbC0F"/>
    </contour>
  </outline>
</glyph>
<glyph name="e" format="2">
  <advance width="600"/>
  <unicode hex="0065"/>
  <anchor x="294.0" y="0.0" name="bottom"/>
  <anchor x="409.0" y="0.0" name="bottomright"/>
  <anchor x="343.0" y="516.0" name="top"/>
  <outline>
    <contour>
      <point x="281" y="-12" type="curve" smooth="yes" identifier="mfMubWOfyz"/>
      <point x="413" y="-12" identifier="Qis0yOxC7N"/>
      <point x="479" y="52" identifier="TsKiUKc8Qa"/>
      <point x="533" y="129" type="curve" identifier="MwtCIfNpHU"/>
      <point x="442" y="188" type="line" identifier="n20pvf4NMk"/>
      <point x="389" y="120" identifier="i1dcuquSn9"/>
      <point x="357" y="100" identifier="IwNsVjfsev"/>
      <point x="300" y="100" type="curve" smooth="yes" identifier="mm1vO3M5Cw"/>
      <point x="230" y="100" identifier="mD0qe7CK8y"/>
      <point x="201" y="131" identifier="tBlkaJax6A"/>
      <point x="201" y="186" type="curve" smooth="yes" identifier="nWQl4XuwVG"/>
      <point x="201" y="191" identifier="gxW13yCBzL"/>
      <point x="201" y="195" identifier="kHNbUm3R5Y"/>
      <point x="202" y="203" type="curve" identifier="Way8dR4uWp"/>
      <point x="496" y="214" identifier="C7qNk8Ump3"/>
      <point x="550" y="303" identifier="rhWjYK5f8y"/>
      <point x="550" y="386" type="curve" smooth="yes" identifier="BRRmOSuLmp"/>
      <point x="550" y="481" identifier="BAXgLen0QA"/>
      <point x="464" y="528" identifier="H9TvNcaYvi"/>
      <point x="360" y="528" type="curve" smooth="yes" identifier="t0BTmiUhp5"/>
      <point x="177" y="528" identifier="xnkaBL6GVu"/>
      <point x="56" y="400" identifier="KuTUXlFuVT"/>
      <point x="56" y="208" type="curve" smooth="yes" identifier="nU4LKnwFbg"/>
      <point x="56" y="71" identifier="dBpnX08bvf"/>
      <point x="129" y="-12" identifier="7pWcwANS3E"/>
    </contour>
    <contour>
      <point x="345" y="425" type="curve" smooth="yes" identifier="l7A9jCd9fC"/>
      <point x="389" y="425" identifier="8Hx43s2Zu9"/>
      <point x="409" y="406" identifier="nRQaCvFQgh"/>
      <point x="409" y="373" type="curve" smooth="yes" identifier="xj5mQb4rgl"/>
      <point x="409" y="340" identifier="lWAFRKaWTm"/>
      <point x="397" y="297" identifier="UzN9sfPAZj"/>
      <point x="212" y="287" type="curve" identifier="vPmNqJ65gv"/>
      <point x="215" y="301" type="line" smooth="yes" identifier="n5ObsKu64h"/>
      <point x="234" y="390" identifier="cGkkDoOWAm"/>
      <point x="282" y="425" identifier="jzSs8IQu1Q"/>
    </contour>
  </outline>
</glyph>
<glyph name="f" format="2">
  <advance width="600"/>
  <unicode hex="0066"/>
  <outline>
    <contour>
      <point x="173" y="-212" type="curve" smooth="yes" identifier="ehH4CYNhgF"/>
      <point x="257" y="-212" identifier="kval4cbxfQ"/>
      <point x="315" y="-165" identifier="yBKwwOnxmk"/>
      <point x="334" y="-53" type="curve" smooth="yes" identifier="C7EBjVGirk"/>
      <point x="410" y="402" type="line" identifier="iQl4zO0jDs"/>
      <point x="597" y="402" type="line" identifier="I3B5GLM9Ef"/>
      <point x="616" y="516" type="line" identifier="RgvQAGF6px"/>
      <point x="430" y="516" type="line" identifier="kHSWIb5fz2"/>
      <point x="448" y="626" type="line" identifier="p591Wyw3t0"/>
      <point x="634" y="626" type="line" identifier="hD9e43TI1S"/>
      <point x="653" y="740" type="line" identifier="pRbyYU2EHP"/>
      <point x="475" y="740" type="line" smooth="yes" identifier="sCUS4OvIWp"/>
      <point x="368" y="740" identifier="Q2m7WjOkw7"/>
      <point x="311" y="680" identifier="O9ZNdwItRt"/>
      <point x="297" y="594" type="curve" smooth="yes" identifier="yy8i5Lx7qG"/>
      <point x="284" y="516" type="line" identifier="xXUyIsZdpi"/>
      <point x="121" y="516" type="line" identifier="IS9wllHRSR"/>
      <point x="102" y="402" type="line" identifier="1p1zwY3tuk"/>
      <point x="265" y="402" type="line" identifier="WZNtUidukG"/>
      <point x="183" y="-92" type="line" identifier="KSJroIPrvV"/>
      <point x="171" y="-97" type="line" identifier="Hzi2hfPHiM"/>
      <point x="68" y="39" type="line" identifier="uLxImlr9Qx"/>
      <point x="-32" y="-30" type="line" identifier="3rs8qAesMO"/>
      <point x="9" y="-89" type="line" smooth="yes" identifier="FbEa0Z4dIo"/>
      <point x="61" y="-163" identifier="v2orpuR9so"/>
      <point x="100" y="-212" identifier="XyEQ1YAGgi"/>
    </contour>
  </outline>
</glyph>
<glyph name="g" format="2">
  <advance width="600"/>
  <unicode hex="0067"/>
  <anchor x="331.0" y="516.0" name="top"/>
  <outline>
    <contour>
      <point x="224" y="-212" type="curve" smooth="yes" identifier="IP0dlPdYY3"/>
      <point x="377" y="-212" identifier="OVnObwC0Wd"/>
      <point x="473" y="-131" identifier="jbGSqNLgZ1"/>
      <point x="501" y="36" type="curve" smooth="yes" identifier="wUMtbTeLTy"/>
      <point x="581" y="516" type="line" identifier="4gNt5UC4vR"/>
      <point x="435" y="516" type="line" identifier="HM6gEv9Xn4"/>
      <point x="419" y="420" type="line" identifier="T96u25brni"/>
      <point x="411" y="420" type="line" identifier="SMC6OtZAZK"/>
      <point x="397" y="488" identifier="qR2gFbPODX"/>
      <point x="358" y="528" identifier="RXmHrr911k"/>
      <point x="275" y="528" type="curve" smooth="yes" identifier="Men9V6bhBw"/>
      <point x="130" y="528" identifier="oTru0lp1jy"/>
      <point x="41" y="396" identifier="JhKGTnMZrA"/>
      <point x="41" y="208" type="curve" smooth="yes" identifier="Qiu6NOIKpi"/>
      <point x="41" y="93" identifier="DQbjtt5MNA"/>
      <point x="85" y="8" identifier="XJALrvBlLl"/>
      <point x="196" y="8" type="curve" smooth="yes" identifier="wzmB8zt6MU"/>
      <point x="285" y="8" identifier="Rq5sPWxIw5"/>
      <point x="330" y="64" identifier="ivHEAgJnL5"/>
      <point x="368" y="143" type="curve" identifier="LeG86rfcdG"/>
      <point x="374" y="143" type="line" identifier="7NVR1qax8H"/>
      <point x="359" y="54" type="line" smooth="yes" identifier="7CKVDRmgV1"/>
      <point x="338" y="-72" identifier="GkYCTeSZBL"/>
      <point x="294" y="-99" identifier="V2Ebmhg1UM"/>
      <point x="220" y="-99" type="curve" smooth="yes" identifier="siqqqL2UtL"/>
      <point x="174" y="-99" identifier="7M436r3GJi"/>
      <point x="132" y="-85" identifier="HZlfS99QzH"/>
      <point x="100" y="-46" type="curve" identifier="4QWws5jl37"/>
      <point x="13" y="-136" type="line" identifier="mgI1CshtFb"/>
      <point x="65" y="-197" identifier="N4pPXCe2Eh"/>
      <point x="128" y="-212" identifier="LLYcB6nq35"/>
    </contour>
    <contour>
      <point x="260" y="122" type="curve" smooth="yes" identifier="VwEQLmbV5o"/>
      <point x="210" y="122" identifier="d4CTo7cT4V"/>
      <point x="191" y="158" identifier="GpPTYZ1dGI"/>
      <point x="191" y="202" type="curve" smooth="yes" identifier="UdX5KbZOwA"/>
      <point x="191" y="223" identifier="8NyrIA2i1p"/>
      <point x="193" y="239" identifier="rYf9yR0cbQ"/>
      <point x="195" y="251" type="curve" smooth="yes" identifier="pRAH52If0k"/>
      <point x="202" y="293" type="line" smooth="yes" identifier="ECKzRiQHcD"/>
      <point x="214" y="365" identifier="7ECiFnjPJk"/>
      <point x="251" y="415" identifier="QpJUViYpO3"/>
      <point x="325" y="415" type="curve" smooth="yes" identifier="On6eyDEDzf"/>
      <point x="390" y="415" identifier="xwtf45VCHL"/>
      <point x="413" y="381" identifier="uMqtYI0LA7"/>
      <point x="405" y="333" type="curve" smooth="yes" identifier="VUHe5MFZWk"/>
      <point x="394" y="266" type="line" smooth="yes" identifier="CgWmyouKAP"/>
      <point x="386" y="218" identifier="Cn3ocIWs1K"/>
      <point x="361" y="187" identifier="CvBE97nD6m"/>
      <point x="345" y="168" type="curve" smooth="yes" identifier="vVCrVXuqcD"/>
      <point x="321" y="140" identifier="L8QFacuHde"/>
      <point x="296" y="122" identifier="BXOjdqEYJK"/>
    </contour>
  </outline>
</glyph>
<glyph name="h" format="2">
  <advance width="600"/>
  <unicode hex="0068"/>
  <anchor x="260.0" y="0.0" name="bottom"/>
  <anchor x="213.0" y="698.0" name="top"/>
  <outline>
    <contour>
      <point x="25" y="0" type="line" identifier="kcCcUfYvR1"/>
      <point x="171" y="0" type="line" identifier="LQJvJRrnA4"/>
      <point x="216" y="269" type="line" smooth="yes" identifier="x3tX03kjou"/>
      <point x="223" y="311" identifier="7JCp7LrEcv"/>
      <point x="248" y="349" identifier="G4uc0EJx2n"/>
      <point x="263" y="369" type="curve" smooth="yes" identifier="DbPg6AE3ct"/>
      <point x="286" y="399" identifier="ezgmaz8fCo"/>
      <point x="310" y="416" identifier="lLYCLZCTwN"/>
      <point x="344" y="416" type="curve" smooth="yes" identifier="ZFw7IXRoQR"/>
      <point x="389" y="416" identifier="O5KS4QdTbR"/>
      <point x="404" y="382" identifier="dmByk8WNBv"/>
      <point x="404" y="355" type="curve" smooth="yes" identifier="P8Fn6ywyjT"/>
      <point x="404" y="330" identifier="kZ90n1Exws"/>
      <point x="400" y="311" identifier="940vb48GnC"/>
      <point x="397" y="293" type="curve" smooth="yes" identifier="HxRvlHzGNz"/>
      <point x="348" y="0" type="line" identifier="OXStrKKEqo"/>
      <point x="494" y="0" type="line" identifier="CP9F7jdi2l"/>
      <point x="540" y="275" type="line" smooth="yes" identifier="cKefZZZz5F"/>
      <point x="548" y="323" identifier="QNZwQeZYAa"/>
      <point x="551" y="350" identifier="mb5UVkAipa"/>
      <point x="551" y="379" type="curve" smooth="yes" identifier="YXrEy4oMPy"/>
      <point x="551" y="459" identifier="ivl1kHN2mr"/>
      <point x="511" y="528" identifier="4uIAdP6Zrj"/>
      <point x="410" y="528" type="curve" smooth="yes" identifier="mtBg9cAzc0"/>
      <point x="328" y="528" identifier="Sg2XTBUHI8"/>
      <point x="281" y="477" identifier="Kl8KGt5RKU"/>
      <point x="242" y="393" type="curve" identifier="4oJpPLdJDM"/>
      <point x="237" y="393" type="line" identifier="5N0PZuEnLo"/>
      <point x="294" y="740" type="line" identifier="XmTHNPhAml"/>
      <point x="148" y="740" type="line" identifier="N3B15Tv7SE"/>
    </contour>
  </outline>
</glyph>
<glyph name="i" format="2">
  <advance width="600"/>
  <unicode hex="0069"/>
  <anchor x="296.0" y="0.0" name="bottom"/>
  <anchor x="466.0" y="0.0" name="bottomright"/>
  <outline>
    <contour>
      <point x="339" y="584" type="curve" smooth="yes" identifier="eDgqGlzYbk"/>
      <point x="399" y="584" identifier="b3gE9rJoH0"/>
      <point x="426" y="608" identifier="Lz2VXwGRes"/>
      <point x="433" y="650" type="curve" smooth="yes" identifier="VAMHvu01IA"/>
      <point x="437" y="674" identifier="koIBvmiPCd"/>
      <point x="438" y="683" identifier="2l8lRBOgxS"/>
      <point x="438" y="690" type="curve" smooth="yes" identifier="TVfvr4ddJL"/>
      <point x="438" y="725" identifier="syAoQjzOyq"/>
      <point x="416" y="751" identifier="3nItEg9ACL"/>
      <point x="356" y="751" type="curve" smooth="yes" identifier="evHZ1grHVX"/>
      <point x="296" y="751" identifier="wcGXKI2yuo"/>
      <point x="269" y="727" identifier="s2rjd019ay"/>
      <point x="262" y="685" type="curve" smooth="yes" identifier="Jo9ac2isk3"/>
      <point x="258" y="661" identifier="cK99d6IVzi"/>
      <point x="257" y="652" identifier="21neDj7ih7"/>
      <point x="257" y="645" type="curve" smooth="yes" identifier="4PiOtuFinC"/>
      <point x="257" y="610" identifier="uqW2yYJSo9"/>
      <point x="279" y="584" identifier="Njk3PphUKY"/>
    </contour>
    <contour>
      <point x="298" y="-12" type="curve" smooth="yes" identifier="LqIetTzxZS"/>
      <point x="367" y="-12" identifier="LO0tMKOHzo"/>
      <point x="423" y="27" identifier="mAUxmfcfpU"/>
      <point x="490" y="103" type="curve" smooth="yes" identifier="yhViDGOFAE"/>
      <point x="551" y="173" type="line" identifier="62puDEhH7l"/>
      <point x="471" y="244" type="line" identifier="zkMCXGE37j"/>
      <point x="331" y="101" type="line" identifier="ibl5PfgxuQ"/>
      <point x="314" y="106" type="line" identifier="dVVL9O73GR"/>
      <point x="391" y="516" type="line" identifier="vcsYFSpl8w"/>
      <point x="87" y="516" type="line" identifier="Br26m1Zhe3"/>
      <point x="68" y="402" type="line" identifier="cPKNh6XO66"/>
      <point x="224" y="402" type="line" identifier="sFxxvofctC"/>
      <point x="184" y="188" type="line" smooth="yes" identifier="CirVTrOhb4"/>
      <point x="176" y="147" identifier="Wi2ciNQhkA"/>
      <point x="174" y="130" identifier="3WZSUsQOIx"/>
      <point x="174" y="108" type="curve" smooth="yes" identifier="fBLaThqaF5"/>
      <point x="174" y="35" identifier="lW3YxeOVHG"/>
      <point x="216" y="-12" identifier="LF25qbSnBn"/>
    </contour>
  </outline>
</glyph>
<glyph name="j" format="2">
  <advance width="600"/>
  <unicode hex="006A"/>
  <outline>
    <contour>
      <point x="216" y="-212" type="curve" smooth="yes" identifier="bOixQaLjeQ"/>
      <point x="312" y="-212" identifier="Qz6YsGNQwc"/>
      <point x="365" y="-162" identifier="J1JkRavbeI"/>
      <point x="386" y="-37" type="curve" smooth="yes" identifier="5U8v7pIPFp"/>
      <point x="478" y="516" type="line" identifier="gEy7xj2W8c"/>
      <point x="143" y="516" type="line" identifier="8celwqQvL7"/>
      <point x="124" y="402" type="line" identifier="4tqwBrrMpC"/>
      <point x="313" y="402" type="line" identifier="wRJ4M0zSvW"/>
      <point x="230" y="-96" type="line" identifier="A5R9aweCaT"/>
      <point x="217" y="-101" type="line" identifier="EgzbhKWcmS"/>
      <point x="104" y="54" type="line" identifier="4aIyONyI54"/>
      <point x="4" y="-15" type="line" identifier="GD6TPSj9DU"/>
      <point x="36" y="-65" type="line" smooth="yes" identifier="b0dLOQ9y3S"/>
      <point x="97" y="-160" identifier="OJDI9PwDbN"/>
      <point x="137" y="-212" identifier="X6plTor7xP"/>
    </contour>
    <contour>
      <point x="422" y="584" type="curve" smooth="yes" identifier="KE940qkU13"/>
      <point x="482" y="584" identifier="1BvZDAd5ah"/>
      <point x="509" y="608" identifier="7f19ctR9FO"/>
      <point x="516" y="650" type="curve" smooth="yes" identifier="CNSXIMv3jO"/>
      <point x="520" y="674" identifier="XzOtBEIymd"/>
      <point x="521" y="683" identifier="PST97WyMzs"/>
      <point x="521" y="690" type="curve" smooth="yes" identifier="b0N7y01sCZ"/>
      <point x="521" y="725" identifier="bSQZSo5q76"/>
      <point x="499" y="751" identifier="EPt8703zOL"/>
      <point x="439" y="751" type="curve" smooth="yes" identifier="dxqv8YmfCR"/>
      <point x="379" y="751" identifier="PB7tO98VqM"/>
      <point x="352" y="727" identifier="VechxwRPY5"/>
      <point x="345" y="685" type="curve" smooth="yes" identifier="ZE5YdtkjRo"/>
      <point x="341" y="661" identifier="P073NJN1gn"/>
      <point x="340" y="652" identifier="HqjBrMwA4w"/>
      <point x="340" y="645" type="curve" smooth="yes" identifier="YPlBQkoDRH"/>
      <point x="340" y="610" identifier="3kfu0Xrlud"/>
      <point x="362" y="584" identifier="TlUKsdHcFh"/>
    </contour>
  </outline>
</glyph>
<glyph name="k" format="2">
  <advance width="600"/>
  <unicode hex="006B"/>
  <anchor x="248.0" y="0.0" name="bottom"/>
  <outline>
    <contour>
      <point x="24" y="0" type="line" identifier="gps1GYNW7i"/>
      <point x="170" y="0" type="line" identifier="Pqq7XwaB8w"/>
      <point x="215" y="269" type="line" smooth="yes" identifier="DOo6mnuOQd"/>
      <point x="223" y="317" identifier="exbArD6KGv"/>
      <point x="241" y="346" identifier="burmzUx4wN"/>
      <point x="261" y="371" type="curve" smooth="yes" identifier="lAUrDb7eKp"/>
      <point x="291" y="409" identifier="eN6HqF7OBu"/>
      <point x="316" y="419" identifier="z3s08y5wug"/>
      <point x="341" y="419" type="curve" smooth="yes" identifier="gDXe1ii5VF"/>
      <point x="384" y="419" identifier="wxgll2neBZ"/>
      <point x="408" y="395" identifier="jBLteiNljA"/>
      <point x="408" y="361" type="curve" smooth="yes" identifier="8hv9Me8f5z"/>
      <point x="408" y="297" identifier="K9pZO9myq7"/>
      <point x="344" y="262" identifier="Yl7smYNUec"/>
      <point x="225" y="227" type="curve" identifier="TcnQIbR9CI"/>
      <point x="275" y="90" type="line" smooth="yes" identifier="pRmAMpnuey"/>
      <point x="298" y="26" identifier="aLEGWwWdNP"/>
      <point x="331" y="-12" identifier="wSFx3ND2GV"/>
      <point x="394" y="-12" type="curve" smooth="yes" identifier="Vp0CyE5jGh"/>
      <point x="447" y="-12" identifier="XgkvOGuMKz"/>
      <point x="491" y="14" identifier="A2JlG4XRRt"/>
      <point x="534" y="60" type="curve" smooth="yes" identifier="tPVXzpKLAw"/>
      <point x="586" y="116" type="line" identifier="Wo5HIyDji3"/>
      <point x="516" y="185" type="line" identifier="B7WuQgcxMX"/>
      <point x="434" y="105" type="line" identifier="z6uGdvqc1c"/>
      <point x="419" y="108" type="line" identifier="S0OlGEpEYY"/>
      <point x="377" y="218" type="line" identifier="wBWLJq9Mws"/>
      <point x="492" y="253" identifier="abcM0BoUBJ"/>
      <point x="554" y="311" identifier="gGyMEBcfOP"/>
      <point x="554" y="406" type="curve" smooth="yes" identifier="qmJn0wqNcx"/>
      <point x="554" y="474" identifier="tDMeFYUjBj"/>
      <point x="505" y="528" identifier="91iEhyDSkQ"/>
      <point x="420" y="528" type="curve" smooth="yes" identifier="Ljs4BdUXpF"/>
      <point x="332" y="528" identifier="0JkpViSLcB"/>
      <point x="277" y="470" identifier="IwGdKYE6ru"/>
      <point x="242" y="393" type="curve" identifier="orMwpzNpBZ"/>
      <point x="236" y="393" type="line" identifier="kbB0PhjgiN"/>
      <point x="293" y="740" type="line" identifier="L5vW25g8jl"/>
      <point x="147" y="740" type="line" identifier="evEjkjYnRm"/>
    </contour>
  </outline>
</glyph>
<glyph name="l" format="2">
  <advance width="600"/>
  <unicode hex="006C"/>
  <anchor x="270.0" y="0.0" name="bottom"/>
  <anchor x="326.0" y="698.0" name="top"/>
  <anchor x="470.0" y="740.0" name="topright"/>
  <outline>
    <contour>
      <point x="270" y="-12" type="curve" smooth="yes" identifier="LLOW7dhx52"/>
      <point x="339" y="-12" identifier="f6Y3yGw9hp"/>
      <point x="395" y="27" identifier="kN0jm4WjDG"/>
      <point x="462" y="103" type="curve" smooth="yes" identifier="U1xs5Dx7Qv"/>
      <point x="523" y="173" type="line" identifier="9OJwjEiA11"/>
      <point x="443" y="244" type="line" identifier="UWIhxgZmtS"/>
      <point x="303" y="101" type="line" identifier="5OMHY23Yf9"/>
      <point x="288" y="106" type="line" identifier="3RbxTi7Sdy"/>
      <point x="405" y="740" type="line" identifier="ox2p1lejUL"/>
      <point x="106" y="740" type="line" identifier="KdrJiX7zmP"/>
      <point x="87" y="626" type="line" identifier="2ayjTY5MRY"/>
      <point x="239" y="626" type="line" identifier="1SQ3TlRLaL"/>
      <point x="158" y="188" type="line" smooth="yes" identifier="N8Yj18lZi7"/>
      <point x="150" y="147" identifier="irfxZoYyHo"/>
      <point x="148" y="130" identifier="EX2BC7v0Xp"/>
      <point x="148" y="108" type="curve" smooth="yes" identifier="yb0J4otQgE"/>
      <point x="148" y="35" identifier="emRTAXzAYo"/>
      <point x="188" y="-12" identifier="bgXWJxYs5B"/>
    </contour>
  </outline>
</glyph>
<glyph name="m" format="2">
  <advance width="600"/>
  <unicode hex="006D"/>
  <anchor x="257.0" y="0.0" name="bottom"/>
  <anchor x="355.0" y="516.0" name="top"/>
  <outline>
    <contour>
      <point x="106" y="0" type="line" identifier="gqMinOMc6T"/>
      <point x="160" y="324" type="line" smooth="yes" identifier="M7HU2Dqefk"/>
      <point x="163" y="342" identifier="YhdQHE9bKq"/>
      <point x="170" y="366" identifier="PEv3NO8BPg"/>
      <point x="184" y="389" type="curve" smooth="yes" identifier="xaaZqksW6N"/>
      <point x="200" y="415" identifier="ypsfrszNf7"/>
      <point x="215" y="421" identifier="O7ef3YYGRT"/>
      <point x="230" y="421" type="curve" smooth="yes" identifier="S42guX24Fv"/>
      <point x="249" y="421" identifier="cFYQesDFhJ"/>
      <point x="259" y="408" identifier="eBsDTGl5QG"/>
      <point x="259" y="383" type="curve" smooth="yes" identifier="7wb1OdzGj7"/>
      <point x="259" y="369" identifier="MOF8RoMOm3"/>
      <point x="257" y="353" identifier="7sve2yBzJo"/>
      <point x="255" y="341" type="curve" smooth="yes" identifier="TmanGm6BzG"/>
      <point x="198" y="0" type="line" identifier="6Hwot6WarJ"/>
      <point x="316" y="0" type="line" identifier="Q2jxEtkh12"/>
      <point x="368" y="312" type="line" smooth="yes" identifier="ib2wDl7jn6"/>
      <point x="374" y="348" identifier="jKxVvXkZSj"/>
      <point x="381" y="369" identifier="4gr2lbG5mV"/>
      <point x="393" y="389" type="curve" smooth="yes" identifier="HcvYWOxM4j"/>
      <point x="408" y="414" identifier="80SLGRrbHb"/>
      <point x="423" y="421" identifier="vAdva0yF5K"/>
      <point x="440" y="421" type="curve" smooth="yes" identifier="si4qeHCldr"/>
      <point x="458" y="421" identifier="y0rtOc0e3E"/>
      <point x="469" y="406" identifier="VHRn2uwz0H"/>
      <point x="469" y="382" type="curve" smooth="yes" identifier="UHZG7SBZDT"/>
      <point x="469" y="369" identifier="KmUJ2dNrOV"/>
      <point x="467" y="353" identifier="bbRUXUzT7Z"/>
      <point x="465" y="341" type="curve" smooth="yes" identifier="lEwLDPT8t1"/>
      <point x="408" y="0" type="line" identifier="gXUAKI0i1D"/>
      <point x="526" y="0" type="line" identifier="nDsZteeuR5"/>
      <point x="585" y="356" type="line" smooth="yes" identifier="xmI9GYV9e3"/>
      <point x="589" y="380" identifier="wIbENnNIDk"/>
      <point x="592" y="409" identifier="QO3ClAkwQg"/>
      <point x="592" y="432" type="curve" smooth="yes" identifier="52H0uiK93q"/>
      <point x="592" y="495" identifier="3XOlCWaVpa"/>
      <point x="563" y="528" identifier="tEvlkMrPOJ"/>
      <point x="504" y="528" type="curve" smooth="yes" identifier="CEXBgJSK1j"/>
      <point x="441" y="528" identifier="phmlZrR5uC"/>
      <point x="405" y="484" identifier="tETaKTGFrc"/>
      <point x="380" y="426" type="curve" identifier="cr4Y2XbLjw"/>
      <point x="375" y="426" type="line" identifier="cgCCeLUMzk"/>
      <point x="382" y="494" identifier="IeyAPgbf7E"/>
      <point x="350" y="528" identifier="DTDfQG6eD2"/>
      <point x="297" y="528" type="curve" smooth="yes" identifier="qeD9Io94S4"/>
      <point x="243" y="528" identifier="NPP3xjodDV"/>
      <point x="206" y="486" identifier="q0QJbrpmXC"/>
      <point x="183" y="426" type="curve" identifier="ZeohqC8aRS"/>
      <point x="177" y="426" type="line" identifier="0Qm4Od2T3t"/>
      <point x="192" y="516" type="line" identifier="esPLa0UW1q"/>
      <point x="74" y="516" type="line" identifier="KuvON1fZdT"/>
      <point x="-12" y="0" type="line" identifier="nCYiB9fQlh"/>
    </contour>
  </outline>
</glyph>
<glyph name="n" format="2">
  <advance width="600"/>
  <unicode hex="006E"/>
  <anchor x="261.0" y="0.0" name="bottom"/>
  <anchor x="332.0" y="516.0" name="top"/>
  <outline>
    <contour>
      <point x="171" y="0" type="line" identifier="WXMsBxb6Wi"/>
      <point x="216" y="269" type="line" smooth="yes" identifier="gQQ7eFEIfS"/>
      <point x="223" y="311" identifier="GI3nW3pERv"/>
      <point x="248" y="349" identifier="SWb9Ewjnfn"/>
      <point x="263" y="369" type="curve" smooth="yes" identifier="hB4gDrKVYz"/>
      <point x="286" y="399" identifier="MKz45PxHYG"/>
      <point x="310" y="416" identifier="Ke2tGtHYFc"/>
      <point x="344" y="416" type="curve" smooth="yes" identifier="UZCKzkX0yI"/>
      <point x="389" y="416" identifier="UWAVcs6Gjw"/>
      <point x="404" y="382" identifier="gDSfLqH6oM"/>
      <point x="404" y="355" type="curve" smooth="yes" identifier="RNOKox6RhD"/>
      <point x="404" y="330" identifier="cnUDhvY4KF"/>
      <point x="400" y="311" identifier="Ot0lVdigvp"/>
      <point x="397" y="293" type="curve" smooth="yes" identifier="kdMJSfKHX7"/>
      <point x="348" y="0" type="line" identifier="QQlA65QQ2G"/>
      <point x="494" y="0" type="line" identifier="Ons2CxUQxG"/>
      <point x="540" y="275" type="line" smooth="yes" identifier="HgCSCWzb8h"/>
      <point x="548" y="323" identifier="oF6ACCmr78"/>
      <point x="551" y="350" identifier="dVurGzNmUV"/>
      <point x="551" y="379" type="curve" smooth="yes" identifier="k1oWanuv7E"/>
      <point x="551" y="459" identifier="0GvugYFs5z"/>
      <point x="511" y="528" identifier="7MI4FPF5jj"/>
      <point x="410" y="528" type="curve" smooth="yes" identifier="SKYFIPHmUc"/>
      <point x="328" y="528" identifier="WCl1uFbX1m"/>
      <point x="281" y="477" identifier="z8JhdblKE1"/>
      <point x="242" y="393" type="curve" identifier="oIDWT125Du"/>
      <point x="237" y="393" type="line" identifier="HCerGFAcAZ"/>
      <point x="257" y="516" type="line" identifier="WKfICxEaWF"/>
      <point x="111" y="516" type="line" identifier="g1ni1ye7Zi"/>
      <point x="25" y="0" type="line" identifier="BgMcSdOT9H"/>
    </contour>
  </outline>
</glyph>
<glyph name="o" format="2">
  <advance width="600"/>
  <unicode hex="006F"/>
  <anchor x="259.0" y="0.0" name="bottom"/>
  <anchor x="343.0" y="516.0" name="top"/>
  <outline>
    <contour>
      <point x="265" y="-12" type="curve" smooth="yes" identifier="3jUuzIh5gL"/>
      <point x="438" y="-12" identifier="UCmWclo0us"/>
      <point x="557" y="109" identifier="ETwy4uktTy"/>
      <point x="557" y="306" type="curve" smooth="yes" identifier="sFndtHVZ6g"/>
      <point x="557" y="442" identifier="3OypG7v5dG"/>
      <point x="475" y="528" identifier="DtIxkx8CVS"/>
      <point x="335" y="528" type="curve" smooth="yes" identifier="zcwoSaskr3"/>
      <point x="162" y="528" identifier="fYTYUxty5D"/>
      <point x="43" y="407" identifier="q4tPeiKQpf"/>
      <point x="43" y="210" type="curve" smooth="yes" identifier="LQ3sOXBsPp"/>
      <point x="43" y="74" identifier="0bNQQXCDUf"/>
      <point x="125" y="-12" identifier="PubNycniah"/>
    </contour>
    <contour>
      <point x="276" y="97" type="curve" smooth="yes" identifier="hmbcrEYbtI"/>
      <point x="222" y="97" identifier="EKYwLvgFOt"/>
      <point x="188" y="127" identifier="99KUUzFbU9"/>
      <point x="188" y="188" type="curve" smooth="yes" identifier="v18XAzjzS1"/>
      <point x="188" y="200" identifier="v3BX61pCws"/>
      <point x="191" y="217" identifier="UbBWxZU8Y3"/>
      <point x="193" y="229" type="curve" smooth="yes" identifier="6h9chnLSKK"/>
      <point x="206" y="307" type="line" smooth="yes" identifier="MLsYJOtoci"/>
      <point x="218" y="379" identifier="QAwO9uX0yQ"/>
      <point x="260" y="419" identifier="q1DzFdSz1Q"/>
      <point x="324" y="419" type="curve" smooth="yes" identifier="TAoR59LV8c"/>
      <point x="378" y="419" identifier="I1zMTrIdsV"/>
      <point x="412" y="389" identifier="CQNe8S581J"/>
      <point x="412" y="328" type="curve" smooth="yes" identifier="ZpmnQ9GBXQ"/>
      <point x="412" y="316" identifier="GS3rLICCSf"/>
      <point x="409" y="299" identifier="C2OpUz65c3"/>
      <point x="407" y="287" type="curve" smooth="yes" identifier="ocXq0TcxSK"/>
      <point x="394" y="209" type="line" smooth="yes" identifier="nRVjSze4De"/>
      <point x="382" y="137" identifier="T5thlI6nw0"/>
      <point x="340" y="97" identifier="VOTPBFjou2"/>
    </contour>
  </outline>
</glyph>
<glyph name="p" format="2">
  <advance width="600"/>
  <unicode hex="0070"/>
  <anchor x="403.0" y="516.0" name="top"/>
  <outline>
    <contour>
      <point x="-13" y="-200" type="line" identifier="f30H87n4RZ"/>
      <point x="133" y="-200" type="line" identifier="7tOu73xikb"/>
      <point x="183" y="96" type="line" identifier="SlVJzlVfws"/>
      <point x="190" y="96" type="line" identifier="6Brzk0OapY"/>
      <point x="205" y="28" identifier="ZSU1pTP6k1"/>
      <point x="244" y="-12" identifier="CfghYjUiCT"/>
      <point x="325" y="-12" type="curve" smooth="yes" identifier="AOX44WkGSt"/>
      <point x="468" y="-12" identifier="3q4eP4CzUD"/>
      <point x="562" y="123" identifier="Yx9aZNFrvN"/>
      <point x="562" y="328" type="curve" smooth="yes" identifier="5oYIIFbR3e"/>
      <point x="562" y="449" identifier="b4q13pVXeu"/>
      <point x="520" y="528" identifier="0cErnIlKTr"/>
      <point x="411" y="528" type="curve" smooth="yes" identifier="kqgrsXfHWx"/>
      <point x="323" y="528" identifier="RRqo1TF6Qs"/>
      <point x="277" y="472" identifier="7tu22EhIB5"/>
      <point x="238" y="393" type="curve" identifier="fkaNJeELbw"/>
      <point x="233" y="393" type="line" identifier="LDDCz3w3pv"/>
      <point x="253" y="516" type="line" identifier="CmR682v2yA"/>
      <point x="107" y="516" type="line" identifier="KSxQMeobdI"/>
    </contour>
    <contour>
      <point x="278" y="101" type="curve" smooth="yes" identifier="kQ7OKuOmkz"/>
      <point x="215" y="101" identifier="cdBvbSAjx3"/>
      <point x="189" y="132" identifier="nDswEo75bU"/>
      <point x="198" y="186" type="curve" identifier="cRfjPOev8I"/>
      <point x="212" y="269" type="line" identifier="7l0628Wn0e"/>
      <point x="219" y="312" identifier="h9bPo7Kg1s"/>
      <point x="243" y="347" identifier="K1UID6P9BR"/>
      <point x="259" y="366" type="curve" smooth="yes" identifier="sPJmHySGyP"/>
      <point x="283" y="396" identifier="ROcmUMy13X"/>
      <point x="310" y="415" identifier="41sAD8FPzE"/>
      <point x="346" y="415" type="curve" smooth="yes" identifier="FLr5KoM9BJ"/>
      <point x="396" y="415" identifier="kacmS1OYfC"/>
      <point x="413" y="377" identifier="rRyZyP9R3c"/>
      <point x="414" y="328" type="curve" smooth="yes" identifier="wSF1XPmFo1"/>
      <point x="414" y="311" identifier="udujk7f5rs"/>
      <point x="412" y="295" identifier="UussQqxpYc"/>
      <point x="410" y="283" type="curve" smooth="yes" identifier="In6DKnOpSb"/>
      <point x="400" y="223" type="line" smooth="yes" identifier="DlC1Vrfeki"/>
      <point x="387" y="145" identifier="CsnyTmZ7CE"/>
      <point x="350" y="101" identifier="37PeBk0fz5"/>
    </contour>
  </outline>
</glyph>
<glyph name="q" format="2">
  <advance width="600"/>
  <unicode hex="0071"/>
  <anchor x="282.0" y="516.0" name="top"/>
  <outline>
    <contour>
      <point x="314" y="-200" type="line" identifier="AYkMTaotyN"/>
      <point x="460" y="-200" type="line" identifier="e0TLhiugeJ"/>
      <point x="579" y="516" type="line" identifier="b4m8GmT0wD"/>
      <point x="433" y="516" type="line" identifier="3AAGPw4Fc4"/>
      <point x="417" y="420" type="line" identifier="shuA9nWGHr"/>
      <point x="410" y="420" type="line" identifier="wYKGhZDost"/>
      <point x="395" y="488" identifier="EXu9X7POjl"/>
      <point x="356" y="528" identifier="9OTq0BF6Qh"/>
      <point x="275" y="528" type="curve" smooth="yes" identifier="iD6jcjyOCY"/>
      <point x="132" y="528" identifier="zOGmHqhrih"/>
      <point x="38" y="393" identifier="ERjbM3GYrK"/>
      <point x="38" y="188" type="curve" smooth="yes" identifier="0PeuNgQx8x"/>
      <point x="38" y="67" identifier="xaJiAFBP86"/>
      <point x="80" y="-12" identifier="wvNMLXQowN"/>
      <point x="189" y="-12" type="curve" smooth="yes" identifier="T9CF7OLPOz"/>
      <point x="277" y="-12" identifier="aAF4mIC95N"/>
      <point x="323" y="44" identifier="Nppdu4P74H"/>
      <point x="362" y="123" type="curve" identifier="OOeACgou0v"/>
      <point x="367" y="123" type="line" identifier="1ix7ohsoWu"/>
    </contour>
    <contour>
      <point x="254" y="101" type="curve" smooth="yes" identifier="7AKulJ9Plx"/>
      <point x="204" y="101" identifier="Jojq81TUlw"/>
      <point x="187" y="139" identifier="86z1nWY9ZL"/>
      <point x="186" y="188" type="curve" smooth="yes" identifier="Zyim32PLY1"/>
      <point x="186" y="205" identifier="HedetPUlc8"/>
      <point x="188" y="221" identifier="TwDBJy2BZB"/>
      <point x="190" y="233" type="curve" smooth="yes" identifier="fNhgb1WC05"/>
      <point x="200" y="293" type="line" smooth="yes" identifier="ZuqIgqpRnZ"/>
      <point x="213" y="371" identifier="ylkap8MI32"/>
      <point x="250" y="415" identifier="5wWRwpuett"/>
      <point x="322" y="415" type="curve" smooth="yes" identifier="et0YwYPPde"/>
      <point x="385" y="415" identifier="bFNsjbAAic"/>
      <point x="411" y="384" identifier="QE2yIiJtGb"/>
      <point x="402" y="330" type="curve" identifier="6zXMD9EQxf"/>
      <point x="388" y="247" type="line" identifier="nK2M1VAaTz"/>
      <point x="381" y="204" identifier="eNih4HL564"/>
      <point x="357" y="169" identifier="MTHVcfNrYO"/>
      <point x="341" y="150" type="curve" smooth="yes" identifier="bu2JmS4q0v"/>
      <point x="317" y="120" identifier="HiX96Zuu7y"/>
      <point x="290" y="101" identifier="D143WMAjlp"/>
    </contour>
  </outline>
</glyph>
<glyph name="r" format="2">
  <advance width="600"/>
  <unicode hex="0072"/>
  <anchor x="217.0" y="0.0" name="bottom"/>
  <anchor x="356.0" y="516.0" name="top"/>
  <outline>
    <contour>
      <point x="292" y="0" type="line" identifier="13DbSSPlGU"/>
      <point x="331" y="236" type="line" smooth="yes" identifier="fUK1kWCvrO"/>
      <point x="337" y="272" identifier="n0iAocqZE5"/>
      <point x="359" y="309" identifier="X74KVkmw0y"/>
      <point x="372" y="325" type="curve" smooth="yes" identifier="QaEvDpKvft"/>
      <point x="396" y="355" identifier="MjbFUtXsy2"/>
      <point x="426" y="370" identifier="rnrH61rkTT"/>
      <point x="480" y="370" type="curve" smooth="yes" identifier="UaR7MxNMlO"/>
      <point x="571" y="370" type="line" identifier="PmvWj4Nl1M"/>
      <point x="597" y="516" type="line" identifier="9TuNvrVCQE"/>
      <point x="563" y="516" type="line" smooth="yes" identifier="UqCg3cZ0rR"/>
      <point x="462" y="516" identifier="O9SqB7ietH"/>
      <point x="400" y="458" identifier="y7tIV1MLVI"/>
      <point x="357" y="360" type="curve" identifier="K82Wla4nvd"/>
      <point x="351" y="360" type="line" identifier="KwAnguahuw"/>
      <point x="378" y="516" type="line" identifier="XIb5V5sPw4"/>
      <point x="114" y="516" type="line" identifier="poKAop55Cm"/>
      <point x="95" y="402" type="line" identifier="Ue6tfvSVGj"/>
      <point x="213" y="402" type="line" identifier="aIU1OSjG78"/>
      <point x="146" y="0" type="line" identifier="bgdrjAZd52"/>
    </contour>
  </outline>
</glyph>
<glyph name="s" format="2">
  <advance width="600"/>
  <unicode hex="0073"/>
  <anchor x="263.0" y="0.0" name="bottom"/>
  <anchor x="335.0" y="516.0" name="top"/>
  <outline>
    <contour>
      <point x="258" y="-12" type="curve" smooth="yes" identifier="7krx2PEtmp"/>
      <point x="412" y="-12" identifier="Dj471f3608"/>
      <point x="511" y="56" identifier="RusuJN2JpH"/>
      <point x="511" y="170" type="curve" smooth="yes" identifier="7MpiH3arKE"/>
      <point x="511" y="254" identifier="BwBaO6hhcB"/>
      <point x="458" y="290" identifier="jmrPj1xH3Y"/>
      <point x="372" y="309" type="curve" smooth="yes" identifier="GnHcEWQHy5"/>
      <point x="295" y="326" type="line" smooth="yes" identifier="2pKnxWZOAF"/>
      <point x="263" y="333" identifier="uzrePG0maB"/>
      <point x="244" y="341" identifier="pMfiuYuWLC"/>
      <point x="244" y="369" type="curve" smooth="yes" identifier="EzyknBx6ur"/>
      <point x="244" y="406" identifier="SyIZ9dhPK0"/>
      <point x="278" y="425" identifier="lvtSMQMFGl"/>
      <point x="330" y="425" type="curve" smooth="yes" identifier="kJ6Yqn8KPe"/>
      <point x="388" y="425" identifier="FxefdMYFvB"/>
      <point x="436" y="402" identifier="6SUuhJIiCF"/>
      <point x="459" y="373" type="curve" identifier="mCoxMg0PZT"/>
      <point x="539" y="455" type="line" identifier="5FRv8IrcRJ"/>
      <point x="504" y="500" identifier="JLFSMQ7m0j"/>
      <point x="426" y="528" identifier="i5gDXFRD9c"/>
      <point x="334" y="528" type="curve" identifier="gdrTw7VRAz"/>
      <point x="200" y="528" identifier="hRMZOQQLHa"/>
      <point x="100" y="466" identifier="U3l2Zphcuc"/>
      <point x="100" y="350" type="curve" smooth="yes" identifier="5fsKj59Kbj"/>
      <point x="100" y="259" identifier="VFib07wWyo"/>
      <point x="161" y="226" identifier="eRPPKEPLKt"/>
      <point x="239" y="209" type="curve" smooth="yes" identifier="Y28RAzoTsS"/>
      <point x="313" y="193" type="line" smooth="yes" identifier="p4uf4YC1Cm"/>
      <point x="344" y="186" identifier="H8WooIsTuS"/>
      <point x="366" y="176" identifier="fUAPb91ufP"/>
      <point x="366" y="148" type="curve" smooth="yes" identifier="HhiBJgubOE"/>
      <point x="366" y="111" identifier="K4RIXvO8Iq"/>
      <point x="328" y="91" identifier="PazvdgsCaj"/>
      <point x="268" y="91" type="curve" smooth="yes" identifier="03s9LxY2n6"/>
      <point x="207" y="91" identifier="TzSsTWvgOu"/>
      <point x="152" y="112" identifier="n5O5pDVLyb"/>
      <point x="123" y="153" type="curve" identifier="zVb1bfXvU3"/>
      <point x="41" y="72" type="line" identifier="v63bGyC0oU"/>
      <point x="76" y="18" identifier="n7GUNQTBmi"/>
      <point x="155" y="-12" identifier="8yjpdjlINi"/>
    </contour>
  </outline>
</glyph>
<glyph name="t" format="2">
  <advance width="600"/>
  <unicode hex="0074"/>
  <anchor x="281.0" y="0.0" name="bottom"/>
  <anchor x="466.0" y="780.0" name="topright"/>
  <outline>
    <contour>
      <point x="278" y="-12" type="curve" smooth="yes" identifier="sLIhTxh1zR"/>
      <point x="349" y="-12" identifier="HYsX3p64KF"/>
      <point x="397" y="23" identifier="iMn398Igiv"/>
      <point x="482" y="96" type="curve" smooth="yes" identifier="GzcwCfgTco"/>
      <point x="542" y="148" type="line" identifier="cEaAkGs6QC"/>
      <point x="470" y="230" type="line" identifier="kyYUJf1GYW"/>
      <point x="314" y="107" type="line" identifier="UszM9PTRwB"/>
      <point x="294" y="114" type="line" identifier="x6vSqOBiYi"/>
      <point x="342" y="402" type="line" identifier="uL7P8x9Csf"/>
      <point x="544" y="402" type="line" identifier="a4CGncdfSP"/>
      <point x="563" y="516" type="line" identifier="HPn1uO4nQI"/>
      <point x="361" y="516" type="line" identifier="quIy5sXPB6"/>
      <point x="391" y="698" type="line" identifier="6tbYqMhPG2"/>
      <point x="255" y="698" type="line" identifier="c7NzTUJ6Aw"/>
      <point x="235" y="576" type="line" smooth="yes" identifier="odUwQ7skZs"/>
      <point x="228" y="531" identifier="0Xmy86ueXK"/>
      <point x="208" y="516" identifier="ScYlXZ6OTh"/>
      <point x="165" y="516" type="curve" smooth="yes" identifier="M080Lh2eeG"/>
      <point x="82" y="516" type="line" identifier="sCunZ1NIX0"/>
      <point x="63" y="402" type="line" identifier="JTUraKE2OY"/>
      <point x="195" y="402" type="line" identifier="YamXq484Fl"/>
      <point x="158" y="182" type="line" smooth="yes" identifier="NrWbuVu41M"/>
      <point x="153" y="152" identifier="hmOjgjHi4Q"/>
      <point x="151" y="134" identifier="mGtdQiwEQ4"/>
      <point x="151" y="116" type="curve" smooth="yes" identifier="mraa6yWdmY"/>
      <point x="151" y="39" identifier="y2GklTaRJc"/>
      <point x="190" y="-12" identifier="s5WIZMHQ9a"/>
    </contour>
  </outline>
</glyph>
<glyph name="u" format="2">
  <advance width="600"/>
  <unicode hex="0075"/>
  <anchor x="267.0" y="0.0" name="bottom"/>
  <anchor x="488.0" y="0.0" name="bottomright"/>
  <anchor x="338.0" y="516.0" name="top"/>
  <outline>
    <contour>
      <point x="342" y="0" type="line" identifier="OkJogFYbjB"/>
      <point x="488" y="0" type="line" identifier="keEIRrZod7"/>
      <point x="574" y="516" type="line" identifier="WHIty8b0XL"/>
      <point x="428" y="516" type="line" identifier="xxNGw3hDYG"/>
      <point x="383" y="247" type="line" smooth="yes" identifier="1vZyVucjKp"/>
      <point x="376" y="205" identifier="4ipZID6fuk"/>
      <point x="351" y="167" identifier="iPRPeMxW46"/>
      <point x="336" y="147" type="curve" smooth="yes" identifier="lPRGaCsY69"/>
      <point x="313" y="117" identifier="ABYyMg62dv"/>
      <point x="289" y="100" identifier="vkazZrqZkD"/>
      <point x="255" y="100" type="curve" smooth="yes" identifier="QMnGtMSTyQ"/>
      <point x="210" y="100" identifier="j0dQS50NmB"/>
      <point x="195" y="134" identifier="1fL3w3AYLK"/>
      <point x="195" y="161" type="curve" smooth="yes" identifier="2sDSTTh8AB"/>
      <point x="195" y="186" identifier="SwBf6wpj56"/>
      <point x="199" y="206" identifier="mYtHOPWzsO"/>
      <point x="202" y="224" type="curve" smooth="yes" identifier="hFe6xwslc2"/>
      <point x="251" y="516" type="line" identifier="FOjnqoRxf1"/>
      <point x="105" y="516" type="line" identifier="1OSra8sVjA"/>
      <point x="59" y="241" type="line" smooth="yes" identifier="bmJHx3lxGg"/>
      <point x="51" y="193" identifier="1g8NhsaEH8"/>
      <point x="48" y="166" identifier="PqFboz0fhg"/>
      <point x="48" y="137" type="curve" smooth="yes" identifier="GJCo5YuyfC"/>
      <point x="48" y="57" identifier="OHv3MQeX6G"/>
      <point x="88" y="-12" identifier="BeAsOjZcKD"/>
      <point x="189" y="-12" type="curve" smooth="yes" identifier="2fUkI6khIT"/>
      <point x="271" y="-12" identifier="cA0AxqjtYy"/>
      <point x="318" y="39" identifier="u9iLuOr8HK"/>
      <point x="357" y="123" type="curve" identifier="UwYPi3SIyN"/>
      <point x="362" y="123" type="line" identifier="PUzGuMVByk"/>
    </contour>
  </outline>
</glyph>
<glyph name="v" format="2">
  <advance width="600"/>
  <unicode hex="0076"/>
  <anchor x="238.0" y="0.0" name="bottom"/>
  <anchor x="339.0" y="516.0" name="top"/>
  <outline>
    <contour>
      <point x="55" y="516" type="line" identifier="Yz5P4NdHfz"/>
      <point x="36" y="402" type="line" identifier="lkOf9ZoORr"/>
      <point x="125" y="402" type="line" identifier="HdoaAPrnm0"/>
      <point x="90" y="172" type="line" smooth="yes" identifier="FqCMHJ4AMe"/>
      <point x="86" y="147" identifier="z683Q0UlAM"/>
      <point x="84" y="133" identifier="wKtPPexZKP"/>
      <point x="84" y="111" type="curve" smooth="yes" identifier="7Jmi9tdWm3"/>
      <point x="84" y="36" identifier="oKhr8kATH9"/>
      <point x="126" y="-12" identifier="GcIrZP1CPp"/>
      <point x="211" y="-12" type="curve" smooth="yes" identifier="mekJucdQgl"/>
      <point x="385" y="-12" identifier="l4vEKKLfSW"/>
      <point x="553" y="146" identifier="dPuSk0uEIp"/>
      <point x="553" y="350" type="curve" smooth="yes" identifier="twxWYvEFO5"/>
      <point x="553" y="423" identifier="PSpAhpmtmd"/>
      <point x="536" y="486" identifier="kDROWOPxok"/>
      <point x="502" y="528" type="curve" identifier="y6zZkIkjnQ"/>
      <point x="372" y="480" type="line" identifier="Ii831blEgL"/>
      <point x="393" y="441" identifier="ssFhJVk5nf"/>
      <point x="406" y="395" identifier="fUKfz4qcmC"/>
      <point x="406" y="350" type="curve" smooth="yes" identifier="oOg5uyd2Mt"/>
      <point x="406" y="242" identifier="gw3RWmsNXX"/>
      <point x="360" y="133" identifier="5ioTddwe6B"/>
      <point x="233" y="88" type="curve" identifier="rQqoAm55Uh"/>
      <point x="221" y="96" type="line" identifier="e7xmVr7ntB"/>
      <point x="286" y="516" type="line" identifier="gTQqMREean"/>
    </contour>
  </outline>
</glyph>
<glyph name="w" format="2">
  <advance width="600"/>
  <unicode hex="0077"/>
  <anchor x="225.0" y="0.0" name="bottom"/>
  <anchor x="336.0" y="516.0" name="top"/>
  <outline>
    <contour>
      <point x="108" y="-12" type="curve" smooth="yes" identifier="nLVEGfuQdo"/>
      <point x="167" y="-12" identifier="w6zlixFUCa"/>
      <point x="211" y="25" identifier="Uska9jMlbh"/>
      <point x="235" y="98" type="curve" identifier="fRULBnIzGk"/>
      <point x="242" y="98" type="line" identifier="9KHD0Fh3RE"/>
      <point x="239" y="39" identifier="9fXsffhtyx"/>
      <point x="265" y="-12" identifier="UIrwwQjqrG"/>
      <point x="337" y="-12" type="curve" smooth="yes" identifier="sK5tiPP1Ra"/>
      <point x="392" y="-12" identifier="OcmDyjW8El"/>
      <point x="448" y="18" identifier="6jxvG3DrnW"/>
      <point x="491" y="72" type="curve" smooth="yes" identifier="QSvc0we9BF"/>
      <point x="545" y="140" identifier="vPmqEpvhcs"/>
      <point x="579" y="246" identifier="XV8yiSVZta"/>
      <point x="579" y="365" type="curve" smooth="yes" identifier="DdPuPC4F1Y"/>
      <point x="579" y="433" identifier="O82iotBEX4"/>
      <point x="565" y="487" identifier="2Q78gfgVIg"/>
      <point x="545" y="524" type="curve" identifier="bAhMnRR9Hc"/>
      <point x="443" y="494" type="line" identifier="VamXhwMuDr"/>
      <point x="455" y="461" identifier="OUGR58pP7L"/>
      <point x="461" y="413" identifier="cRQmMXf0z5"/>
      <point x="461" y="366" type="curve" smooth="yes" identifier="GKzkhAI9I4"/>
      <point x="461" y="229" identifier="7eIoxSfcJl"/>
      <point x="412" y="103" identifier="985dMVbUqC"/>
      <point x="363" y="103" type="curve" smooth="yes" identifier="0YWlmnlTMP"/>
      <point x="341" y="103" identifier="S5UYNxyAHK"/>
      <point x="333" y="120" identifier="Gjqdw45kZb"/>
      <point x="333" y="139" type="curve" smooth="yes" identifier="fx99OqN1eg"/>
      <point x="333" y="148" identifier="JSSpy0U6oW"/>
      <point x="336" y="171" identifier="pxmoNyDSIA"/>
      <point x="338" y="182" type="curve" smooth="yes" identifier="yLQSfBDBqW"/>
      <point x="392" y="516" type="line" identifier="D51PjK9Gaz"/>
      <point x="279" y="516" type="line" identifier="1viNKMNDWz"/>
      <point x="231" y="206" type="line" smooth="yes" identifier="0CINbr0Xzd"/>
      <point x="228" y="183" identifier="L7vk2FkgIM"/>
      <point x="220" y="160" identifier="C4EK4NJMc4"/>
      <point x="211" y="146" type="curve" smooth="yes" identifier="EjwE9k0A9F"/>
      <point x="196" y="122" identifier="rtCm1fGfLD"/>
      <point x="180" y="107" identifier="0gSPi4Xkgb"/>
      <point x="160" y="107" type="curve" smooth="yes" identifier="pWHy2gIDx0"/>
      <point x="138" y="107" identifier="EaD18Awl6S"/>
      <point x="129" y="121" identifier="1IayJTtSni"/>
      <point x="129" y="142" type="curve" smooth="yes" identifier="Q95noi7Vbx"/>
      <point x="129" y="154" identifier="S25cOtCn5B"/>
      <point x="131" y="176" identifier="kM3Y2cx7xq"/>
      <point x="133" y="187" type="curve" smooth="yes" identifier="LsvqU6jIkB"/>
      <point x="194" y="516" type="line" identifier="hxxjbnlUFd"/>
      <point x="76" y="516" type="line" identifier="bGYMxNUhV5"/>
      <point x="22" y="192" type="line" smooth="yes" identifier="JMUGPqjAew"/>
      <point x="17" y="160" identifier="hOwsfFdMeD"/>
      <point x="13" y="115" identifier="6Oji9ousK7"/>
      <point x="13" y="97" type="curve" smooth="yes" identifier="07JYsFjvp9"/>
      <point x="13" y="32" identifier="iOKbNaYrNd"/>
      <point x="42" y="-12" identifier="mzCHVjji2D"/>
    </contour>
  </outline>
</glyph>
<glyph name="x" format="2">
  <advance width="600"/>
  <unicode hex="0078"/>
  <anchor x="240.0" y="0.0" name="bottom"/>
  <anchor x="353.0" y="516.0" name="top"/>
  <outline>
    <contour>
      <point x="106" y="-12" type="curve" smooth="yes" identifier="FD6WpZmEDs"/>
      <point x="172" y="-12" identifier="dzoakJogpZ"/>
      <point x="218" y="30" identifier="orOuOhHiwF"/>
      <point x="246" y="139" type="curve" identifier="AwHpftFpoL"/>
      <point x="253" y="139" type="line" identifier="GzI5VrlpRM"/>
      <point x="253" y="33" identifier="FPOOpUxXU2"/>
      <point x="295" y="-12" identifier="sCS3uEKoS6"/>
      <point x="359" y="-12" type="curve" smooth="yes" identifier="UqrWXvXhCe"/>
      <point x="408" y="-12" identifier="spcuXLWLSn"/>
      <point x="461" y="11" identifier="Ls8l0o9PH0"/>
      <point x="522" y="65" type="curve" smooth="yes" identifier="L7ap7aRpdR"/>
      <point x="573" y="110" type="line" identifier="XM9lhS7CeQ"/>
      <point x="512" y="187" type="line" identifier="jnP5K1j6j7"/>
      <point x="378" y="94" type="line" identifier="J6OHcKZbte"/>
      <point x="366" y="100" type="line" identifier="z4qqzcHLrj"/>
      <point x="365" y="115" identifier="hgphYAKULY"/>
      <point x="364" y="131" identifier="xuOAPUrwio"/>
      <point x="364" y="149" type="curve" smooth="yes" identifier="4BlAvTRPLL"/>
      <point x="364" y="250" identifier="8iKwlS2MYD"/>
      <point x="383" y="422" identifier="7kb8zJi1DP"/>
      <point x="451" y="422" type="curve" smooth="yes" identifier="sjrW5CJURM"/>
      <point x="478" y="422" identifier="Kf7dRBsVay"/>
      <point x="488" y="396" identifier="ZeZtm9Ucpj"/>
      <point x="488" y="345" type="curve" smooth="yes" identifier="Qocv9XGORS"/>
      <point x="488" y="329" type="line" identifier="mM4lIYUcSw"/>
      <point x="604" y="343" type="line" identifier="j9QsGDemIG"/>
      <point x="605" y="354" identifier="YgTBa1Z3mM"/>
      <point x="605" y="370" identifier="WYZFEOWBTZ"/>
      <point x="605" y="390" type="curve" smooth="yes" identifier="9dR6nHbAyx"/>
      <point x="605" y="472" identifier="PdaOEa89YT"/>
      <point x="562" y="528" identifier="Um0TG1WSYf"/>
      <point x="497" y="528" type="curve" smooth="yes" identifier="pXw111hQM4"/>
      <point x="432" y="528" identifier="vdyTNaHM4V"/>
      <point x="389" y="485" identifier="I6JOqUc3dE"/>
      <point x="360" y="375" type="curve" identifier="N4S1relTi7"/>
      <point x="353" y="375" type="line" identifier="IIItS2bnWp"/>
      <point x="353" y="380" identifier="ew0LzHP1IQ"/>
      <point x="353" y="385" identifier="81oKsDjdhr"/>
      <point x="353" y="390" type="curve" smooth="yes" identifier="zANKP2RkwB"/>
      <point x="353" y="478" identifier="msy1o4P3Pk"/>
      <point x="319" y="528" identifier="Vozk9oga1o"/>
      <point x="247" y="528" type="curve" smooth="yes" identifier="mKznF2va2O"/>
      <point x="198" y="528" identifier="bqcAVMsRzi"/>
      <point x="155" y="503" identifier="4qZ7CbZynF"/>
      <point x="104" y="465" type="curve" smooth="yes" identifier="4XMOrN9kzh"/>
      <point x="33" y="412" type="line" identifier="aS1ufTog95"/>
      <point x="94" y="331" type="line" identifier="KHyWDK4GNr"/>
      <point x="225" y="422" type="line" identifier="mFPTZKA8Wx"/>
      <point x="237" y="417" type="line" identifier="BVywJutLFr"/>
      <point x="238" y="403" identifier="suvtzfQvDK"/>
      <point x="239" y="389" identifier="2J72VrGEAu"/>
      <point x="239" y="373" type="curve" smooth="yes" identifier="tBVGYBkrn9"/>
      <point x="239" y="282" identifier="Y22dq2dOf6"/>
      <point x="217" y="94" identifier="RZBxYdwpHD"/>
      <point x="150" y="94" type="curve" smooth="yes" identifier="dk7cyyLa7N"/>
      <point x="122" y="94" identifier="AK8c7GODvc"/>
      <point x="114" y="119" identifier="4xMjp9HFOC"/>
      <point x="114" y="176" type="curve" smooth="yes" identifier="XBPHxi6YtF"/>
      <point x="114" y="187" type="line" identifier="34T9mymaQZ"/>
      <point x="-2" y="173" type="line" identifier="BUO7wePaxQ"/>
      <point x="-3" y="161" identifier="ESjzfUuJen"/>
      <point x="-4" y="153" identifier="p4MUjHsl5G"/>
      <point x="-4" y="129" type="curve" smooth="yes" identifier="HRBTIOPE1u"/>
      <point x="-4" y="37" identifier="r5aVeRbPwq"/>
      <point x="39" y="-12" identifier="DXjGiBDrwD"/>
    </contour>
  </outline>
</glyph>
<glyph name="y" format="2">
  <advance width="600"/>
  <unicode hex="0079"/>
  <anchor x="512.0" y="0.0" name="bottom"/>
  <anchor x="349.0" y="516.0" name="top"/>
  <outline>
    <contour>
      <point x="217" y="-212" type="curve" smooth="yes" identifier="OEXqaVndGP"/>
      <point x="370" y="-212" identifier="RBKl0b3sNV"/>
      <point x="466" y="-131" identifier="Gwv1l0LN7C"/>
      <point x="494" y="36" type="curve" smooth="yes" identifier="naIdhKy1w7"/>
      <point x="574" y="516" type="line" identifier="hIH9it7NA3"/>
      <point x="428" y="516" type="line" identifier="boQUYtORwp"/>
      <point x="386" y="264" type="line" smooth="yes" identifier="05u3JPW8d6"/>
      <point x="379" y="222" identifier="vU9ebjDCQn"/>
      <point x="354" y="184" identifier="OZXhfZm2kn"/>
      <point x="339" y="164" type="curve" smooth="yes" identifier="tsgfy5kIqL"/>
      <point x="316" y="134" identifier="Jc3KrOFzuP"/>
      <point x="292" y="117" identifier="l3lCKz93FL"/>
      <point x="258" y="117" type="curve" smooth="yes" identifier="CB3uiwg0qB"/>
      <point x="213" y="117" identifier="wNPjb5hsP4"/>
      <point x="198" y="151" identifier="sJ35o9Neu2"/>
      <point x="198" y="178" type="curve" smooth="yes" identifier="iwxzW9USs8"/>
      <point x="198" y="203" identifier="PtjIvKNDHQ"/>
      <point x="202" y="223" identifier="kHq0jUeQ1d"/>
      <point x="205" y="241" type="curve" smooth="yes" identifier="Ew9beej864"/>
      <point x="251" y="516" type="line" identifier="JSpq1Rj3d9"/>
      <point x="105" y="516" type="line" identifier="bS8QbEF6BC"/>
      <point x="62" y="258" type="line" smooth="yes" identifier="HxAiAovvXa"/>
      <point x="54" y="210" identifier="HrKuD2KaxC"/>
      <point x="51" y="183" identifier="odixdyy5q5"/>
      <point x="51" y="154" type="curve" smooth="yes" identifier="ebjFtIFopN"/>
      <point x="51" y="74" identifier="1lmFDUhi1U"/>
      <point x="91" y="5" identifier="ytG88sHvYy"/>
      <point x="192" y="5" type="curve" smooth="yes" identifier="F4YKKzz2Zz"/>
      <point x="274" y="5" identifier="b3AMx6UGno"/>
      <point x="321" y="56" identifier="KsQvf7IZTi"/>
      <point x="360" y="140" type="curve" identifier="1YfA41jSDg"/>
      <point x="365" y="140" type="line" identifier="erAJN5Ulgv"/>
      <point x="351" y="54" type="line" smooth="yes" identifier="X3PkmHmjWE"/>
      <point x="331" y="-71" identifier="RmUtweHtWA"/>
      <point x="287" y="-99" identifier="YiJKKW3zXY"/>
      <point x="213" y="-99" type="curve" smooth="yes" identifier="11KXKQraY1"/>
      <point x="167" y="-99" identifier="593Ic7mmd9"/>
      <point x="125" y="-85" identifier="IB3mWcD8b4"/>
      <point x="93" y="-46" type="curve" identifier="HaaFNLGFRR"/>
      <point x="6" y="-136" type="line" identifier="0FFw8SIdrO"/>
      <point x="58" y="-197" identifier="eRYNJkh13J"/>
      <point x="121" y="-212" identifier="A0iFza6j5w"/>
    </contour>
  </outline>
</glyph>
<glyph name="z" format="2">
  <advance width="600"/>
  <unicode hex="007A"/>
  <anchor x="287.0" y="0.0" name="bottom"/>
  <anchor x="320.0" y="516.0" name="top"/>
  <outline>
    <contour>
      <point x="414" y="-12" type="curve" smooth="yes" identifier="U7BjdZqK1K"/>
      <point x="495" y="-12" identifier="Ig0JpnkRUs"/>
      <point x="544" y="49" identifier="xjxuZ4HR4T"/>
      <point x="544" y="114" type="curve" smooth="yes" identifier="LzZNoFKP5c"/>
      <point x="544" y="144" identifier="FmadHNJlfW"/>
      <point x="536" y="173" identifier="ufBBZ2llZ0"/>
      <point x="514" y="212" type="curve" smooth="yes" identifier="Qcld57dUya"/>
      <point x="499" y="239" type="line" identifier="ALKU956U4Q"/>
      <point x="414" y="202" type="line" identifier="tArOi2wLhY"/>
      <point x="444" y="114" type="line" identifier="7Zgwv5X6GL"/>
      <point x="433" y="101" type="line" identifier="8l05134Kh3"/>
      <point x="237" y="138" type="line" identifier="VUNRk024Rz"/>
      <point x="561" y="396" type="line" identifier="L2i98TEgHR"/>
      <point x="581" y="516" type="line" identifier="77rE7ZgmHu"/>
      <point x="456" y="516" type="line" identifier="kv3bWPNeu6"/>
      <point x="444" y="443" type="line" identifier="nJfX4K9qdF"/>
      <point x="438" y="438" type="line" identifier="cKh1huFTWb"/>
      <point x="436" y="440" type="line" smooth="yes" identifier="80FbdhdhRd"/>
      <point x="367" y="509" identifier="BtnvRsvBFo"/>
      <point x="300" y="528" identifier="lfbz79m9pB"/>
      <point x="238" y="528" type="curve" smooth="yes" identifier="9qPfLzT0ud"/>
      <point x="139" y="528" identifier="7uSPmyJCZy"/>
      <point x="75" y="463" identifier="sdWY3rfim7"/>
      <point x="75" y="348" type="curve" smooth="yes" identifier="BJxrLTsoSx"/>
      <point x="75" y="339" type="line" identifier="xQC7pa2rY3"/>
      <point x="183" y="339" type="line" identifier="SCPn5Uc9qE"/>
      <point x="183" y="397" identifier="rwRXHVggWZ"/>
      <point x="213" y="415" identifier="Asb9LJbSyC"/>
      <point x="247" y="415" type="curve" smooth="yes" identifier="QXzS5rPg3g"/>
      <point x="290" y="415" identifier="bUGjhK2xW5"/>
      <point x="320" y="404" identifier="SstuEKXm6V"/>
      <point x="358" y="374" type="curve" identifier="xRktDCV8C0"/>
      <point x="38" y="120" type="line" identifier="4CglCwyVou"/>
      <point x="18" y="0" type="line" identifier="Ka6QrZRNeS"/>
      <point x="143" y="0" type="line" identifier="RKgNJ9lStN"/>
      <point x="155" y="73" type="line" identifier="cCNHNsA2ca"/>
      <point x="159" y="76" type="line" identifier="WaOtyZs3tm"/>
      <point x="260" y="24" type="line" smooth="yes" identifier="e7MQ1ukhV5"/>
      <point x="314" y="-4" identifier="Z5HnXgCCRM"/>
      <point x="366" y="-12" identifier="EMAJqn3KUN"/>
    </contour>
  </outline>
</glyph>
<glyph name="braceleft" format="2">
  <advance width="600"/>
  <unicode hex="007B"/>
  <outline>
    <contour>
      <point x="444" y="-138" type="line" identifier="bFcqgzfq0f"/>
      <point x="460" y="-40" type="line" identifier="R8r9HyrVH5"/>
      <point x="277" y="-40" type="line" identifier="kG75QArbG9"/>
      <point x="285" y="9" type="line" smooth="yes" identifier="gFA7KnzVS6"/>
      <point x="293" y="59" identifier="VMjiJhQrnk"/>
      <point x="316" y="81" identifier="62qV9MgEZ6"/>
      <point x="341" y="107" type="curve" smooth="yes" identifier="bhG3cG9q0N"/>
      <point x="372" y="140" identifier="XAEgL3wD1F"/>
      <point x="406" y="173" identifier="DLTHPoqeXp"/>
      <point x="406" y="222" type="curve" smooth="yes" identifier="3v31CNDqBD"/>
      <point x="406" y="269" identifier="u5cOBy6t6K"/>
      <point x="373" y="299" identifier="mNXMLYC0NA"/>
      <point x="304" y="307" type="curve" identifier="vWvSYIwS1z"/>
      <point x="306" y="315" type="line" identifier="JBPO4H3raB"/>
      <point x="397" y="325" identifier="b4znKHChwc"/>
      <point x="440" y="367" identifier="vBVHsUTmEW"/>
      <point x="440" y="429" type="curve" smooth="yes" identifier="6npUpOA8Ts"/>
      <point x="440" y="463" identifier="FoZRwnfqvg"/>
      <point x="424" y="491" identifier="T9rDpk2eym"/>
      <point x="409" y="515" type="curve" smooth="yes" identifier="MhzDdvRVwe"/>
      <point x="393" y="541" identifier="rEsV0NSQch"/>
      <point x="384" y="556" identifier="GM1Bo715E9"/>
      <point x="384" y="589" type="curve" smooth="yes" identifier="ztGHjazIIz"/>
      <point x="384" y="599" identifier="QxhZ9m1R71"/>
      <point x="386" y="614" identifier="2ptGrdRJiD"/>
      <point x="394" y="662" type="curve" identifier="awZMMSY1hK"/>
      <point x="577" y="662" type="line" identifier="ibPAb2C8wg"/>
      <point x="594" y="760" type="line" identifier="Z6aXVzoxQq"/>
      <point x="417" y="760" type="line" smooth="yes" identifier="ig6MFNLABo"/>
      <point x="328" y="760" identifier="BS1AwB0mRf"/>
      <point x="285" y="716" identifier="Jfutigr8dn"/>
      <point x="275" y="653" type="curve" smooth="yes" identifier="GCp3m6ZOwF"/>
      <point x="273" y="641" identifier="x6GNaCdQ10"/>
      <point x="265" y="593" identifier="XiMQT8nVlV"/>
      <point x="265" y="579" type="curve" smooth="yes" identifier="mFhhyjYyzC"/>
      <point x="265" y="534" identifier="7TaKFy01SG"/>
      <point x="283" y="508" identifier="b4ftexc5qv"/>
      <point x="302" y="480" type="curve" smooth="yes" identifier="9EPAaEl0ta"/>
      <point x="316" y="459" identifier="66DmIfhQn7"/>
      <point x="322" y="441" identifier="457JqxU1sb"/>
      <point x="322" y="425" type="curve" smooth="yes" identifier="UzHbmVcMBb"/>
      <point x="322" y="383" identifier="WyF9nmK9QZ"/>
      <point x="280" y="360" identifier="b27p2Fjq9i"/>
      <point x="204" y="360" type="curve" smooth="yes" identifier="ReWgcn4ere"/>
      <point x="115" y="360" type="line" identifier="ZxtnyFl0uN"/>
      <point x="99" y="262" type="line" identifier="xsnpw0ySXf"/>
      <point x="188" y="262" type="line" smooth="yes" identifier="UZQWeZZs8O"/>
      <point x="253" y="262" identifier="D5j9vJH22y"/>
      <point x="287" y="244" identifier="m0z6Icm7tz"/>
      <point x="287" y="213" type="curve" smooth="yes" identifier="xPzSzjypsJ"/>
      <point x="287" y="193" identifier="BxNPo5rSYr"/>
      <point x="279" y="176" identifier="AtLrmgkYV8"/>
      <point x="245" y="142" type="curve" smooth="yes" identifier="giYxBeo9K2"/>
      <point x="217" y="114" identifier="6dyFZcFu2L"/>
      <point x="182" y="82" identifier="nCR7woPdAb"/>
      <point x="169" y="15" type="curve" smooth="yes" identifier="8mp6f7GBm3"/>
      <point x="160" y="-31" identifier="9kLCBsSNBi"/>
      <point x="159" y="-47" identifier="619VKWtiV9"/>
      <point x="159" y="-55" type="curve" smooth="yes" identifier="AFmzCp90ni"/>
      <point x="159" y="-104" identifier="NWgikQCVI2"/>
      <point x="190" y="-138" identifier="bKwOviNLRG"/>
      <point x="268" y="-138" type="curve" smooth="yes" identifier="SvLpEszfwW"/>
    </contour>
  </outline>
</glyph>
<glyph name="bar" format="2">
  <advance width="600"/>
  <unicode hex="007C"/>
  <outline>
    <contour>
      <point x="297" y="-138" type="line" identifier="bSKMhhcSau"/>
      <point x="447" y="760" type="line" identifier="QM636NrGF1"/>
      <point x="323" y="760" type="line" identifier="OmivRRH7ej"/>
      <point x="173" y="-138" type="line" identifier="yo0pVQLXeM"/>
    </contour>
  </outline>
</glyph>
<glyph name="braceright" format="2">
  <advance width="600"/>
  <unicode hex="007D"/>
  <outline>
    <contour>
      <point x="174" y="760" type="line" identifier="VpCNJdAhPE"/>
      <point x="158" y="662" type="line" identifier="w5l9I8wf0d"/>
      <point x="341" y="662" type="line" identifier="JBfBfUXmrm"/>
      <point x="333" y="613" type="line" smooth="yes" identifier="yloRrCZjbl"/>
      <point x="325" y="563" identifier="BpGSOlFOK6"/>
      <point x="302" y="541" identifier="Gq5ywwivca"/>
      <point x="277" y="515" type="curve" smooth="yes" identifier="btkSE3k309"/>
      <point x="246" y="482" identifier="9HH1LWPFkZ"/>
      <point x="212" y="449" identifier="JYEBKrznjE"/>
      <point x="212" y="400" type="curve" smooth="yes" identifier="F6ZIapFE3H"/>
      <point x="212" y="353" identifier="ndk9Pbs652"/>
      <point x="245" y="323" identifier="olQxmtJdPH"/>
      <point x="314" y="315" type="curve" identifier="UjO7LTNenJ"/>
      <point x="312" y="307" type="line" identifier="KhWUf00Kuk"/>
      <point x="221" y="297" identifier="9ATe7CRVF7"/>
      <point x="178" y="255" identifier="MYiyZY19up"/>
      <point x="178" y="193" type="curve" smooth="yes" identifier="RQCvH9MqmO"/>
      <point x="178" y="159" identifier="AqztWgIBFS"/>
      <point x="194" y="131" identifier="H8UGe6BAh4"/>
      <point x="209" y="107" type="curve" smooth="yes" identifier="6yJPRevnZ6"/>
      <point x="225" y="81" identifier="PP02XDDT2W"/>
      <point x="234" y="66" identifier="K6Aa1SxcdR"/>
      <point x="234" y="33" type="curve" smooth="yes" identifier="BMzXD0KyLN"/>
      <point x="234" y="23" identifier="UyXiAVeIT9"/>
      <point x="232" y="8" identifier="IPGQuvP6wj"/>
      <point x="224" y="-40" type="curve" identifier="THwAGKcbCY"/>
      <point x="41" y="-40" type="line" identifier="SxgAAfSv14"/>
      <point x="24" y="-138" type="line" identifier="UBUwaj2Hgp"/>
      <point x="201" y="-138" type="line" smooth="yes" identifier="nJzvzR1APT"/>
      <point x="290" y="-138" identifier="oaFxKRX7Lz"/>
      <point x="333" y="-94" identifier="HxKkFBuNJR"/>
      <point x="343" y="-31" type="curve" smooth="yes" identifier="FMFvb1r5hD"/>
      <point x="345" y="-19" identifier="OByOuUPeTb"/>
      <point x="353" y="29" identifier="NjH8WkY7Xx"/>
      <point x="353" y="43" type="curve" smooth="yes" identifier="7nwAkLbzdF"/>
      <point x="353" y="88" identifier="q0KpceWelH"/>
      <point x="335" y="114" identifier="kS9cz6kWzU"/>
      <point x="316" y="142" type="curve" smooth="yes" identifier="EsM8ododEZ"/>
      <point x="302" y="163" identifier="qO8tfs2GSr"/>
      <point x="296" y="181" identifier="ih49agYqev"/>
      <point x="296" y="197" type="curve" smooth="yes" identifier="9GaKjG7TLo"/>
      <point x="296" y="239" identifier="85vNNtdcpZ"/>
      <point x="338" y="262" identifier="pyzNbME1CL"/>
      <point x="414" y="262" type="curve" smooth="yes" identifier="Arnwgjon0Z"/>
      <point x="503" y="262" type="line" identifier="bQpAFV4ewK"/>
      <point x="519" y="360" type="line" identifier="hX0YF0tsnQ"/>
      <point x="430" y="360" type="line" smooth="yes" identifier="y0CiYNNkHD"/>
      <point x="365" y="360" identifier="OWOrjnhXeM"/>
      <point x="331" y="378" identifier="dDbdm3596L"/>
      <point x="331" y="409" type="curve" smooth="yes" identifier="J5HByCZMn9"/>
      <point x="331" y="429" identifier="7BfgJNUwkq"/>
      <point x="339" y="446" identifier="tcIeBC5Iwj"/>
      <point x="373" y="480" type="curve" smooth="yes" identifier="PYDpDE1gFn"/>
      <point x="401" y="508" identifier="sM2frvZiPS"/>
      <point x="436" y="540" identifier="I0AzwYnAF2"/>
      <point x="449" y="607" type="curve" smooth="yes" identifier="nS0sHBZqpK"/>
      <point x="458" y="653" identifier="B0I8y5r2gl"/>
      <point x="459" y="669" identifier="Z6Wi8V9ge9"/>
      <point x="459" y="677" type="curve" smooth="yes" identifier="oeMshmqbdW"/>
      <point x="459" y="726" identifier="z2YjuyQDzq"/>
      <point x="428" y="760" identifier="xlHn6x1Qmg"/>
      <point x="350" y="760" type="curve" smooth="yes" identifier="4LalUl3oJs"/>
    </contour>
  </outline>
</glyph>
<glyph name="asciitilde" format="2">
  <advance width="600"/>
  <unicode hex="007E"/>
  <outline>
    <contour>
      <point x="394" y="173" type="curve" smooth="yes" identifier="vnfxAhZTKg"/>
      <point x="493" y="173" identifier="tH4Z9fImS2"/>
      <point x="560" y="273" identifier="ZxIb4r98ug"/>
      <point x="588" y="403" type="curve" identifier="fwZHbbHUpU"/>
      <point x="485" y="424" type="line" identifier="CLbc7uiwhJ"/>
      <point x="465" y="349" identifier="nIsTW7Y4Xa"/>
      <point x="435" y="296" identifier="HgCjjBiVwN"/>
      <point x="404" y="296" type="curve" smooth="yes" identifier="QPXwtcifTM"/>
      <point x="375" y="296" identifier="udiBIZFNPS"/>
      <point x="368" y="318" identifier="hrnZhVLPff"/>
      <point x="339" y="364" type="curve" smooth="yes" identifier="2CEvsB7VRh"/>
      <point x="319" y="396" identifier="tZdWMYuARa"/>
      <point x="285" y="436" identifier="Lgzhz8Lno4"/>
      <point x="213" y="436" type="curve" smooth="yes" identifier="2Qfw8o3uyE"/>
      <point x="114" y="436" identifier="GZkJHlmM1Y"/>
      <point x="47" y="336" identifier="qQTUCkscPE"/>
      <point x="19" y="206" type="curve" identifier="rFI3a6GS2L"/>
      <point x="122" y="185" type="line" identifier="3Fj9nEcoH8"/>
      <point x="142" y="260" identifier="5bz6sOq5J3"/>
      <point x="172" y="313" identifier="myiHQNZ5V7"/>
      <point x="203" y="313" type="curve" smooth="yes" identifier="C4nA9Ew1wX"/>
      <point x="232" y="313" identifier="BtJX7ksR5w"/>
      <point x="239" y="291" identifier="oKSl1QmS90"/>
      <point x="268" y="245" type="curve" smooth="yes" identifier="GyGENhfvaV"/>
      <point x="288" y="213" identifier="tDlbvGrx5O"/>
      <point x="322" y="173" identifier="45X3OazukY"/>
    </contour>
  </outline>
</glyph>
<glyph name="exclamdown" format="2">
  <advance width="600"/>
  <unicode hex="00A1"/>
  <outline>
    <contour>
      <point x="304" y="-182" type="line" identifier="9laz2gFfVr"/>
      <point x="338" y="21" type="line" identifier="skhUSdJZme"/>
      <point x="326" y="274" type="line" identifier="SGkqyb7iVT"/>
      <point x="273" y="274" type="line" identifier="LRRch584ZO"/>
      <point x="177" y="21" type="line" identifier="AFv9jSgag2"/>
      <point x="143" y="-182" type="line" identifier="IPQFEeP9Ab"/>
    </contour>
    <contour>
      <point x="315" y="342" type="curve" smooth="yes" identifier="DoDlVmnVy2"/>
      <point x="381" y="342" identifier="Fp1LBQeOrt"/>
      <point x="413" y="375" identifier="obienm2ZG6"/>
      <point x="420" y="417" type="curve" smooth="yes" identifier="HT2DvLGAAz"/>
      <point x="425" y="447" identifier="TWiVOMsmSh"/>
      <point x="426" y="457" identifier="WzVPns7ddL"/>
      <point x="426" y="465" type="curve" smooth="yes" identifier="pFn48moNE3"/>
      <point x="426" y="500" identifier="mOGyOGws1P"/>
      <point x="400" y="528" identifier="5XG3UpqiyF"/>
      <point x="338" y="528" type="curve" smooth="yes" identifier="XIDu3ZX2ku"/>
      <point x="272" y="528" identifier="1PjOH9MXIT"/>
      <point x="240" y="495" identifier="LbOqd8xFPa"/>
      <point x="233" y="453" type="curve" smooth="yes" identifier="PKu3vJkIeW"/>
      <point x="228" y="423" identifier="MAeciNVWIO"/>
      <point x="227" y="413" identifier="HX8PAvuppD"/>
      <point x="227" y="405" type="curve" smooth="yes" identifier="gBii1yLzzC"/>
      <point x="227" y="370" identifier="Zwdwhay5zC"/>
      <point x="253" y="342" identifier="YrNKZNxP4B"/>
    </contour>
  </outline>
</glyph>
<glyph name="cent" format="2">
  <advance width="600"/>
  <unicode hex="00A2"/>
  <outline>
    <contour>
      <point x="198" y="-114" type="line" identifier="QXRkjBZjvM"/>
      <point x="310" y="-114" type="line" identifier="tnfagDcSqV"/>
      <point x="327" y="-9" type="line" identifier="0aYjaOZrDi"/>
      <point x="418" y="4" identifier="VCADHHEtY0"/>
      <point x="474" y="56" identifier="DzS9YjlbFe"/>
      <point x="529" y="144" type="curve" identifier="K1eoPTJeey"/>
      <point x="443" y="196" type="line" identifier="g1I16hOCJe"/>
      <point x="395" y="133" identifier="KbLVVfwMrp"/>
      <point x="365" y="109" identifier="9ZMzcqA55c"/>
      <point x="337" y="100" type="curve" identifier="0XoIW0l4eB"/>
      <point x="389" y="414" type="line" identifier="IEvM6ielt3"/>
      <point x="419" y="404" identifier="fGYEynn6dH"/>
      <point x="434" y="382" identifier="00q3i6EQib"/>
      <point x="444" y="353" type="curve" identifier="gaTZbLTgMK"/>
      <point x="555" y="399" type="line" identifier="LdZW6a64Ah"/>
      <point x="538" y="459" identifier="JREkMCEH4h"/>
      <point x="492" y="504" identifier="5Q8Fis8Pmb"/>
      <point x="416" y="521" type="curve" identifier="uVp9GCvgID"/>
      <point x="434" y="630" type="line" identifier="40tWGJSXur"/>
      <point x="322" y="630" type="line" identifier="lV3RGfODg0"/>
      <point x="305" y="526" type="line" identifier="3M9xnOAOtT"/>
      <point x="146" y="507" identifier="4xLQKGl2YH"/>
      <point x="57" y="369" identifier="1i7dW2G2fG"/>
      <point x="57" y="206" type="curve" smooth="yes" identifier="icPOuBxZE8"/>
      <point x="57" y="90" identifier="rOgoXOWLYT"/>
      <point x="112" y="16" identifier="UEWb5zsHuN"/>
      <point x="216" y="-6" type="curve" identifier="9AY22FQ1Uj"/>
    </contour>
    <contour>
      <point x="197" y="194" type="curve" smooth="yes" identifier="ZShQtHxWML"/>
      <point x="197" y="210" identifier="SzQcaXVZWc"/>
      <point x="198" y="224" identifier="XGGGJEzQA1"/>
      <point x="201" y="240" type="curve" smooth="yes" identifier="2l6VVx0yf2"/>
      <point x="211" y="302" type="line" smooth="yes" identifier="z1iOpcffyQ"/>
      <point x="220" y="361" identifier="KohgNBntwt"/>
      <point x="251" y="401" identifier="91XsfliLK3"/>
      <point x="296" y="416" type="curve" identifier="LB5bN6XiUZ"/>
      <point x="244" y="105" type="line" identifier="WlCWjN46nq"/>
      <point x="211" y="120" identifier="tkWMNqFDY3"/>
      <point x="197" y="152" identifier="0NfnvUvYlr"/>
    </contour>
  </outline>
</glyph>
<glyph name="sterling" format="2">
  <advance width="600"/>
  <unicode hex="00A3"/>
  <outline>
    <contour>
      <point x="472" y="-12" type="curve" smooth="yes" identifier="v6vsDcErC1"/>
      <point x="539" y="-12" identifier="N7ctYcVyJa"/>
      <point x="578" y="47" identifier="L1OuKXRjhL"/>
      <point x="578" y="109" type="curve" smooth="yes" identifier="MyqMbizSnF"/>
      <point x="578" y="141" identifier="tWb3qJSUW3"/>
      <point x="572" y="166" identifier="qrPYAJfkzR"/>
      <point x="557" y="212" type="curve" smooth="yes" identifier="mfCN9RglHu"/>
      <point x="547" y="242" type="line" identifier="rydtwCLIa9"/>
      <point x="448" y="216" type="line" identifier="DZtR8gATIE"/>
      <point x="465" y="127" type="line" identifier="Yba1dzY4IE"/>
      <point x="454" y="114" type="line" identifier="VtT3JPz3Ji"/>
      <point x="217" y="188" type="line" identifier="cfUF99Mnx4"/>
      <point x="221" y="195" type="line" identifier="X7xmb6bHkK"/>
      <point x="264" y="207" identifier="XsN6q6wSzX"/>
      <point x="304" y="236" identifier="5EW7snObwY"/>
      <point x="304" y="288" type="curve" smooth="yes" identifier="Jmr38bsOm7"/>
      <point x="304" y="296" type="line" identifier="3HCcXP1TRo"/>
      <point x="445" y="296" type="line" identifier="e60Pca2Ki4"/>
      <point x="462" y="397" type="line" identifier="PYeTOtjaKy"/>
      <point x="285" y="397" type="line" identifier="P8XDVRniNP"/>
      <point x="280" y="419" identifier="vnZddjLdyb"/>
      <point x="276" y="441" identifier="OXFjZHtVne"/>
      <point x="276" y="465" type="curve" smooth="yes" identifier="tAVga5KfzS"/>
      <point x="276" y="543" identifier="7y1AQohi72"/>
      <point x="324" y="583" identifier="BIPThOLBPv"/>
      <point x="390" y="583" type="curve" smooth="yes" identifier="ukcrzlvsCH"/>
      <point x="440" y="583" identifier="e0eO7ePLwN"/>
      <point x="473" y="557" identifier="5YCV3NW2X6"/>
      <point x="496" y="512" type="curve" identifier="SjPY1ysuSP"/>
      <point x="610" y="583" type="line" identifier="L6If0A2byW"/>
      <point x="567" y="664" identifier="EpqykxFHSD"/>
      <point x="496" y="710" identifier="RHsZPuUP2U"/>
      <point x="394" y="710" type="curve" smooth="yes" identifier="ofmZyPCYKH"/>
      <point x="249" y="710" identifier="sE59zY4O6k"/>
      <point x="133" y="613" identifier="dhVC9gBVmU"/>
      <point x="133" y="473" type="curve" smooth="yes" identifier="mbnuPD2SB5"/>
      <point x="133" y="446" identifier="Avlt0nhIOx"/>
      <point x="137" y="419" identifier="Sl1lvv28pR"/>
      <point x="141" y="397" type="curve" identifier="VwXPPmbagN"/>
      <point x="67" y="397" type="line" identifier="pJSEX0UJfj"/>
      <point x="50" y="296" type="line" identifier="ezJ2y6BuMS"/>
      <point x="157" y="296" type="line" identifier="1t2Qg6cO9N"/>
      <point x="158" y="290" identifier="ua289JPjJZ"/>
      <point x="158" y="284" identifier="eaJYMbfdln"/>
      <point x="158" y="278" type="curve" smooth="yes" identifier="acvnuOpyg9"/>
      <point x="158" y="209" identifier="MUB8cWaMl8"/>
      <point x="116" y="168" identifier="5JD09ufF5J"/>
      <point x="50" y="141" type="curve" identifier="kYSCF5mW1u"/>
      <point x="28" y="0" type="line" identifier="Z5LXZgfw6b"/>
      <point x="153" y="0" type="line" identifier="jsJ3pOdAhy"/>
      <point x="165" y="82" type="line" identifier="Fow9xQADFu"/>
      <point x="317" y="24" type="line" smooth="yes" identifier="ZQXkBQ5DR5"/>
      <point x="374" y="2" identifier="R5sBG9ytcB"/>
      <point x="426" y="-12" identifier="GxugoFe6Qu"/>
    </contour>
  </outline>
</glyph>
<glyph name="currency" format="2">
  <advance width="600"/>
  <unicode hex="00A4"/>
  <outline>
    <contour>
      <point x="286" y="107" type="curve" smooth="yes" identifier="fWYKAyPC9E"/>
      <point x="318" y="107" identifier="vYGq2gmToa"/>
      <point x="349" y="111" identifier="9DVslxDsBK"/>
      <point x="376" y="119" type="curve" identifier="NMp9fs42Vk"/>
      <point x="420" y="16" type="line" identifier="ApNdAD2lR2"/>
      <point x="524" y="73" type="line" identifier="qicu7jg7iy"/>
      <point x="478" y="180" type="line" identifier="Ipx6Kd0u5q"/>
      <point x="515" y="218" identifier="QYgGoNhjFR"/>
      <point x="542" y="272" identifier="aUT7EOdeL7"/>
      <point x="553" y="342" type="curve" smooth="yes" identifier="81I5GgvWgi"/>
      <point x="556" y="360" identifier="QcODc0ODQx"/>
      <point x="557" y="378" identifier="K0vwmHP74E"/>
      <point x="557" y="392" type="curve" smooth="yes" identifier="qzmuetF18G"/>
      <point x="557" y="438" identifier="lIqmBhzNGs"/>
      <point x="546" y="475" identifier="kQnmGaW2Lu"/>
      <point x="526" y="506" type="curve" identifier="5eZdy0k7ex"/>
      <point x="613" y="621" type="line" identifier="OaphPY0Xy9"/>
      <point x="519" y="682" type="line" identifier="L7dUQyYHB9"/>
      <point x="438" y="576" type="line" identifier="j6UgNa1ynV"/>
      <point x="411" y="586" identifier="px2ryHDLHn"/>
      <point x="381" y="591" identifier="OdWCl46YSv"/>
      <point x="345" y="591" type="curve" smooth="yes" identifier="mHBoVpvDUH"/>
      <point x="313" y="591" identifier="RZEG8czUPI"/>
      <point x="282" y="587" identifier="lRYk786gzn"/>
      <point x="255" y="579" type="curve" identifier="o5TEiFN77m"/>
      <point x="211" y="682" type="line" identifier="c8S28Vj4CA"/>
      <point x="107" y="625" type="line" identifier="sR67hZKcoF"/>
      <point x="153" y="518" type="line" identifier="ZAmymKfAa2"/>
      <point x="116" y="480" identifier="sP0EXHNv2x"/>
      <point x="89" y="426" identifier="yYAGRr306s"/>
      <point x="78" y="356" type="curve" smooth="yes" identifier="c515fwVLmJ"/>
      <point x="75" y="338" identifier="vdWhrDz2Zi"/>
      <point x="74" y="320" identifier="Pr6cHyvYkS"/>
      <point x="74" y="306" type="curve" smooth="yes" identifier="InXSOOTqUE"/>
      <point x="74" y="260" identifier="krUfLnkGe5"/>
      <point x="85" y="223" identifier="DubUf4qv7w"/>
      <point x="105" y="192" type="curve" identifier="ZNxOTnzgeq"/>
      <point x="18" y="77" type="line" identifier="ZxtG0nUhFP"/>
      <point x="112" y="16" type="line" identifier="UNIDakO6B0"/>
      <point x="193" y="122" type="line" identifier="vijdnL3TS6"/>
      <point x="220" y="112" identifier="AcGRv72njx"/>
      <point x="250" y="107" identifier="ENL0xoPYfh"/>
    </contour>
    <contour>
      <point x="293" y="212" type="curve" smooth="yes" identifier="RX8XGmQOeQ"/>
      <point x="245" y="212" identifier="suPiDIMP2U"/>
      <point x="217" y="241" identifier="7psL8HyzZe"/>
      <point x="217" y="292" type="curve" smooth="yes" identifier="26fZFiEf7J"/>
      <point x="217" y="301" identifier="sPA07IOdZa"/>
      <point x="218" y="312" identifier="GCvagoEQKM"/>
      <point x="220" y="323" type="curve" smooth="yes" identifier="3lyPvHDcWI"/>
      <point x="229" y="377" type="line" smooth="yes" identifier="RyxvZvpT94"/>
      <point x="240" y="445" identifier="gmfT6psP9s"/>
      <point x="282" y="486" identifier="t5qVM3tEMo"/>
      <point x="338" y="486" type="curve" smooth="yes" identifier="RI9hug0DJb"/>
      <point x="386" y="486" identifier="d9cZccyxae"/>
      <point x="414" y="457" identifier="s1OPivdWlJ"/>
      <point x="414" y="406" type="curve" smooth="yes" identifier="hg5FceeNPV"/>
      <point x="414" y="397" identifier="J5jPf73zr0"/>
      <point x="413" y="386" identifier="9QdmeDnwtT"/>
      <point x="411" y="375" type="curve" smooth="yes" identifier="3q3Qwem485"/>
      <point x="402" y="321" type="line" smooth="yes" identifier="M48uj0J8AP"/>
      <point x="391" y="253" identifier="7B8sFwysZ2"/>
      <point x="349" y="212" identifier="nU8vtMi7h4"/>
    </contour>
  </outline>
</glyph>
<glyph name="yen" format="2">
  <advance width="600"/>
  <unicode hex="00A5"/>
  <outline>
    <contour>
      <point x="19" y="0" type="line" identifier="5qu32se0jO"/>
      <point x="497" y="0" type="line" identifier="7EpybZnCZb"/>
      <point x="516" y="112" type="line" identifier="R77v6vSzY7"/>
      <point x="347" y="112" type="line" identifier="5LinQ77Lmy"/>
      <point x="363" y="212" type="line" identifier="c3VWzvazXS"/>
      <point x="532" y="212" type="line" identifier="eoUbTSa4Ve"/>
      <point x="551" y="324" type="line" identifier="HSdjZDzCYl"/>
      <point x="423" y="324" type="line" identifier="MaD9YA5r0i"/>
      <point x="673" y="698" type="line" identifier="QrBRhUUcwB"/>
      <point x="514" y="698" type="line" identifier="kUOEVSJO6A"/>
      <point x="322" y="391" type="line" identifier="EEnYtI26x6"/>
      <point x="314" y="391" type="line" identifier="sGurJ3bmqm"/>
      <point x="225" y="698" type="line" identifier="il9ZNkSdIK"/>
      <point x="75" y="698" type="line" identifier="8WPH8MtMBF"/>
      <point x="201" y="324" type="line" identifier="6Od2sfhNOk"/>
      <point x="74" y="324" type="line" identifier="s6z6dWzfGs"/>
      <point x="55" y="212" type="line" identifier="0bJFhgtuqv"/>
      <point x="223" y="212" type="line" identifier="kD077CrtyI"/>
      <point x="207" y="112" type="line" identifier="Q3GwUatPSP"/>
      <point x="38" y="112" type="line" identifier="B1wXSJ7K5R"/>
    </contour>
  </outline>
</glyph>
<glyph name="brokenbar" format="2">
  <advance width="600"/>
  <unicode hex="00A6"/>
  <outline>
    <contour>
      <point x="387" y="400" type="line" identifier="ELIAoBdkUn"/>
      <point x="447" y="760" type="line" identifier="02CdvvcV2n"/>
      <point x="323" y="760" type="line" identifier="7DCvBSJhlw"/>
      <point x="263" y="400" type="line" identifier="A09BSylT9a"/>
    </contour>
    <contour>
      <point x="297" y="-138" type="line" identifier="zGqQdlecu8"/>
      <point x="357" y="221" type="line" identifier="OU2u3mZDog"/>
      <point x="233" y="221" type="line" identifier="ip322oa4qb"/>
      <point x="173" y="-138" type="line" identifier="6pU1YAV3fC"/>
    </contour>
  </outline>
</glyph>
<glyph name="section" format="2">
  <advance width="600"/>
  <unicode hex="00A7"/>
  <outline>
    <contour>
      <point x="464" y="14" type="curve" smooth="yes" identifier="GBbiiVTgEl"/>
      <point x="464" y="62" identifier="kyrWW8wFqj"/>
      <point x="443" y="109" identifier="D1o18wcPkh"/>
      <point x="395" y="145" type="curve" identifier="LyJfHFnm8D"/>
      <point x="397" y="158" type="line" identifier="1blovN9a7n"/>
      <point x="495" y="183" identifier="xhonjRKuZU"/>
      <point x="539" y="233" identifier="FGUQKWFV49"/>
      <point x="539" y="313" type="curve" smooth="yes" identifier="Y76FuiwPfa"/>
      <point x="539" y="367" identifier="Bzyytr4qp5"/>
      <point x="497" y="413" identifier="B06zUrwqFh"/>
      <point x="407" y="444" type="curve" smooth="yes" identifier="c6Jz7U85Ra"/>
      <point x="335" y="469" type="line" smooth="yes" identifier="Bks6BqruRw"/>
      <point x="271" y="491" identifier="YO0qQNXWEE"/>
      <point x="257" y="510" identifier="P1gRrM9vy4"/>
      <point x="257" y="539" type="curve" smooth="yes" identifier="xAWFlMq2cv"/>
      <point x="257" y="579" identifier="2Y1V0u5IAz"/>
      <point x="302" y="605" identifier="KotjOimzUV"/>
      <point x="354" y="605" type="curve" smooth="yes" identifier="GeVMbp7BAJ"/>
      <point x="404" y="605" identifier="wHIie96gnc"/>
      <point x="456" y="585" identifier="i5zFtUo1Gj"/>
      <point x="485" y="550" type="curve" identifier="MCSdZkE8dD"/>
      <point x="563" y="638" type="line" identifier="lmXcSckqYO"/>
      <point x="514" y="688" identifier="jhITfdhHjR"/>
      <point x="432" y="710" identifier="AlSFVEH1wx"/>
      <point x="355" y="710" type="curve" smooth="yes" identifier="ra8dxjcvlr"/>
      <point x="209" y="710" identifier="C75PRm3I6W"/>
      <point x="130" y="631" identifier="iDDkOmSTRF"/>
      <point x="130" y="520" type="curve" smooth="yes" identifier="mopoapzfIN"/>
      <point x="130" y="472" identifier="KrfJqHHzxH"/>
      <point x="151" y="425" identifier="pKtZcOxRgC"/>
      <point x="199" y="389" type="curve" identifier="4w4dcbllrW"/>
      <point x="197" y="376" type="line" identifier="iYyo7DpfdO"/>
      <point x="99" y="351" identifier="tP6coWjUAA"/>
      <point x="55" y="301" identifier="NjmzWtab7s"/>
      <point x="55" y="221" type="curve" smooth="yes" identifier="3AKVjsF2uo"/>
      <point x="55" y="167" identifier="JkDoJ3iIUF"/>
      <point x="97" y="121" identifier="JneQ1Gv6EY"/>
      <point x="187" y="90" type="curve" smooth="yes" identifier="rUzZj28ZE4"/>
      <point x="259" y="65" type="line" smooth="yes" identifier="AW8nQpjPG0"/>
      <point x="323" y="43" identifier="3T5y8PPkHe"/>
      <point x="337" y="24" identifier="iVdDzC3Bnm"/>
      <point x="337" y="-5" type="curve" smooth="yes" identifier="ZARG98zHsW"/>
      <point x="337" y="-45" identifier="K0mU3Tzb3q"/>
      <point x="292" y="-71" identifier="9fOlQKjLTd"/>
      <point x="240" y="-71" type="curve" smooth="yes" identifier="W66yfWqQ25"/>
      <point x="190" y="-71" identifier="LzEnOmBkrw"/>
      <point x="138" y="-51" identifier="hfpZDjPKZG"/>
      <point x="109" y="-16" type="curve" identifier="PYArg1A26k"/>
      <point x="31" y="-104" type="line" identifier="n5rJV7t1hb"/>
      <point x="80" y="-154" identifier="bA9mTug1jK"/>
      <point x="162" y="-176" identifier="fsk6J1kA0L"/>
      <point x="239" y="-176" type="curve" smooth="yes" identifier="OIKZEqOwcw"/>
      <point x="385" y="-176" identifier="8uTiujk9Oj"/>
      <point x="464" y="-97" identifier="6OYzKOS8n0"/>
    </contour>
    <contour>
      <point x="410" y="255" type="curve" smooth="yes" identifier="SihVdXKDiH"/>
      <point x="410" y="222" identifier="IfKCnzVGwx"/>
      <point x="396" y="200" identifier="njFnaMVfrZ"/>
      <point x="350" y="169" type="curve" identifier="zw1uSSOVUS"/>
      <point x="343" y="172" identifier="r86OyFW6Zx"/>
      <point x="335" y="175" identifier="cA2nKZ2Xas"/>
      <point x="328" y="177" type="curve" smooth="yes" identifier="N54EYTE0KJ"/>
      <point x="255" y="200" type="line" smooth="yes" identifier="9rU40oHgNf"/>
      <point x="201" y="217" identifier="65sGU3Cle0"/>
      <point x="184" y="250" identifier="VA1XAYp003"/>
      <point x="184" y="279" type="curve" smooth="yes" identifier="zfdycp165W"/>
      <point x="184" y="312" identifier="fyyLTKJrmS"/>
      <point x="198" y="334" identifier="6Fck4kdRdl"/>
      <point x="244" y="365" type="curve" identifier="HLO6ItHdY7"/>
      <point x="251" y="362" identifier="R0haqJjopl"/>
      <point x="259" y="359" identifier="eEPyubVb1y"/>
      <point x="266" y="357" type="curve" smooth="yes" identifier="LkkGeJMNXt"/>
      <point x="339" y="334" type="line" smooth="yes" identifier="HwlzRo9gtk"/>
      <point x="393" y="317" identifier="OFjYWNlozj"/>
      <point x="410" y="284" identifier="dwjx2l1b9J"/>
    </contour>
  </outline>
</glyph>
<glyph name="dieresis" format="2">
  <advance width="600"/>
  <unicode hex="00A8"/>
  <anchor x="300.0" y="516.0" name="_top"/>
  <outline>
    <contour>
      <point x="208" y="592" type="curve" smooth="yes" identifier="V2BV5fOmOQ"/>
      <point x="266" y="592" identifier="Xf9R6y8Vpb"/>
      <point x="287" y="616" identifier="Il7y16r69J"/>
      <point x="293" y="652" type="curve" smooth="yes" identifier="mktw8DxNgf"/>
      <point x="296" y="670" identifier="8w7qyYaQF2"/>
      <point x="298" y="681" identifier="ne1jaxPPpq"/>
      <point x="298" y="687" type="curve" smooth="yes" identifier="xbmfj9JObV"/>
      <point x="298" y="718" identifier="xJ8t5fUEND"/>
      <point x="278" y="741" identifier="XDrH8K6K2M"/>
      <point x="224" y="741" type="curve" smooth="yes" identifier="YC85WrsDN2"/>
      <point x="166" y="741" identifier="FRpPA9cxWS"/>
      <point x="145" y="717" identifier="4uxYtMDsvl"/>
      <point x="139" y="681" type="curve" smooth="yes" identifier="70C2exqAgC"/>
      <point x="136" y="663" identifier="2QulvMgzIE"/>
      <point x="134" y="652" identifier="PqUtDAbVKc"/>
      <point x="134" y="646" type="curve" smooth="yes" identifier="LSmaIF9br7"/>
      <point x="134" y="615" identifier="l3qjKMF62q"/>
      <point x="154" y="592" identifier="Qwmd5ejQlq"/>
    </contour>
    <contour>
      <point x="426" y="592" type="curve" smooth="yes" identifier="Q4raFaFCcH"/>
      <point x="484" y="592" identifier="RUoapclPAq"/>
      <point x="505" y="616" identifier="DmGz43PwOl"/>
      <point x="511" y="652" type="curve" smooth="yes" identifier="Wpg26E7H0D"/>
      <point x="514" y="670" identifier="pmHvLiN2zW"/>
      <point x="516" y="681" identifier="zrKlaGVtTd"/>
      <point x="516" y="687" type="curve" smooth="yes" identifier="XjvzZQMBj2"/>
      <point x="516" y="718" identifier="oh7SbVFSc6"/>
      <point x="496" y="741" identifier="FXB1Dyj0i2"/>
      <point x="442" y="741" type="curve" smooth="yes" identifier="ByxlgSPfDD"/>
      <point x="384" y="741" identifier="GnMWJ5vy06"/>
      <point x="363" y="717" identifier="lJ8Ugx8C9d"/>
      <point x="357" y="681" type="curve" smooth="yes" identifier="sf7KVMGXIm"/>
      <point x="354" y="663" identifier="5yiszA8G5I"/>
      <point x="352" y="652" identifier="8INrwj6POg"/>
      <point x="352" y="646" type="curve" smooth="yes" identifier="Z1beAOkQks"/>
      <point x="352" y="615" identifier="XHVO2qmIl3"/>
      <point x="372" y="592" identifier="shZq9Ynt6P"/>
    </contour>
  </outline>
</glyph>
